Surma-Regular.ufo
<glyph name="exclam" format="2">
  <advance width="962"/>
  <unicode hex="0021"/>
  <outline>
    <contour>
      <point x="618" y="380" type="line"/>
      <point x="676" y="928" type="line"/>
      <point x="676" y="936"/>
      <point x="678" y="944"/>
      <point x="678" y="952" type="curve" smooth="yes"/>
      <point x="678" y="1014"/>
      <point x="654" y="1132"/>
      <point x="574" y="1132" type="curve" smooth="yes"/>
      <point x="494" y="1132"/>
      <point x="486" y="1026"/>
      <point x="486" y="968" type="curve" smooth="yes"/>
      <point x="486" y="808"/>
      <point x="554" y="508"/>
      <point x="582" y="340" type="curve"/>
    </contour>
    <contour>
      <point x="682" y="158" type="curve" smooth="yes"/>
      <point x="682" y="210"/>
      <point x="644" y="248"/>
      <point x="592" y="248" type="curve" smooth="yes"/>
      <point x="542" y="248"/>
      <point x="504" y="208"/>
      <point x="504" y="158" type="curve" smooth="yes"/>
      <point x="504" y="110"/>
      <point x="544" y="70"/>
      <point x="592" y="70" type="curve" smooth="yes"/>
      <point x="644" y="70"/>
      <point x="682" y="106"/>
    </contour>
  </outline>
</glyph>
<glyph name="quotedbl" format="2">
  <advance width="840"/>
  <unicode hex="0022"/>
  <outline>
    <contour>
      <point x="680" y="1222" type="curve" smooth="yes"/>
      <point x="680" y="1262"/>
      <point x="638" y="1288"/>
      <point x="602" y="1288" type="curve" smooth="yes"/>
      <point x="566" y="1288"/>
      <point x="526" y="1260"/>
      <point x="526" y="1220" type="curve" smooth="yes"/>
      <point x="526" y="1126"/>
      <point x="568" y="956"/>
      <point x="584" y="858" type="curve"/>
      <point x="620" y="858" type="line"/>
      <point x="634" y="940"/>
      <point x="680" y="1152"/>
    </contour>
    <contour>
      <point x="356" y="1210" type="line"/>
      <point x="364" y="1254"/>
      <point x="318" y="1288"/>
      <point x="278" y="1288" type="curve" smooth="yes"/>
      <point x="242" y="1288"/>
      <point x="200" y="1256"/>
      <point x="200" y="1218" type="curve" smooth="yes"/>
      <point x="200" y="1136"/>
      <point x="244" y="948"/>
      <point x="260" y="858" type="curve"/>
      <point x="296" y="858" type="line"/>
    </contour>
  </outline>
</glyph>
<glyph name="numbersign" format="2">
  <advance width="1214"/>
  <unicode hex="0023"/>
  <outline>
    <contour>
      <point x="974" y="720" type="line"/>
      <point x="974" y="804" type="line"/>
      <point x="822" y="804" type="line"/>
      <point x="868" y="1120" type="line"/>
      <point x="778" y="1120" type="line"/>
      <point x="732" y="804" type="line"/>
      <point x="524" y="804" type="line"/>
      <point x="574" y="1120" type="line"/>
      <point x="482" y="1120" type="line"/>
      <point x="434" y="804" type="line"/>
      <point x="250" y="804" type="line"/>
      <point x="250" y="720" type="line"/>
      <point x="422" y="720" type="line"/>
      <point x="390" y="510" type="line"/>
      <point x="208" y="510" type="line"/>
      <point x="208" y="424" type="line"/>
      <point x="376" y="424" type="line"/>
      <point x="324" y="88" type="line"/>
      <point x="414" y="88" type="line"/>
      <point x="466" y="424" type="line"/>
      <point x="674" y="424" type="line"/>
      <point x="626" y="88" type="line"/>
      <point x="716" y="88" type="line"/>
      <point x="764" y="424" type="line"/>
      <point x="934" y="424" type="line"/>
      <point x="934" y="510" type="line"/>
      <point x="778" y="510" type="line"/>
      <point x="810" y="720" type="line"/>
    </contour>
    <contour>
      <point x="720" y="720" type="line"/>
      <point x="688" y="510" type="line"/>
      <point x="480" y="510" type="line"/>
      <point x="512" y="720" type="line"/>
    </contour>
  </outline>
</glyph>
<glyph name="dollar" format="2">
  <advance width="780"/>
  <unicode hex="0024"/>
  <outline>
    <contour>
      <point x="702" y="349" type="curve" smooth="yes"/>
      <point x="702" y="488"/>
      <point x="626" y="544"/>
      <point x="400" y="706" type="curve"/>
      <point x="400" y="1092" type="line"/>
      <point x="554" y="1077"/>
      <point x="611" y="990"/>
      <point x="622" y="847" type="curve"/>
      <point x="652" y="847" type="line"/>
      <point x="652" y="1075" type="line"/>
      <point x="570" y="1107"/>
      <point x="519" y="1125"/>
      <point x="505" y="1129" type="curve"/>
      <point x="477" y="1135"/>
      <point x="441" y="1142"/>
      <point x="400" y="1143" type="curve"/>
      <point x="400" y="1213" type="line"/>
      <point x="352" y="1213" type="line"/>
      <point x="352" y="1143" type="line"/>
      <point x="249" y="1136"/>
      <point x="83" y="1069"/>
      <point x="83" y="896" type="curve" smooth="yes"/>
      <point x="83" y="745"/>
      <point x="182" y="677"/>
      <point x="352" y="566" type="curve"/>
      <point x="352" y="122" type="line"/>
      <point x="205" y="135"/>
      <point x="126" y="204"/>
      <point x="116" y="348" type="curve"/>
      <point x="83" y="348" type="line"/>
      <point x="83" y="132" type="line"/>
      <point x="154" y="101"/>
      <point x="263" y="75"/>
      <point x="352" y="70" type="curve"/>
      <point x="352" y="-26" type="line"/>
      <point x="400" y="-26" type="line"/>
      <point x="400" y="70" type="line"/>
      <point x="556" y="80"/>
      <point x="702" y="184"/>
    </contour>
    <contour>
      <point x="352" y="738" type="line"/>
      <point x="298" y="773"/>
      <point x="201" y="837"/>
      <point x="201" y="943" type="curve" smooth="yes"/>
      <point x="201" y="1060"/>
      <point x="303" y="1085"/>
      <point x="352" y="1092" type="curve"/>
    </contour>
    <contour>
      <point x="581" y="312" type="curve" smooth="yes"/>
      <point x="581" y="174"/>
      <point x="457" y="126"/>
      <point x="400" y="122" type="curve"/>
      <point x="400" y="532" type="line"/>
      <point x="516" y="451"/>
      <point x="581" y="402"/>
    </contour>
  </outline>
</glyph>
<glyph name="percent" format="2">
  <advance width="1336"/>
  <unicode hex="0025"/>
  <outline>
    <contour>
      <point x="1160" y="440" type="curve" smooth="yes"/>
      <point x="1160" y="550"/>
      <point x="1130" y="634"/>
      <point x="1002" y="634" type="curve" smooth="yes"/>
      <point x="860" y="634"/>
      <point x="758" y="458"/>
      <point x="758" y="330" type="curve" smooth="yes"/>
      <point x="758" y="218"/>
      <point x="820" y="130"/>
      <point x="938" y="130" type="curve" smooth="yes"/>
      <point x="1098" y="130"/>
      <point x="1160" y="306"/>
    </contour>
    <contour>
      <point x="1108" y="444" type="curve" smooth="yes"/>
      <point x="1108" y="356"/>
      <point x="1042" y="180"/>
      <point x="938" y="180" type="curve" smooth="yes"/>
      <point x="890" y="180"/>
      <point x="876" y="228"/>
      <point x="876" y="268" type="curve" smooth="yes"/>
      <point x="876" y="344"/>
      <point x="930" y="570"/>
      <point x="1028" y="570" type="curve" smooth="yes"/>
      <point x="1092" y="570"/>
      <point x="1108" y="494"/>
    </contour>
    <contour>
      <point x="1030" y="1172" type="line"/>
      <point x="964" y="1172" type="line"/>
      <point x="912" y="1102"/>
      <point x="828" y="1054"/>
      <point x="740" y="1054" type="curve" smooth="yes"/>
      <point x="552" y="1054"/>
      <point x="554" y="1144"/>
      <point x="474" y="1144" type="curve" smooth="yes"/>
      <point x="320" y="1144"/>
      <point x="208" y="988"/>
      <point x="208" y="844" type="curve" smooth="yes"/>
      <point x="208" y="734"/>
      <point x="282" y="644"/>
      <point x="396" y="644" type="curve" smooth="yes"/>
      <point x="566" y="644"/>
      <point x="608" y="848"/>
      <point x="608" y="980" type="curve" smooth="yes"/>
      <point x="608" y="994"/>
      <point x="606" y="1008"/>
      <point x="600" y="1020" type="curve"/>
      <point x="632" y="1006"/>
      <point x="668" y="1000"/>
      <point x="704" y="1000" type="curve" smooth="yes"/>
      <point x="760" y="1000"/>
      <point x="816" y="1012"/>
      <point x="868" y="1034" type="curve"/>
      <point x="350" y="90" type="line"/>
      <point x="436" y="90" type="line"/>
    </contour>
    <contour>
      <point x="564" y="956" type="curve" smooth="yes"/>
      <point x="564" y="872"/>
      <point x="492" y="692"/>
      <point x="394" y="692" type="curve" smooth="yes"/>
      <point x="342" y="692"/>
      <point x="332" y="740"/>
      <point x="332" y="782" type="curve" smooth="yes"/>
      <point x="332" y="856"/>
      <point x="386" y="1082"/>
      <point x="482" y="1082" type="curve" smooth="yes"/>
      <point x="542" y="1082"/>
      <point x="564" y="1004"/>
    </contour>
  </outline>
</glyph>
<glyph name="ampersand" format="2">
  <advance width="1214"/>
  <unicode hex="0026"/>
  <outline>
    <contour>
      <point x="1165" y="279" type="curve"/>
      <point x="1137" y="298" type="line"/>
      <point x="1128" y="260"/>
      <point x="1095" y="186"/>
      <point x="998" y="186" type="curve" smooth="yes"/>
      <point x="891" y="186"/>
      <point x="814" y="278"/>
      <point x="769" y="329" type="curve"/>
      <point x="825" y="399"/>
      <point x="877" y="473"/>
      <point x="921" y="555" type="curve" smooth="yes"/>
      <point x="1011" y="719"/>
      <point x="1030" y="719"/>
      <point x="1116" y="728" type="curve"/>
      <point x="1116" y="757" type="line"/>
      <point x="794" y="757" type="line"/>
      <point x="794" y="728" type="line"/>
      <point x="808" y="728"/>
      <point x="867" y="715"/>
      <point x="867" y="644" type="curve" smooth="yes"/>
      <point x="867" y="570"/>
      <point x="822" y="480"/>
      <point x="733" y="374" type="curve"/>
      <point x="661" y="470"/>
      <point x="594" y="574"/>
      <point x="531" y="688" type="curve"/>
      <point x="624" y="738"/>
      <point x="782" y="816"/>
      <point x="782" y="963" type="curve" smooth="yes"/>
      <point x="782" y="1059"/>
      <point x="710" y="1149"/>
      <point x="575" y="1149" type="curve" smooth="yes"/>
      <point x="451" y="1149"/>
      <point x="310" y="1072"/>
      <point x="310" y="897" type="curve" smooth="yes"/>
      <point x="310" y="804"/>
      <point x="349" y="723"/>
      <point x="374" y="670" type="curve"/>
      <point x="249" y="604"/>
      <point x="57" y="486"/>
      <point x="57" y="298" type="curve" smooth="yes"/>
      <point x="57" y="186"/>
      <point x="148" y="69"/>
      <point x="330" y="69" type="curve" smooth="yes"/>
      <point x="498" y="69"/>
      <point x="600" y="163"/>
      <point x="663" y="218" type="curve"/>
      <point x="718" y="158"/>
      <point x="810" y="69"/>
      <point x="930" y="69" type="curve" smooth="yes"/>
      <point x="1089" y="69"/>
      <point x="1149" y="203"/>
    </contour>
    <contour>
      <point x="693" y="966" type="curve" smooth="yes"/>
      <point x="693" y="836"/>
      <point x="568" y="768"/>
      <point x="505" y="740" type="curve"/>
      <point x="478" y="798"/>
      <point x="441" y="886"/>
      <point x="441" y="957" type="curve" smooth="yes"/>
      <point x="441" y="987"/>
      <point x="465" y="1095"/>
      <point x="575" y="1095" type="curve" smooth="yes"/>
      <point x="637" y="1095"/>
      <point x="693" y="1043"/>
    </contour>
    <contour>
      <point x="622" y="260" type="curve"/>
      <point x="572" y="219"/>
      <point x="502" y="161"/>
      <point x="408" y="161" type="curve" smooth="yes"/>
      <point x="282" y="161"/>
      <point x="216" y="266"/>
      <point x="216" y="366" type="curve" smooth="yes"/>
      <point x="216" y="512"/>
      <point x="338" y="585"/>
      <point x="398" y="618" type="curve"/>
      <point x="431" y="556"/>
      <point x="457" y="505"/>
      <point x="482" y="462" type="curve" smooth="yes"/>
      <point x="508" y="418"/>
      <point x="555" y="354"/>
    </contour>
  </outline>
</glyph>
<glyph name="quotesingle" format="2">
  <advance width="520"/>
  <unicode hex="0027"/>
  <outline>
    <contour>
      <point x="294" y="858" type="line"/>
      <point x="310" y="944"/>
      <point x="354" y="1138"/>
      <point x="354" y="1218" type="curve" smooth="yes"/>
      <point x="354" y="1256"/>
      <point x="312" y="1288"/>
      <point x="276" y="1288" type="curve" smooth="yes"/>
      <point x="240" y="1288"/>
      <point x="200" y="1258"/>
      <point x="200" y="1220" type="curve" smooth="yes"/>
      <point x="200" y="1138"/>
      <point x="244" y="948"/>
      <point x="260" y="858" type="curve"/>
    </contour>
  </outline>
</glyph>
<glyph name="parenleft" format="2">
  <advance width="582"/>
  <unicode hex="0028"/>
  <outline>
    <contour>
      <point x="560" y="-38" type="line"/>
      <point x="332" y="144"/>
      <point x="296" y="354"/>
      <point x="296" y="632" type="curve" smooth="yes"/>
      <point x="296" y="872"/>
      <point x="352" y="1096"/>
      <point x="560" y="1240" type="curve"/>
      <point x="546" y="1264" type="line"/>
      <point x="310" y="1118"/>
      <point x="164" y="900"/>
      <point x="164" y="618" type="curve" smooth="yes"/>
      <point x="164" y="322"/>
      <point x="300" y="100"/>
      <point x="542" y="-62" type="curve"/>
    </contour>
  </outline>
</glyph>
<glyph name="parenright" format="2">
  <advance width="738"/>
  <unicode hex="0029"/>
  <outline>
    <contour>
      <point x="518" y="574" type="curve" smooth="yes"/>
      <point x="518" y="802"/>
      <point x="430" y="1012"/>
      <point x="266" y="1170" type="curve" smooth="yes"/>
      <point x="228" y="1206"/>
      <point x="188" y="1242"/>
      <point x="140" y="1264" type="curve"/>
      <point x="122" y="1240" type="line"/>
      <point x="354" y="1076"/>
      <point x="386" y="834"/>
      <point x="386" y="570" type="curve" smooth="yes"/>
      <point x="386" y="326"/>
      <point x="330" y="108"/>
      <point x="122" y="-38" type="curve"/>
      <point x="136" y="-62" type="line"/>
      <point x="368" y="74"/>
      <point x="518" y="302"/>
    </contour>
  </outline>
</glyph>
<glyph name="asterisk" format="2">
  <advance width="902"/>
  <unicode hex="002A"/>
  <outline>
    <contour>
      <point x="792" y="1220" type="curve" smooth="yes"/>
      <point x="792" y="1254"/>
      <point x="764" y="1278"/>
      <point x="732" y="1278" type="curve" smooth="yes"/>
      <point x="658" y="1278"/>
      <point x="590" y="1164"/>
      <point x="530" y="1126" type="curve"/>
      <point x="536" y="1196"/>
      <point x="574" y="1262"/>
      <point x="574" y="1334" type="curve" smooth="yes"/>
      <point x="574" y="1368"/>
      <point x="556" y="1412"/>
      <point x="516" y="1412" type="curve" smooth="yes"/>
      <point x="470" y="1412"/>
      <point x="452" y="1374"/>
      <point x="452" y="1332" type="curve" smooth="yes"/>
      <point x="452" y="1262"/>
      <point x="494" y="1196"/>
      <point x="498" y="1126" type="curve"/>
      <point x="434" y="1166"/>
      <point x="368" y="1280"/>
      <point x="290" y="1280" type="curve" smooth="yes"/>
      <point x="260" y="1280"/>
      <point x="234" y="1256"/>
      <point x="234" y="1226" type="curve" smooth="yes"/>
      <point x="234" y="1132"/>
      <point x="416" y="1128"/>
      <point x="480" y="1096" type="curve"/>
      <point x="418" y="1070"/>
      <point x="234" y="1060"/>
      <point x="234" y="970" type="curve" smooth="yes"/>
      <point x="234" y="936"/>
      <point x="264" y="914"/>
      <point x="296" y="914" type="curve" smooth="yes"/>
      <point x="354" y="914"/>
      <point x="446" y="1036"/>
      <point x="498" y="1070" type="curve"/>
      <point x="490" y="996"/>
      <point x="450" y="928"/>
      <point x="450" y="854" type="curve" smooth="yes"/>
      <point x="450" y="812"/>
      <point x="476" y="782"/>
      <point x="518" y="782" type="curve" smooth="yes"/>
      <point x="554" y="782"/>
      <point x="574" y="822"/>
      <point x="574" y="854" type="curve" smooth="yes"/>
      <point x="574" y="928"/>
      <point x="532" y="996"/>
      <point x="530" y="1070" type="curve"/>
      <point x="584" y="1030"/>
      <point x="664" y="914"/>
      <point x="732" y="914" type="curve" smooth="yes"/>
      <point x="762" y="914"/>
      <point x="790" y="940"/>
      <point x="790" y="970" type="curve" smooth="yes"/>
      <point x="790" y="1062"/>
      <point x="606" y="1064"/>
      <point x="544" y="1096" type="curve"/>
      <point x="602" y="1120"/>
      <point x="792" y="1136"/>
    </contour>
  </outline>
</glyph>
<glyph name="plus" format="2">
  <advance width="1144"/>
  <unicode hex="002B"/>
  <outline>
    <contour>
      <point x="970" y="454" type="line"/>
      <point x="970" y="554" type="line"/>
      <point x="628" y="554" type="line"/>
      <point x="628" y="894" type="line"/>
      <point x="528" y="894" type="line"/>
      <point x="528" y="554" type="line"/>
      <point x="186" y="554" type="line"/>
      <point x="186" y="454" type="line"/>
      <point x="528" y="454" type="line"/>
      <point x="528" y="108" type="line"/>
      <point x="628" y="108" type="line"/>
      <point x="628" y="454" type="line"/>
    </contour>
  </outline>
</glyph>
<glyph name="comma" format="2">
  <advance width="642"/>
  <unicode hex="002C"/>
  <outline>
    <contour>
      <point x="446" y="128" type="curve" smooth="yes"/>
      <point x="446" y="210"/>
      <point x="422" y="306"/>
      <point x="322" y="306" type="curve" smooth="yes"/>
      <point x="252" y="306"/>
      <point x="196" y="262"/>
      <point x="196" y="190" type="curve" smooth="yes"/>
      <point x="196" y="124"/>
      <point x="246" y="72"/>
      <point x="312" y="72" type="curve" smooth="yes"/>
      <point x="332" y="72"/>
      <point x="352" y="72"/>
      <point x="370" y="82" type="curve"/>
      <point x="370" y="-14"/>
      <point x="302" y="-76"/>
      <point x="224" y="-120" type="curve"/>
      <point x="240" y="-156" type="line"/>
      <point x="346" y="-114"/>
      <point x="446" y="12"/>
    </contour>
  </outline>
</glyph>
<glyph name="period" format="2">
  <advance width="640"/>
  <unicode hex="002E"/>
  <outline>
    <contour>
      <point x="440" y="190" type="curve" smooth="yes"/>
      <point x="440" y="260"/>
      <point x="390" y="310"/>
      <point x="318" y="310" type="curve" smooth="yes"/>
      <point x="252" y="310"/>
      <point x="200" y="256"/>
      <point x="200" y="190" type="curve" smooth="yes"/>
      <point x="200" y="124"/>
      <point x="254" y="70"/>
      <point x="318" y="70" type="curve" smooth="yes"/>
      <point x="388" y="70"/>
      <point x="440" y="120"/>
    </contour>
  </outline>
</glyph>
<glyph name="slash" format="2">
  <advance width="592"/>
  <unicode hex="002F"/>
  <outline>
    <contour>
      <point x="542" y="1212" type="line"/>
      <point x="444" y="1212" type="line"/>
      <point x="52" y="-18" type="line"/>
      <point x="150" y="-18" type="line"/>
    </contour>
  </outline>
</glyph>
<glyph name="zero" format="2">
  <advance width="780"/>
  <unicode hex="0030"/>
  <anchor x="390" y="17" name="L"/>
  <anchor x="390" y="1185" name="U"/>
  <outline>
    <contour>
      <point x="724" y="618" type="curve" smooth="yes"/>
      <point x="724" y="340"/>
      <point x="606" y="75"/>
      <point x="385" y="75" type="curve" smooth="yes"/>
      <point x="183" y="75"/>
      <point x="56" y="335"/>
      <point x="56" y="603" type="curve" smooth="yes"/>
      <point x="56" y="932"/>
      <point x="216" y="1148"/>
      <point x="393" y="1148" type="curve" smooth="yes"/>
      <point x="567" y="1148"/>
      <point x="724" y="945"/>
    </contour>
    <contour>
      <point x="575" y="652" type="curve" smooth="yes"/>
      <point x="575" y="927"/>
      <point x="511" y="1098"/>
      <point x="392" y="1098" type="curve" smooth="yes"/>
      <point x="306" y="1098"/>
      <point x="205" y="999"/>
      <point x="205" y="585" type="curve" smooth="yes"/>
      <point x="205" y="278"/>
      <point x="278" y="123"/>
      <point x="388" y="123" type="curve" smooth="yes"/>
      <point x="498" y="123"/>
      <point x="575" y="253"/>
    </contour>
  </outline>
</glyph>
<glyph name="one" format="2">
  <advance width="780"/>
  <unicode hex="0031"/>
  <anchor x="387" y="17" name="L"/>
  <anchor x="387" y="1185" name="U"/>
  <outline>
    <contour>
      <point x="201" y="93" type="line"/>
      <point x="201" y="122" type="line"/>
      <point x="331" y="122"/>
      <point x="335" y="146"/>
      <point x="335" y="276" type="curve" smooth="yes"/>
      <point x="335" y="833" type="line"/>
      <point x="335" y="897" type="line" smooth="yes"/>
      <point x="335" y="999"/>
      <point x="320" y="1059"/>
      <point x="193" y="1000" type="curve"/>
      <point x="183" y="1024" type="line"/>
      <point x="434" y="1148" type="line"/>
      <point x="460" y="1148" type="line"/>
      <point x="460" y="276" type="line" smooth="yes"/>
      <point x="460" y="145"/>
      <point x="460" y="122"/>
      <point x="590" y="122" type="curve"/>
      <point x="590" y="93" type="line"/>
    </contour>
  </outline>
</glyph>
<glyph name="two" format="2">
  <advance width="780"/>
  <unicode hex="0032"/>
  <anchor x="375" y="17" name="L"/>
  <anchor x="375" y="1185" name="U"/>
  <outline>
    <contour>
      <point x="642" y="93" type="line"/>
      <point x="34" y="93" type="line"/>
      <point x="34" y="122" type="line"/>
      <point x="213" y="286"/>
      <point x="339" y="416"/>
      <point x="412" y="522" type="curve"/>
      <point x="486" y="626"/>
      <point x="522" y="721"/>
      <point x="522" y="805" type="curve" smooth="yes"/>
      <point x="522" y="982"/>
      <point x="382" y="1031"/>
      <point x="318" y="1031" type="curve" smooth="yes"/>
      <point x="173" y="1031"/>
      <point x="112" y="914"/>
      <point x="91" y="856" type="curve"/>
      <point x="65" y="856" type="line"/>
      <point x="77" y="948"/>
      <point x="130" y="1148"/>
      <point x="357" y="1148" type="curve" smooth="yes"/>
      <point x="504" y="1148"/>
      <point x="652" y="1045"/>
      <point x="652" y="876" type="curve" smooth="yes"/>
      <point x="652" y="714"/>
      <point x="517" y="551"/>
      <point x="432" y="458" type="curve" smooth="yes"/>
      <point x="305" y="320"/>
      <point x="228" y="238"/>
      <point x="196" y="209" type="curve"/>
      <point x="466" y="209" type="line" smooth="yes"/>
      <point x="622" y="209"/>
      <point x="641" y="224"/>
      <point x="687" y="291" type="curve"/>
      <point x="715" y="291" type="line"/>
    </contour>
  </outline>
</glyph>
<glyph name="three" format="2">
  <advance width="780"/>
  <unicode hex="0033"/>
  <anchor x="358" y="17" name="L"/>
  <anchor x="358" y="1185" name="U"/>
  <outline>
    <contour>
      <point x="651" y="435" type="curve" smooth="yes"/>
      <point x="651" y="224"/>
      <point x="496" y="75"/>
      <point x="244" y="75" type="curve" smooth="yes"/>
      <point x="70" y="75"/>
      <point x="65" y="135"/>
      <point x="65" y="158" type="curve" smooth="yes"/>
      <point x="65" y="187"/>
      <point x="93" y="212"/>
      <point x="125" y="212" type="curve" smooth="yes"/>
      <point x="199" y="212"/>
      <point x="240" y="142"/>
      <point x="345" y="142" type="curve" smooth="yes"/>
      <point x="435" y="142"/>
      <point x="538" y="220"/>
      <point x="538" y="342" type="curve" smooth="yes"/>
      <point x="538" y="480"/>
      <point x="463" y="546"/>
      <point x="388" y="576" type="curve" smooth="yes"/>
      <point x="344" y="594"/>
      <point x="294" y="604"/>
      <point x="237" y="604" type="curve"/>
      <point x="237" y="629" type="line"/>
      <point x="276" y="632"/>
      <point x="473" y="679"/>
      <point x="473" y="868" type="curve" smooth="yes"/>
      <point x="473" y="1002"/>
      <point x="370" y="1042"/>
      <point x="303" y="1042" type="curve" smooth="yes"/>
      <point x="224" y="1042"/>
      <point x="158" y="1000"/>
      <point x="105" y="916" type="curve"/>
      <point x="80" y="929" type="line"/>
      <point x="110" y="993"/>
      <point x="170" y="1148"/>
      <point x="358" y="1148" type="curve" smooth="yes"/>
      <point x="558" y="1148"/>
      <point x="598" y="992"/>
      <point x="598" y="938" type="curve" smooth="yes"/>
      <point x="598" y="864"/>
      <point x="553" y="786"/>
      <point x="459" y="706" type="curve"/>
      <point x="525" y="681"/>
      <point x="651" y="609"/>
    </contour>
  </outline>
</glyph>
<glyph name="four" format="2">
  <advance width="780"/>
  <unicode hex="0034"/>
  <anchor x="374" y="17" name="L"/>
  <anchor x="374" y="1185" name="U"/>
  <outline>
    <contour>
      <point x="588" y="366" type="line"/>
      <point x="588" y="93" type="line"/>
      <point x="462" y="93" type="line"/>
      <point x="462" y="366" type="line"/>
      <point x="24" y="366" type="line"/>
      <point x="24" y="462" type="line"/>
      <point x="504" y="1148" type="line"/>
      <point x="588" y="1148" type="line"/>
      <point x="588" y="473" type="line"/>
      <point x="724" y="473" type="line"/>
      <point x="724" y="366" type="line"/>
    </contour>
    <contour>
      <point x="462" y="987" type="line"/>
      <point x="99" y="473" type="line"/>
      <point x="462" y="473" type="line"/>
    </contour>
  </outline>
</glyph>
<glyph name="five" format="2">
  <advance width="780"/>
  <unicode hex="0035"/>
  <anchor x="376" y="17" name="L"/>
  <anchor x="376" y="1185" name="U"/>
  <outline>
    <contour>
      <point x="618" y="996" type="line"/>
      <point x="307" y="996" type="line"/>
      <point x="239" y="858" type="line"/>
      <point x="336" y="849"/>
      <point x="660" y="757"/>
      <point x="660" y="465" type="curve" smooth="yes"/>
      <point x="660" y="206"/>
      <point x="423" y="75"/>
      <point x="252" y="75" type="curve" smooth="yes"/>
      <point x="133" y="75"/>
      <point x="75" y="122"/>
      <point x="75" y="176" type="curve" smooth="yes"/>
      <point x="75" y="191"/>
      <point x="84" y="231"/>
      <point x="135" y="231" type="curve" smooth="yes"/>
      <point x="207" y="231"/>
      <point x="235" y="153"/>
      <point x="338" y="153" type="curve" smooth="yes"/>
      <point x="456" y="153"/>
      <point x="561" y="250"/>
      <point x="561" y="384" type="curve" smooth="yes"/>
      <point x="561" y="446"/>
      <point x="537" y="544"/>
      <point x="447" y="617" type="curve"/>
      <point x="336" y="709"/>
      <point x="204" y="722"/>
      <point x="110" y="725" type="curve"/>
      <point x="307" y="1125" type="line"/>
      <point x="677" y="1125" type="line"/>
    </contour>
  </outline>
</glyph>
<glyph name="six" format="2">
  <advance width="780"/>
  <unicode hex="0036"/>
  <anchor x="394" y="17" name="L"/>
  <anchor x="394" y="1185" name="U"/>
  <outline>
    <contour>
      <point x="720" y="441" type="curve" smooth="yes"/>
      <point x="720" y="259"/>
      <point x="593" y="75"/>
      <point x="392" y="75" type="curve" smooth="yes"/>
      <point x="201" y="75"/>
      <point x="68" y="269"/>
      <point x="68" y="498" type="curve" smooth="yes"/>
      <point x="68" y="725"/>
      <point x="177" y="887"/>
      <point x="281" y="984" type="curve" smooth="yes"/>
      <point x="411" y="1107"/>
      <point x="551" y="1148"/>
      <point x="655" y="1148" type="curve" smooth="yes"/>
      <point x="699" y="1148" type="line"/>
      <point x="699" y="1119" type="line"/>
      <point x="579" y="1114"/>
      <point x="485" y="1063"/>
      <point x="408" y="987" type="curve" smooth="yes"/>
      <point x="355" y="935"/>
      <point x="278" y="834"/>
      <point x="239" y="668" type="curve"/>
      <point x="311" y="719"/>
      <point x="385" y="745"/>
      <point x="459" y="745" type="curve" smooth="yes"/>
      <point x="552" y="745"/>
      <point x="720" y="668"/>
    </contour>
    <contour>
      <point x="584" y="358" type="curve" smooth="yes"/>
      <point x="584" y="518"/>
      <point x="525" y="680"/>
      <point x="385" y="680" type="curve" smooth="yes"/>
      <point x="325" y="680"/>
      <point x="270" y="642"/>
      <point x="226" y="614" type="curve"/>
      <point x="218" y="546"/>
      <point x="212" y="491"/>
      <point x="212" y="448" type="curve" smooth="yes"/>
      <point x="212" y="306"/>
      <point x="285" y="114"/>
      <point x="414" y="117" type="curve"/>
      <point x="504" y="121"/>
      <point x="584" y="202"/>
    </contour>
  </outline>
</glyph>
<glyph name="seven" format="2">
  <advance width="780"/>
  <unicode hex="0037"/>
  <anchor x="383" y="17" name="L"/>
  <anchor x="383" y="1185" name="U"/>
  <outline>
    <contour>
      <point x="365" y="70" type="line"/>
      <point x="281" y="70" type="line"/>
      <point x="590" y="1000" type="line"/>
      <point x="306" y="1000" type="line" smooth="yes"/>
      <point x="139" y="1000"/>
      <point x="110" y="929"/>
      <point x="80" y="875" type="curve"/>
      <point x="57" y="882" type="line"/>
      <point x="158" y="1125" type="line"/>
      <point x="708" y="1125" type="line"/>
      <point x="708" y="1098" type="line"/>
    </contour>
  </outline>
</glyph>
<glyph name="eight" format="2">
  <advance width="780"/>
  <unicode hex="0038"/>
  <anchor x="392" y="17" name="L"/>
  <anchor x="392" y="1185" name="U"/>
  <outline>
    <contour>
      <point x="690" y="337" type="curve" smooth="yes"/>
      <point x="690" y="245"/>
      <point x="629" y="75"/>
      <point x="390" y="75" type="curve" smooth="yes"/>
      <point x="196" y="75"/>
      <point x="93" y="211"/>
      <point x="93" y="329" type="curve" smooth="yes"/>
      <point x="93" y="459"/>
      <point x="224" y="559"/>
      <point x="301" y="612" type="curve"/>
      <point x="219" y="681"/>
      <point x="107" y="763"/>
      <point x="107" y="901" type="curve" smooth="yes"/>
      <point x="107" y="1056"/>
      <point x="240" y="1148"/>
      <point x="390" y="1148" type="curve" smooth="yes"/>
      <point x="615" y="1148"/>
      <point x="667" y="984"/>
      <point x="667" y="924" type="curve" smooth="yes"/>
      <point x="667" y="801"/>
      <point x="541" y="721"/>
      <point x="455" y="666" type="curve"/>
      <point x="544" y="598"/>
      <point x="690" y="490"/>
    </contour>
    <contour>
      <point x="558" y="933" type="curve" smooth="yes"/>
      <point x="558" y="1064"/>
      <point x="474" y="1102"/>
      <point x="392" y="1102" type="curve" smooth="yes"/>
      <point x="298" y="1102"/>
      <point x="218" y="1048"/>
      <point x="218" y="953" type="curve" smooth="yes"/>
      <point x="218" y="849"/>
      <point x="291" y="798"/>
      <point x="419" y="694" type="curve"/>
      <point x="497" y="767"/>
      <point x="558" y="814"/>
    </contour>
    <contour>
      <point x="582" y="276" type="curve" smooth="yes"/>
      <point x="582" y="407"/>
      <point x="430" y="507"/>
      <point x="336" y="585" type="curve"/>
      <point x="294" y="549"/>
      <point x="210" y="470"/>
      <point x="210" y="332" type="curve" smooth="yes"/>
      <point x="210" y="194"/>
      <point x="294" y="117"/>
      <point x="400" y="117" type="curve" smooth="yes"/>
      <point x="500" y="117"/>
      <point x="582" y="175"/>
    </contour>
  </outline>
</glyph>
<glyph name="nine" format="2">
  <advance width="780"/>
  <unicode hex="0039"/>
  <anchor x="388" y="17" name="L"/>
  <anchor x="388" y="1185" name="U"/>
  <outline>
    <contour>
      <point x="712" y="722" type="curve" smooth="yes"/>
      <point x="712" y="552"/>
      <point x="654" y="403"/>
      <point x="538" y="275" type="curve"/>
      <point x="498" y="228"/>
      <point x="345" y="70"/>
      <point x="126" y="70" type="curve" smooth="yes"/>
      <point x="83" y="70" type="line"/>
      <point x="83" y="99" type="line"/>
      <point x="136" y="101"/>
      <point x="266" y="116"/>
      <point x="365" y="220" type="curve"/>
      <point x="441" y="303"/>
      <point x="507" y="406"/>
      <point x="541" y="548" type="curve"/>
      <point x="463" y="494"/>
      <point x="392" y="470"/>
      <point x="325" y="470" type="curve" smooth="yes"/>
      <point x="155" y="470"/>
      <point x="63" y="622"/>
      <point x="63" y="777" type="curve" smooth="yes"/>
      <point x="63" y="994"/>
      <point x="215" y="1148"/>
      <point x="384" y="1148" type="curve" smooth="yes"/>
      <point x="594" y="1148"/>
      <point x="712" y="919"/>
    </contour>
    <contour>
      <point x="568" y="760" type="curve" smooth="yes"/>
      <point x="568" y="983"/>
      <point x="457" y="1101"/>
      <point x="366" y="1098" type="curve" smooth="yes"/>
      <point x="275" y="1094"/>
      <point x="198" y="1015"/>
      <point x="198" y="856" type="curve" smooth="yes"/>
      <point x="198" y="668"/>
      <point x="274" y="538"/>
      <point x="387" y="538" type="curve" smooth="yes"/>
      <point x="447" y="538"/>
      <point x="533" y="576"/>
      <point x="554" y="603" type="curve"/>
      <point x="562" y="669"/>
      <point x="568" y="722"/>
    </contour>
  </outline>
</glyph>
<glyph name="colon" format="2">
  <advance width="640"/>
  <unicode hex="003A"/>
  <outline>
    <contour>
      <point x="440" y="646" type="curve" smooth="yes"/>
      <point x="440" y="718"/>
      <point x="390" y="768"/>
      <point x="318" y="768" type="curve" smooth="yes"/>
      <point x="252" y="768"/>
      <point x="200" y="712"/>
      <point x="200" y="646" type="curve" smooth="yes"/>
      <point x="200" y="582"/>
      <point x="254" y="528"/>
      <point x="318" y="528" type="curve" smooth="yes"/>
      <point x="388" y="528"/>
      <point x="440" y="576"/>
    </contour>
    <contour>
      <point x="440" y="188" type="curve" smooth="yes"/>
      <point x="440" y="258"/>
      <point x="390" y="308"/>
      <point x="318" y="308" type="curve" smooth="yes"/>
      <point x="252" y="308"/>
      <point x="200" y="254"/>
      <point x="200" y="188" type="curve" smooth="yes"/>
      <point x="200" y="122"/>
      <point x="254" y="68"/>
      <point x="318" y="68" type="curve" smooth="yes"/>
      <point x="388" y="68"/>
      <point x="440" y="118"/>
    </contour>
  </outline>
</glyph>
<glyph name="semicolon" format="2">
  <advance width="640"/>
  <unicode hex="003B"/>
  <outline>
    <contour>
      <point x="440" y="646" type="curve" smooth="yes"/>
      <point x="440" y="718"/>
      <point x="390" y="768"/>
      <point x="318" y="768" type="curve" smooth="yes"/>
      <point x="252" y="768"/>
      <point x="200" y="712"/>
      <point x="200" y="646" type="curve" smooth="yes"/>
      <point x="200" y="582"/>
      <point x="254" y="528"/>
      <point x="318" y="528" type="curve" smooth="yes"/>
      <point x="388" y="528"/>
      <point x="440" y="576"/>
    </contour>
    <contour>
      <point x="448" y="128" type="curve" smooth="yes"/>
      <point x="448" y="210"/>
      <point x="424" y="306"/>
      <point x="324" y="306" type="curve" smooth="yes"/>
      <point x="256" y="306"/>
      <point x="200" y="262"/>
      <point x="200" y="190" type="curve" smooth="yes"/>
      <point x="200" y="124"/>
      <point x="250" y="72"/>
      <point x="316" y="72" type="curve" smooth="yes"/>
      <point x="336" y="72"/>
      <point x="356" y="72"/>
      <point x="372" y="82" type="curve"/>
      <point x="372" y="-14"/>
      <point x="304" y="-76"/>
      <point x="226" y="-120" type="curve"/>
      <point x="244" y="-156" type="line"/>
      <point x="348" y="-114"/>
      <point x="448" y="12"/>
    </contour>
  </outline>
</glyph>
<glyph name="less" format="2">
  <advance width="1256"/>
  <unicode hex="003C"/>
  <outline>
    <contour>
      <point x="1090" y="138" type="line"/>
      <point x="1090" y="234" type="line"/>
      <point x="424" y="544" type="line"/>
      <point x="1090" y="854" type="line"/>
      <point x="1090" y="950" type="line"/>
      <point x="298" y="586" type="line"/>
      <point x="298" y="502" type="line"/>
    </contour>
  </outline>
</glyph>
<glyph name="equal" format="2">
  <advance width="1184"/>
  <unicode hex="003D"/>
  <outline>
    <contour>
      <point x="984" y="604" type="line"/>
      <point x="984" y="704" type="line"/>
      <point x="200" y="704" type="line"/>
      <point x="200" y="604" type="line"/>
    </contour>
    <contour>
      <point x="984" y="302" type="line"/>
      <point x="984" y="402" type="line"/>
      <point x="200" y="402" type="line"/>
      <point x="200" y="302" type="line"/>
    </contour>
  </outline>
</glyph>
<glyph name="greater" format="2">
  <advance width="1138"/>
  <unicode hex="003E"/>
  <outline>
    <contour>
      <point x="972" y="502" type="line"/>
      <point x="972" y="586" type="line"/>
      <point x="180" y="950" type="line"/>
      <point x="180" y="854" type="line"/>
      <point x="846" y="544" type="line"/>
      <point x="180" y="234" type="line"/>
      <point x="180" y="138" type="line"/>
    </contour>
  </outline>
</glyph>
<glyph name="question" format="2">
  <advance width="900"/>
  <unicode hex="003F"/>
  <outline>
    <contour>
      <point x="802" y="794" type="curve" smooth="yes"/>
      <point x="802" y="914"/>
      <point x="704" y="1010"/>
      <point x="584" y="1010" type="curve" smooth="yes"/>
      <point x="480" y="1010"/>
      <point x="320" y="866"/>
      <point x="320" y="760" type="curve" smooth="yes"/>
      <point x="320" y="702"/>
      <point x="362" y="654"/>
      <point x="422" y="654" type="curve" smooth="yes"/>
      <point x="472" y="654"/>
      <point x="516" y="696"/>
      <point x="516" y="746" type="curve" smooth="yes"/>
      <point x="516" y="788"/>
      <point x="482" y="832"/>
      <point x="440" y="842" type="curve"/>
      <point x="490" y="874" type="line"/>
      <point x="502" y="874" type="line"/>
      <point x="550" y="880"/>
      <point x="648" y="820"/>
      <point x="648" y="764" type="curve" smooth="yes"/>
      <point x="648" y="568"/>
      <point x="448" y="562"/>
      <point x="448" y="424" type="curve" smooth="yes"/>
      <point x="448" y="348"/>
      <point x="488" y="338"/>
      <point x="546" y="308" type="curve"/>
      <point x="652" y="422" type="line"/>
      <point x="614" y="430"/>
      <point x="576" y="454"/>
      <point x="558" y="490" type="curve"/>
      <point x="604" y="562"/>
      <point x="802" y="542"/>
    </contour>
    <contour>
      <point x="648" y="158" type="curve" smooth="yes"/>
      <point x="648" y="210"/>
      <point x="610" y="248"/>
      <point x="558" y="248" type="curve" smooth="yes"/>
      <point x="508" y="248"/>
      <point x="470" y="208"/>
      <point x="470" y="158" type="curve" smooth="yes"/>
      <point x="470" y="110"/>
      <point x="510" y="70"/>
      <point x="558" y="70" type="curve" smooth="yes"/>
      <point x="610" y="70"/>
      <point x="648" y="106"/>
    </contour>
  </outline>
</glyph>
<glyph name="at" format="2">
  <advance width="1437"/>
  <unicode hex="0040"/>
  <outline>
    <contour>
      <point x="1398" y="223" type="curve"/>
      <point x="1354" y="223" type="line"/>
      <point x="1294" y="87"/>
      <point x="1128" y="-196"/>
      <point x="743" y="-196" type="curve" smooth="yes"/>
      <point x="338" y="-196"/>
      <point x="146" y="104"/>
      <point x="146" y="411" type="curve" smooth="yes"/>
      <point x="146" y="839"/>
      <point x="447" y="1136"/>
      <point x="798" y="1136" type="curve" smooth="yes"/>
      <point x="1069" y="1136"/>
      <point x="1291" y="961"/>
      <point x="1291" y="668" type="curve" smooth="yes"/>
      <point x="1291" y="356"/>
      <point x="1091" y="171"/>
      <point x="970" y="171" type="curve" smooth="yes"/>
      <point x="923" y="171"/>
      <point x="912" y="213"/>
      <point x="912" y="228" type="curve" smooth="yes"/>
      <point x="912" y="275"/>
      <point x="950" y="403"/>
      <point x="984" y="519" type="curve"/>
      <point x="1071" y="824" type="line"/>
      <point x="952" y="805" type="line"/>
      <point x="928" y="722" type="line"/>
      <point x="921" y="757"/>
      <point x="893" y="828"/>
      <point x="796" y="828" type="curve" smooth="yes"/>
      <point x="624" y="828"/>
      <point x="378" y="541"/>
      <point x="378" y="292" type="curve" smooth="yes"/>
      <point x="378" y="183"/>
      <point x="444" y="117"/>
      <point x="514" y="117" type="curve" smooth="yes"/>
      <point x="632" y="117"/>
      <point x="740" y="243"/>
      <point x="814" y="333" type="curve"/>
      <point x="793" y="210"/>
      <point x="786" y="117"/>
      <point x="918" y="117" type="curve" smooth="yes"/>
      <point x="1154" y="117"/>
      <point x="1338" y="354"/>
      <point x="1338" y="654" type="curve" smooth="yes"/>
      <point x="1338" y="995"/>
      <point x="1091" y="1176"/>
      <point x="793" y="1176" type="curve" smooth="yes"/>
      <point x="462" y="1176"/>
      <point x="73" y="922"/>
      <point x="73" y="432" type="curve" smooth="yes"/>
      <point x="73" y="114"/>
      <point x="295" y="-245"/>
      <point x="738" y="-245" type="curve" smooth="yes"/>
      <point x="1159" y="-245"/>
      <point x="1358" y="82"/>
    </contour>
    <contour>
      <point x="858" y="485" type="curve"/>
      <point x="806" y="351"/>
      <point x="686" y="209"/>
      <point x="585" y="209" type="curve" smooth="yes"/>
      <point x="548" y="209"/>
      <point x="498" y="243"/>
      <point x="498" y="317" type="curve" smooth="yes"/>
      <point x="498" y="447"/>
      <point x="655" y="792"/>
      <point x="806" y="792" type="curve" smooth="yes"/>
      <point x="902" y="792"/>
      <point x="935" y="677"/>
    </contour>
  </outline>
</glyph>
<glyph name="A" format="2">
  <advance width="1120"/>
  <unicode hex="0041"/>
  <anchor x="898" y="93" name="H"/>
  <anchor x="559" y="17" name="L"/>
  <anchor x="1025" y="93" name="O"/>
  <anchor x="559" y="1185" name="U"/>
  <outline>
    <contour>
      <point x="702" y="93" type="line"/>
      <point x="702" y="122" type="line"/>
      <point x="845" y="124"/>
      <point x="810" y="208"/>
      <point x="775" y="291" type="curve" smooth="yes"/>
      <point x="714" y="439" type="line"/>
      <point x="314" y="439" type="line"/>
      <point x="244" y="275" type="line"/>
      <point x="205" y="181"/>
      <point x="193" y="134"/>
      <point x="338" y="122" type="curve"/>
      <point x="338" y="93" type="line"/>
      <point x="11" y="93" type="line"/>
      <point x="11" y="122" type="line"/>
      <point x="100" y="128"/>
      <point x="134" y="186"/>
      <point x="183" y="298" type="curve"/>
      <point x="546" y="1149" type="line"/>
      <point x="573" y="1149" type="line"/>
      <point x="931" y="291" type="line"/>
      <point x="992" y="147"/>
      <point x="1022" y="128"/>
      <point x="1108" y="122" type="curve"/>
      <point x="1108" y="93" type="line"/>
    </contour>
    <contour>
      <point x="517" y="913" type="line"/>
      <point x="338" y="495" type="line"/>
      <point x="693" y="495" type="line"/>
    </contour>
  </outline>
</glyph>
<glyph name="B" format="2">
  <advance width="1014"/>
  <unicode hex="0042"/>
  <anchor x="491" y="17" name="L"/>
  <anchor x="491" y="1185" name="U"/>
  <outline>
    <contour>
      <point x="954" y="375" type="curve" smooth="yes"/>
      <point x="954" y="303"/>
      <point x="918" y="221"/>
      <point x="850" y="168" type="curve" smooth="yes"/>
      <point x="785" y="117"/>
      <point x="689" y="93"/>
      <point x="513" y="93" type="curve" smooth="yes"/>
      <point x="27" y="93" type="line"/>
      <point x="27" y="122" type="line"/>
      <point x="65" y="122" type="line" smooth="yes"/>
      <point x="107" y="122"/>
      <point x="139" y="136"/>
      <point x="158" y="163" type="curve"/>
      <point x="167" y="181"/>
      <point x="174" y="218"/>
      <point x="174" y="276" type="curve" smooth="yes"/>
      <point x="174" y="943" type="line" smooth="yes"/>
      <point x="174" y="1007"/>
      <point x="167" y="1047"/>
      <point x="153" y="1065" type="curve"/>
      <point x="132" y="1086"/>
      <point x="105" y="1098"/>
      <point x="65" y="1098" type="curve" smooth="yes"/>
      <point x="27" y="1098" type="line"/>
      <point x="27" y="1125" type="line"/>
      <point x="473" y="1125" type="line" smooth="yes"/>
      <point x="837" y="1125"/>
      <point x="907" y="972"/>
      <point x="907" y="849" type="curve" smooth="yes"/>
      <point x="907" y="749"/>
      <point x="845" y="659"/>
      <point x="720" y="621" type="curve"/>
      <point x="882" y="591"/>
      <point x="954" y="493"/>
    </contour>
    <contour>
      <point x="747" y="856" type="curve" smooth="yes"/>
      <point x="747" y="974"/>
      <point x="654" y="1074"/>
      <point x="459" y="1074" type="curve" smooth="yes"/>
      <point x="407" y="1074"/>
      <point x="361" y="1070"/>
      <point x="321" y="1059" type="curve"/>
      <point x="321" y="661" type="line"/>
      <point x="361" y="652"/>
      <point x="406" y="651"/>
      <point x="466" y="651" type="curve" smooth="yes"/>
      <point x="667" y="651"/>
      <point x="747" y="727"/>
    </contour>
    <contour>
      <point x="779" y="363" type="curve" smooth="yes"/>
      <point x="779" y="500"/>
      <point x="666" y="598"/>
      <point x="457" y="598" type="curve" smooth="yes"/>
      <point x="392" y="598"/>
      <point x="349" y="597"/>
      <point x="321" y="591" type="curve"/>
      <point x="321" y="168" type="line"/>
      <point x="381" y="155"/>
      <point x="438" y="147"/>
      <point x="497" y="147" type="curve" smooth="yes"/>
      <point x="680" y="147"/>
      <point x="779" y="238"/>
    </contour>
  </outline>
</glyph>
<glyph name="C" format="2">
  <advance width="1041"/>
  <unicode hex="0043"/>
  <anchor x="521" y="93" name="H"/>
  <anchor x="563" y="17" name="L"/>
  <anchor x="563" y="1185" name="U"/>
  <outline>
    <contour>
      <point x="985" y="335" type="line"/>
      <point x="884" y="155"/>
      <point x="753" y="69"/>
      <point x="558" y="69" type="curve" smooth="yes"/>
      <point x="242" y="69"/>
      <point x="56" y="312"/>
      <point x="56" y="594" type="curve" smooth="yes"/>
      <point x="56" y="894"/>
      <point x="265" y="1149"/>
      <point x="582" y="1149" type="curve" smooth="yes"/>
      <point x="738" y="1149"/>
      <point x="817" y="1077"/>
      <point x="849" y="1077" type="curve" smooth="yes"/>
      <point x="876" y="1077"/>
      <point x="900" y="1101"/>
      <point x="912" y="1149" type="curve"/>
      <point x="939" y="1149" type="line"/>
      <point x="963" y="798" type="line"/>
      <point x="939" y="798" type="line"/>
      <point x="876" y="1009"/>
      <point x="755" y="1095"/>
      <point x="594" y="1095" type="curve" smooth="yes"/>
      <point x="382" y="1095"/>
      <point x="229" y="936"/>
      <point x="229" y="592" type="curve" smooth="yes"/>
      <point x="229" y="297"/>
      <point x="384" y="136"/>
      <point x="616" y="136" type="curve" smooth="yes"/>
      <point x="752" y="136"/>
      <point x="842" y="179"/>
      <point x="963" y="351" type="curve"/>
    </contour>
  </outline>
</glyph>
<glyph name="D" format="2">
  <advance width="1126"/>
  <unicode hex="0044"/>
  <anchor x="546" y="17" name="L"/>
  <anchor x="546" y="1185" name="U"/>
  <outline>
    <contour>
      <point x="1066" y="615" type="curve" smooth="yes"/>
      <point x="1066" y="325"/>
      <point x="887" y="93"/>
      <point x="489" y="93" type="curve" smooth="yes"/>
      <point x="27" y="93" type="line"/>
      <point x="27" y="122" type="line"/>
      <point x="66" y="122" type="line" smooth="yes"/>
      <point x="110" y="122"/>
      <point x="142" y="135"/>
      <point x="158" y="163" type="curve"/>
      <point x="167" y="181"/>
      <point x="174" y="218"/>
      <point x="174" y="276" type="curve" smooth="yes"/>
      <point x="174" y="943" type="line" smooth="yes"/>
      <point x="174" y="1006"/>
      <point x="167" y="1047"/>
      <point x="154" y="1065" type="curve"/>
      <point x="133" y="1086"/>
      <point x="105" y="1098"/>
      <point x="66" y="1098" type="curve" smooth="yes"/>
      <point x="27" y="1098" type="line"/>
      <point x="27" y="1125" type="line"/>
      <point x="447" y="1125" type="line" smooth="yes"/>
      <point x="676" y="1125"/>
      <point x="809" y="1089"/>
      <point x="907" y="1003" type="curve"/>
      <point x="1002" y="918"/>
      <point x="1066" y="777"/>
    </contour>
    <contour>
      <point x="894" y="607" type="curve" smooth="yes"/>
      <point x="894" y="893"/>
      <point x="720" y="1068"/>
      <point x="477" y="1068" type="curve" smooth="yes"/>
      <point x="431" y="1068"/>
      <point x="381" y="1063"/>
      <point x="321" y="1045" type="curve"/>
      <point x="321" y="168" type="line"/>
      <point x="385" y="155"/>
      <point x="439" y="146"/>
      <point x="482" y="146" type="curve"/>
      <point x="716" y="143"/>
      <point x="894" y="319"/>
    </contour>
  </outline>
</glyph>
<glyph name="E" format="2">
  <advance width="952"/>
  <unicode hex="0045"/>
  <anchor x="475" y="93" name="H"/>
  <anchor x="475" y="17" name="L"/>
  <anchor x="794" y="93" name="O"/>
  <anchor x="475" y="1185" name="U"/>
  <outline>
    <contour>
      <point x="828" y="93" type="line"/>
      <point x="33" y="93" type="line"/>
      <point x="33" y="122" type="line"/>
      <point x="68" y="122" type="line" smooth="yes"/>
      <point x="85" y="122"/>
      <point x="129" y="127"/>
      <point x="150" y="146" type="curve" smooth="yes"/>
      <point x="170" y="164"/>
      <point x="180" y="185"/>
      <point x="180" y="276" type="curve" smooth="yes"/>
      <point x="180" y="946" type="line" smooth="yes"/>
      <point x="180" y="1013"/>
      <point x="173" y="1053"/>
      <point x="161" y="1066" type="curve" smooth="yes"/>
      <point x="142" y="1087"/>
      <point x="112" y="1098"/>
      <point x="68" y="1098" type="curve" smooth="yes"/>
      <point x="33" y="1098" type="line"/>
      <point x="33" y="1125" type="line"/>
      <point x="828" y="1125" type="line"/>
      <point x="840" y="900" type="line"/>
      <point x="810" y="900" type="line"/>
      <point x="788" y="989"/>
      <point x="792" y="1069"/>
      <point x="611" y="1069" type="curve" smooth="yes"/>
      <point x="325" y="1069" type="line"/>
      <point x="325" y="661" type="line"/>
      <point x="552" y="661" type="line" smooth="yes"/>
      <point x="693" y="661"/>
      <point x="701" y="706"/>
      <point x="715" y="810" type="curve"/>
      <point x="744" y="810" type="line"/>
      <point x="744" y="451" type="line"/>
      <point x="715" y="451" type="line"/>
      <point x="701" y="559"/>
      <point x="691" y="604"/>
      <point x="552" y="604" type="curve" smooth="yes"/>
      <point x="325" y="604" type="line"/>
      <point x="325" y="263" type="line"/>
      <point x="325" y="218" type="line" smooth="yes"/>
      <point x="325" y="177"/>
      <point x="341" y="149"/>
      <point x="412" y="149" type="curve" smooth="yes"/>
      <point x="587" y="149" type="line" smooth="yes"/>
      <point x="756" y="149"/>
      <point x="790" y="183"/>
      <point x="887" y="353" type="curve"/>
      <point x="918" y="353" type="line"/>
    </contour>
  </outline>
</glyph>
<glyph name="F" format="2">
  <advance width="867"/>
  <unicode hex="0046"/>
  <anchor x="415" y="17" name="L"/>
  <anchor x="415" y="1185" name="U"/>
  <outline>
    <contour>
      <point x="777" y="900" type="line"/>
      <point x="740" y="1026"/>
      <point x="698" y="1069"/>
      <point x="548" y="1069" type="curve" smooth="yes"/>
      <point x="320" y="1069" type="line"/>
      <point x="320" y="665" type="line"/>
      <point x="507" y="665" type="line" smooth="yes"/>
      <point x="596" y="665"/>
      <point x="628" y="697"/>
      <point x="642" y="804" type="curve"/>
      <point x="670" y="804" type="line"/>
      <point x="670" y="454" type="line"/>
      <point x="642" y="454" type="line"/>
      <point x="642" y="552"/>
      <point x="611" y="600"/>
      <point x="507" y="600" type="curve" smooth="yes"/>
      <point x="320" y="600" type="line"/>
      <point x="320" y="276" type="line" smooth="yes"/>
      <point x="320" y="209"/>
      <point x="321" y="176"/>
      <point x="336" y="161" type="curve"/>
      <point x="357" y="134"/>
      <point x="395" y="122"/>
      <point x="431" y="122" type="curve" smooth="yes"/>
      <point x="468" y="122" type="line"/>
      <point x="468" y="93" type="line"/>
      <point x="26" y="93" type="line"/>
      <point x="26" y="122" type="line"/>
      <point x="63" y="122" type="line" smooth="yes"/>
      <point x="103" y="122"/>
      <point x="134" y="134"/>
      <point x="154" y="159" type="curve" smooth="yes"/>
      <point x="167" y="175"/>
      <point x="173" y="215"/>
      <point x="173" y="276" type="curve" smooth="yes"/>
      <point x="173" y="943" type="line" smooth="yes"/>
      <point x="173" y="1018"/>
      <point x="167" y="1048"/>
      <point x="151" y="1063" type="curve" smooth="yes"/>
      <point x="130" y="1085"/>
      <point x="96" y="1098"/>
      <point x="63" y="1098" type="curve" smooth="yes"/>
      <point x="26" y="1098" type="line"/>
      <point x="26" y="1125" type="line"/>
      <point x="793" y="1125" type="line"/>
      <point x="804" y="900" type="line"/>
    </contour>
  </outline>
</glyph>
<glyph name="G" format="2">
  <advance width="1126"/>
  <unicode hex="0047"/>
  <anchor x="579" y="93" name="H"/>
  <anchor x="578" y="17" name="L"/>
  <anchor x="578" y="1185" name="U"/>
  <outline>
    <contour>
      <point x="1086" y="629" type="line"/>
      <point x="1044" y="629"/>
      <point x="1019" y="615"/>
      <point x="1005" y="588" type="curve"/>
      <point x="993" y="570"/>
      <point x="989" y="532"/>
      <point x="989" y="477" type="curve" smooth="yes"/>
      <point x="989" y="161" type="line"/>
      <point x="874" y="95"/>
      <point x="756" y="69"/>
      <point x="626" y="69" type="curve" smooth="yes"/>
      <point x="267" y="69"/>
      <point x="54" y="299"/>
      <point x="54" y="594" type="curve" smooth="yes"/>
      <point x="54" y="846"/>
      <point x="244" y="1149"/>
      <point x="601" y="1149" type="curve" smooth="yes"/>
      <point x="774" y="1149"/>
      <point x="855" y="1083"/>
      <point x="893" y="1083" type="curve" smooth="yes"/>
      <point x="906" y="1083"/>
      <point x="924" y="1095"/>
      <point x="930" y="1149" type="curve"/>
      <point x="959" y="1149" type="line"/>
      <point x="984" y="824" type="line"/>
      <point x="959" y="824" type="line"/>
      <point x="892" y="1020"/>
      <point x="771" y="1096"/>
      <point x="616" y="1096" type="curve" smooth="yes"/>
      <point x="365" y="1096"/>
      <point x="231" y="893"/>
      <point x="229" y="627" type="curve" smooth="yes"/>
      <point x="226" y="332"/>
      <point x="400" y="122"/>
      <point x="627" y="122" type="curve" smooth="yes"/>
      <point x="700" y="122"/>
      <point x="772" y="137"/>
      <point x="840" y="179" type="curve"/>
      <point x="840" y="477" type="line" smooth="yes"/>
      <point x="840" y="607"/>
      <point x="817" y="625"/>
      <point x="705" y="629" type="curve"/>
      <point x="705" y="655" type="line"/>
      <point x="1103" y="655" type="line"/>
      <point x="1103" y="629" type="line"/>
    </contour>
  </outline>
</glyph>
<glyph name="H" format="2">
  <advance width="1126"/>
  <unicode hex="0048"/>
  <anchor x="647" y="93" name="H"/>
  <anchor x="561" y="17" name="L"/>
  <anchor x="561" y="1185" name="U"/>
  <outline>
    <contour>
      <point x="652" y="93" type="line"/>
      <point x="652" y="122" type="line"/>
      <point x="690" y="122" type="line" smooth="yes"/>
      <point x="732" y="122"/>
      <point x="763" y="134"/>
      <point x="782" y="159" type="curve" smooth="yes"/>
      <point x="793" y="174"/>
      <point x="801" y="212"/>
      <point x="801" y="276" type="curve" smooth="yes"/>
      <point x="801" y="591" type="line"/>
      <point x="320" y="591" type="line"/>
      <point x="320" y="276" type="line" smooth="yes"/>
      <point x="320" y="206"/>
      <point x="325" y="175"/>
      <point x="339" y="158" type="curve" smooth="yes"/>
      <point x="357" y="136"/>
      <point x="396" y="122"/>
      <point x="432" y="122" type="curve" smooth="yes"/>
      <point x="470" y="122" type="line"/>
      <point x="470" y="93" type="line"/>
      <point x="27" y="93" type="line"/>
      <point x="27" y="122" type="line"/>
      <point x="65" y="122" type="line" smooth="yes"/>
      <point x="105" y="122"/>
      <point x="135" y="134"/>
      <point x="156" y="159" type="curve" smooth="yes"/>
      <point x="168" y="175"/>
      <point x="174" y="215"/>
      <point x="174" y="276" type="curve" smooth="yes"/>
      <point x="174" y="943" type="line" smooth="yes"/>
      <point x="174" y="1016"/>
      <point x="169" y="1043"/>
      <point x="153" y="1063" type="curve" smooth="yes"/>
      <point x="139" y="1082"/>
      <point x="94" y="1098"/>
      <point x="65" y="1098" type="curve" smooth="yes"/>
      <point x="27" y="1098" type="line"/>
      <point x="27" y="1125" type="line"/>
      <point x="470" y="1125" type="line"/>
      <point x="470" y="1098" type="line"/>
      <point x="432" y="1098" type="line" smooth="yes"/>
      <point x="398" y="1098"/>
      <point x="365" y="1089"/>
      <point x="343" y="1065" type="curve" smooth="yes"/>
      <point x="329" y="1048"/>
      <point x="320" y="1022"/>
      <point x="320" y="943" type="curve" smooth="yes"/>
      <point x="320" y="647" type="line"/>
      <point x="801" y="647" type="line"/>
      <point x="801" y="943" type="line" smooth="yes"/>
      <point x="801" y="1018"/>
      <point x="793" y="1050"/>
      <point x="779" y="1065" type="curve" smooth="yes"/>
      <point x="758" y="1085"/>
      <point x="724" y="1098"/>
      <point x="690" y="1098" type="curve" smooth="yes"/>
      <point x="652" y="1098" type="line"/>
      <point x="652" y="1125" type="line"/>
      <point x="1095" y="1125" type="line"/>
      <point x="1095" y="1098" type="line"/>
      <point x="1058" y="1098" type="line" smooth="yes"/>
      <point x="1027" y="1098"/>
      <point x="990" y="1086"/>
      <point x="969" y="1065" type="curve"/>
      <point x="947" y="1040"/>
      <point x="946" y="1024"/>
      <point x="946" y="943" type="curve" smooth="yes"/>
      <point x="946" y="276" type="line" smooth="yes"/>
      <point x="946" y="209"/>
      <point x="947" y="182"/>
      <point x="964" y="159" type="curve" smooth="yes"/>
      <point x="982" y="133"/>
      <point x="1022" y="122"/>
      <point x="1058" y="122" type="curve" smooth="yes"/>
      <point x="1095" y="122" type="line"/>
      <point x="1095" y="93" type="line"/>
    </contour>
  </outline>
</glyph>
<glyph name="I" format="2">
  <advance width="519"/>
  <unicode hex="0049"/>
  <anchor x="260" y="93" name="H"/>
  <anchor x="260" y="17" name="L"/>
  <anchor x="388" y="93" name="O"/>
  <anchor x="260" y="1185" name="U"/>
  <outline>
    <contour>
      <point x="39" y="93" type="line"/>
      <point x="39" y="122" type="line"/>
      <point x="76" y="122" type="line" smooth="yes"/>
      <point x="119" y="122"/>
      <point x="147" y="133"/>
      <point x="167" y="159" type="curve"/>
      <point x="180" y="174"/>
      <point x="186" y="212"/>
      <point x="186" y="276" type="curve" smooth="yes"/>
      <point x="186" y="943" type="line" smooth="yes"/>
      <point x="186" y="1014"/>
      <point x="186" y="1040"/>
      <point x="169" y="1059" type="curve"/>
      <point x="150" y="1083"/>
      <point x="112" y="1098"/>
      <point x="76" y="1098" type="curve" smooth="yes"/>
      <point x="39" y="1098" type="line"/>
      <point x="39" y="1125" type="line"/>
      <point x="481" y="1125" type="line"/>
      <point x="481" y="1098" type="line"/>
      <point x="444" y="1098" type="line" smooth="yes"/>
      <point x="403" y="1098"/>
      <point x="373" y="1085"/>
      <point x="352" y="1060" type="curve"/>
      <point x="341" y="1043"/>
      <point x="333" y="1005"/>
      <point x="333" y="943" type="curve" smooth="yes"/>
      <point x="333" y="276" type="line" smooth="yes"/>
      <point x="333" y="209"/>
      <point x="339" y="176"/>
      <point x="351" y="158" type="curve" smooth="yes"/>
      <point x="361" y="142"/>
      <point x="408" y="122"/>
      <point x="444" y="122" type="curve" smooth="yes"/>
      <point x="481" y="122" type="line"/>
      <point x="481" y="93" type="line"/>
    </contour>
  </outline>
</glyph>
<glyph name="J" format="2">
  <advance width="607"/>
  <unicode hex="004A"/>
  <anchor x="314" y="17" name="L"/>
  <anchor x="377" y="1185" name="U"/>
  <outline>
    <contour>
      <point x="559" y="1098" type="line"/>
      <point x="517" y="1098"/>
      <point x="489" y="1085"/>
      <point x="468" y="1060" type="curve"/>
      <point x="456" y="1043"/>
      <point x="450" y="1003"/>
      <point x="450" y="943" type="curve" smooth="yes"/>
      <point x="450" y="438" type="line" smooth="yes"/>
      <point x="450" y="122"/>
      <point x="281" y="69"/>
      <point x="186" y="69" type="curve" smooth="yes"/>
      <point x="84" y="69"/>
      <point x="33" y="127"/>
      <point x="33" y="186" type="curve" smooth="yes"/>
      <point x="33" y="241"/>
      <point x="70" y="266"/>
      <point x="110" y="266" type="curve" smooth="yes"/>
      <point x="202" y="266"/>
      <point x="186" y="123"/>
      <point x="247" y="123" type="curve" smooth="yes"/>
      <point x="273" y="123"/>
      <point x="304" y="153"/>
      <point x="304" y="239" type="curve" smooth="yes"/>
      <point x="304" y="943" type="line" smooth="yes"/>
      <point x="304" y="1004"/>
      <point x="302" y="1036"/>
      <point x="289" y="1056" type="curve" smooth="yes"/>
      <point x="277" y="1077"/>
      <point x="234" y="1098"/>
      <point x="192" y="1098" type="curve" smooth="yes"/>
      <point x="156" y="1098" type="line"/>
      <point x="156" y="1125" type="line"/>
      <point x="597" y="1125" type="line"/>
      <point x="597" y="1098" type="line"/>
    </contour>
  </outline>
</glyph>
<glyph name="K" format="2">
  <advance width="1126"/>
  <unicode hex="004B"/>
  <anchor x="584" y="93" name="H"/>
  <anchor x="583" y="17" name="L"/>
  <anchor x="583" y="1185" name="U"/>
  <outline>
    <contour>
      <point x="648" y="93" type="line"/>
      <point x="648" y="122" type="line"/>
      <point x="707" y="122"/>
      <point x="729" y="142"/>
      <point x="731" y="169" type="curve"/>
      <point x="735" y="190"/>
      <point x="720" y="210"/>
      <point x="675" y="255" type="curve" smooth="yes"/>
      <point x="365" y="564" type="line"/>
      <point x="320" y="519" type="line"/>
      <point x="320" y="276" type="line" smooth="yes"/>
      <point x="320" y="210"/>
      <point x="322" y="181"/>
      <point x="338" y="159" type="curve" smooth="yes"/>
      <point x="355" y="135"/>
      <point x="393" y="122"/>
      <point x="431" y="122" type="curve" smooth="yes"/>
      <point x="466" y="122" type="line"/>
      <point x="466" y="93" type="line"/>
      <point x="27" y="93" type="line"/>
      <point x="27" y="122" type="line"/>
      <point x="63" y="122" type="line" smooth="yes"/>
      <point x="105" y="122"/>
      <point x="135" y="134"/>
      <point x="156" y="159" type="curve"/>
      <point x="167" y="174"/>
      <point x="173" y="213"/>
      <point x="173" y="276" type="curve" smooth="yes"/>
      <point x="173" y="943" type="line" smooth="yes"/>
      <point x="173" y="1013"/>
      <point x="166" y="1049"/>
      <point x="153" y="1065" type="curve" smooth="yes"/>
      <point x="141" y="1079"/>
      <point x="97" y="1098"/>
      <point x="63" y="1098" type="curve" smooth="yes"/>
      <point x="27" y="1098" type="line"/>
      <point x="27" y="1125" type="line"/>
      <point x="466" y="1125" type="line"/>
      <point x="466" y="1098" type="line"/>
      <point x="431" y="1098" type="line" smooth="yes"/>
      <point x="400" y="1098"/>
      <point x="366" y="1089"/>
      <point x="345" y="1068" type="curve" smooth="yes"/>
      <point x="329" y="1052"/>
      <point x="320" y="1031"/>
      <point x="320" y="943" type="curve" smooth="yes"/>
      <point x="320" y="620" type="line"/>
      <point x="331" y="629"/>
      <point x="364" y="660"/>
      <point x="425" y="715" type="curve"/>
      <point x="576" y="856"/>
      <point x="666" y="954"/>
      <point x="697" y="1000" type="curve" smooth="yes"/>
      <point x="710" y="1019"/>
      <point x="717" y="1037"/>
      <point x="717" y="1055" type="curve" smooth="yes"/>
      <point x="717" y="1075"/>
      <point x="699" y="1098"/>
      <point x="648" y="1098" type="curve" smooth="yes"/>
      <point x="624" y="1098" type="line"/>
      <point x="624" y="1125" type="line"/>
      <point x="1005" y="1125" type="line"/>
      <point x="1005" y="1098" type="line"/>
      <point x="962" y="1098"/>
      <point x="931" y="1091"/>
      <point x="876" y="1056" type="curve" smooth="yes"/>
      <point x="808" y="1014"/>
      <point x="820" y="1020"/>
      <point x="624" y="824" type="curve" smooth="yes"/>
      <point x="466" y="666" type="line"/>
      <point x="847" y="286" type="line" smooth="yes"/>
      <point x="909" y="224"/>
      <point x="963" y="181"/>
      <point x="1008" y="159" type="curve"/>
      <point x="1052" y="136"/>
      <point x="1094" y="126"/>
      <point x="1139" y="122" type="curve"/>
      <point x="1139" y="93" type="line"/>
    </contour>
  </outline>
</glyph>
<glyph name="L" format="2">
  <advance width="952"/>
  <unicode hex="004C"/>
  <anchor x="475" y="93" name="H"/>
  <anchor x="475" y="17" name="L"/>
  <anchor x="572" y="778" name="R"/>
  <anchor x="475" y="1185" name="U"/>
  <outline>
    <contour>
      <point x="831" y="93" type="line"/>
      <point x="29" y="93" type="line"/>
      <point x="29" y="122" type="line"/>
      <point x="119" y="122"/>
      <point x="180" y="133"/>
      <point x="180" y="251" type="curve" smooth="yes"/>
      <point x="180" y="967" type="line" smooth="yes"/>
      <point x="180" y="1085"/>
      <point x="119" y="1096"/>
      <point x="29" y="1096" type="curve"/>
      <point x="29" y="1125" type="line"/>
      <point x="477" y="1125" type="line"/>
      <point x="477" y="1096" type="line"/>
      <point x="387" y="1096"/>
      <point x="325" y="1085"/>
      <point x="325" y="967" type="curve" smooth="yes"/>
      <point x="325" y="288" type="line" smooth="yes"/>
      <point x="325" y="171"/>
      <point x="365" y="159"/>
      <point x="455" y="159" type="curve" smooth="yes"/>
      <point x="559" y="159" type="line" smooth="yes"/>
      <point x="684" y="159"/>
      <point x="736" y="165"/>
      <point x="779" y="204" type="curve"/>
      <point x="830" y="248"/>
      <point x="855" y="286"/>
      <point x="894" y="378" type="curve"/>
      <point x="921" y="374" type="line"/>
    </contour>
  </outline>
</glyph>
<glyph name="M" format="2">
  <advance width="1387"/>
  <unicode hex="004D"/>
  <anchor x="690" y="17" name="L"/>
  <anchor x="690" y="1185" name="U"/>
  <outline>
    <contour>
      <point x="915" y="93" type="line"/>
      <point x="915" y="122" type="line"/>
      <point x="950" y="122" type="line" smooth="yes"/>
      <point x="998" y="122"/>
      <point x="1026" y="133"/>
      <point x="1045" y="161" type="curve" smooth="yes"/>
      <point x="1056" y="177"/>
      <point x="1062" y="215"/>
      <point x="1062" y="273" type="curve" smooth="yes"/>
      <point x="1062" y="961" type="line"/>
      <point x="663" y="93" type="line"/>
      <point x="637" y="93" type="line"/>
      <point x="239" y="961" type="line"/>
      <point x="239" y="273" type="line" smooth="yes"/>
      <point x="239" y="209"/>
      <point x="247" y="168"/>
      <point x="261" y="153" type="curve"/>
      <point x="277" y="133"/>
      <point x="307" y="122"/>
      <point x="349" y="122" type="curve" smooth="yes"/>
      <point x="385" y="122" type="line"/>
      <point x="385" y="93" type="line"/>
      <point x="27" y="93" type="line"/>
      <point x="27" y="122" type="line"/>
      <point x="63" y="122" type="line" smooth="yes"/>
      <point x="107" y="122"/>
      <point x="135" y="133"/>
      <point x="156" y="161" type="curve"/>
      <point x="165" y="177"/>
      <point x="170" y="212"/>
      <point x="170" y="273" type="curve" smooth="yes"/>
      <point x="170" y="946" type="line" smooth="yes"/>
      <point x="170" y="1011"/>
      <point x="165" y="1049"/>
      <point x="138" y="1069" type="curve"/>
      <point x="116" y="1087"/>
      <point x="88" y="1098"/>
      <point x="27" y="1098" type="curve"/>
      <point x="27" y="1125" type="line"/>
      <point x="318" y="1125" type="line"/>
      <point x="693" y="317" type="line"/>
      <point x="1062" y="1125" type="line"/>
      <point x="1354" y="1125" type="line"/>
      <point x="1354" y="1098" type="line"/>
      <point x="1318" y="1098" type="line" smooth="yes"/>
      <point x="1275" y="1098"/>
      <point x="1243" y="1085"/>
      <point x="1224" y="1059" type="curve"/>
      <point x="1214" y="1040"/>
      <point x="1208" y="1005"/>
      <point x="1208" y="946" type="curve" smooth="yes"/>
      <point x="1208" y="273" type="line" smooth="yes"/>
      <point x="1208" y="209"/>
      <point x="1215" y="169"/>
      <point x="1230" y="153" type="curve" smooth="yes"/>
      <point x="1247" y="133"/>
      <point x="1277" y="122"/>
      <point x="1318" y="122" type="curve" smooth="yes"/>
      <point x="1354" y="122" type="line"/>
      <point x="1354" y="93" type="line"/>
    </contour>
  </outline>
</glyph>
<glyph name="N" format="2">
  <advance width="1126"/>
  <unicode hex="004E"/>
  <anchor x="556" y="93" name="H"/>
  <anchor x="556" y="17" name="L"/>
  <anchor x="556" y="1185" name="U"/>
  <outline>
    <contour>
      <point x="1068" y="1098" type="line"/>
      <point x="1024" y="1098"/>
      <point x="992" y="1085"/>
      <point x="975" y="1059" type="curve" smooth="yes"/>
      <point x="964" y="1041"/>
      <point x="959" y="1004"/>
      <point x="959" y="946" type="curve" smooth="yes"/>
      <point x="959" y="76" type="line"/>
      <point x="931" y="76" type="line"/>
      <point x="249" y="907" type="line"/>
      <point x="249" y="273" type="line" smooth="yes"/>
      <point x="249" y="210"/>
      <point x="256" y="170"/>
      <point x="270" y="153" type="curve"/>
      <point x="289" y="133"/>
      <point x="319" y="122"/>
      <point x="361" y="122" type="curve" smooth="yes"/>
      <point x="396" y="122" type="line"/>
      <point x="396" y="93" type="line"/>
      <point x="36" y="93" type="line"/>
      <point x="36" y="122" type="line"/>
      <point x="72" y="122" type="line" smooth="yes"/>
      <point x="117" y="122"/>
      <point x="148" y="133"/>
      <point x="165" y="161" type="curve"/>
      <point x="177" y="177"/>
      <point x="183" y="212"/>
      <point x="183" y="273" type="curve" smooth="yes"/>
      <point x="183" y="990" type="line"/>
      <point x="163" y="1012"/>
      <point x="131" y="1098"/>
      <point x="9" y="1098" type="curve"/>
      <point x="9" y="1125" type="line"/>
      <point x="261" y="1125" type="line"/>
      <point x="891" y="351" type="line"/>
      <point x="891" y="946" type="line" smooth="yes"/>
      <point x="891" y="1012"/>
      <point x="884" y="1051"/>
      <point x="870" y="1065" type="curve"/>
      <point x="851" y="1087"/>
      <point x="821" y="1098"/>
      <point x="780" y="1098" type="curve" smooth="yes"/>
      <point x="746" y="1098" type="line"/>
      <point x="746" y="1125" type="line"/>
      <point x="1103" y="1125" type="line"/>
      <point x="1103" y="1098" type="line"/>
    </contour>
  </outline>
</glyph>
<glyph name="O" format="2">
  <advance width="1126"/>
  <unicode hex="004F"/>
  <anchor x="559" y="93" name="H"/>
  <anchor x="559" y="17" name="L"/>
  <anchor x="753" y="93" name="O"/>
  <anchor x="1126" y="778" name="R"/>
  <anchor x="559" y="1185" name="U"/>
  <outline>
    <contour>
      <point x="1065" y="615" type="curve" smooth="yes"/>
      <point x="1065" y="303"/>
      <point x="846" y="69"/>
      <point x="558" y="69" type="curve" smooth="yes"/>
      <point x="278" y="69"/>
      <point x="54" y="287"/>
      <point x="54" y="612" type="curve" smooth="yes"/>
      <point x="54" y="921"/>
      <point x="278" y="1149"/>
      <point x="572" y="1149" type="curve" smooth="yes"/>
      <point x="842" y="1149"/>
      <point x="1065" y="923"/>
    </contour>
    <contour>
      <point x="893" y="595" type="curve" smooth="yes"/>
      <point x="895" y="910"/>
      <point x="783" y="1093"/>
      <point x="555" y="1095" type="curve"/>
      <point x="348" y="1095"/>
      <point x="229" y="913"/>
      <point x="229" y="617" type="curve" smooth="yes"/>
      <point x="229" y="324"/>
      <point x="343" y="125"/>
      <point x="556" y="123" type="curve"/>
      <point x="754" y="123"/>
      <point x="890" y="270"/>
    </contour>
  </outline>
</glyph>
<glyph name="P" format="2">
  <advance width="867"/>
  <unicode hex="0050"/>
  <anchor x="420" y="17" name="L"/>
  <anchor x="420" y="1185" name="U"/>
  <outline>
    <contour>
      <point x="813" y="840" type="curve" smooth="yes"/>
      <point x="813" y="683"/>
      <point x="723" y="553"/>
      <point x="451" y="555" type="curve"/>
      <point x="425" y="555" type="line" smooth="yes"/>
      <point x="401" y="555"/>
      <point x="379" y="556"/>
      <point x="320" y="563" type="curve"/>
      <point x="320" y="276" type="line" smooth="yes"/>
      <point x="320" y="212"/>
      <point x="324" y="171"/>
      <point x="342" y="156" type="curve"/>
      <point x="361" y="133"/>
      <point x="390" y="122"/>
      <point x="429" y="122" type="curve" smooth="yes"/>
      <point x="468" y="122" type="line"/>
      <point x="468" y="93" type="line"/>
      <point x="27" y="93" type="line"/>
      <point x="27" y="122" type="line"/>
      <point x="65" y="122" type="line" smooth="yes"/>
      <point x="107" y="122"/>
      <point x="139" y="135"/>
      <point x="158" y="163" type="curve"/>
      <point x="166" y="179"/>
      <point x="173" y="216"/>
      <point x="173" y="276" type="curve" smooth="yes"/>
      <point x="173" y="943" type="line" smooth="yes"/>
      <point x="173" y="1006"/>
      <point x="166" y="1047"/>
      <point x="153" y="1065" type="curve"/>
      <point x="132" y="1086"/>
      <point x="105" y="1098"/>
      <point x="65" y="1098" type="curve" smooth="yes"/>
      <point x="27" y="1098" type="line"/>
      <point x="27" y="1125" type="line"/>
      <point x="403" y="1125" type="line" smooth="yes"/>
      <point x="508" y="1125"/>
      <point x="622" y="1115"/>
      <point x="694" y="1060" type="curve"/>
      <point x="761" y="1012"/>
      <point x="813" y="947"/>
    </contour>
    <contour>
      <point x="638" y="824" type="curve"/>
      <point x="641" y="951"/>
      <point x="565" y="1065"/>
      <point x="419" y="1065" type="curve" smooth="yes"/>
      <point x="395" y="1065"/>
      <point x="361" y="1059"/>
      <point x="320" y="1050" type="curve"/>
      <point x="320" y="614" type="line"/>
      <point x="372" y="605"/>
      <point x="414" y="604"/>
      <point x="444" y="604" type="curve" smooth="yes"/>
      <point x="550" y="604"/>
      <point x="636" y="691"/>
    </contour>
  </outline>
</glyph>
<glyph name="Q" format="2">
  <advance width="1126"/>
  <unicode hex="0051"/>
  <anchor x="560" y="-112" name="L"/>
  <anchor x="560" y="1185" name="U"/>
  <outline>
    <contour>
      <point x="1066" y="609" type="curve" smooth="yes"/>
      <point x="1066" y="356"/>
      <point x="915" y="152"/>
      <point x="687" y="83" type="curve"/>
      <point x="788" y="-93"/>
      <point x="903" y="-176"/>
      <point x="1061" y="-188" type="curve"/>
      <point x="1061" y="-213" type="line"/>
      <point x="815" y="-203"/>
      <point x="557" y="-63"/>
      <point x="425" y="83" type="curve"/>
      <point x="151" y="178"/>
      <point x="54" y="389"/>
      <point x="54" y="610" type="curve" smooth="yes"/>
      <point x="54" y="922"/>
      <point x="279" y="1149"/>
      <point x="568" y="1149" type="curve" smooth="yes"/>
      <point x="843" y="1149"/>
      <point x="1066" y="924"/>
    </contour>
    <contour>
      <point x="893" y="590" type="curve" smooth="yes"/>
      <point x="893" y="897"/>
      <point x="775" y="1092"/>
      <point x="558" y="1092" type="curve" smooth="yes"/>
      <point x="354" y="1092"/>
      <point x="229" y="924"/>
      <point x="229" y="610" type="curve" smooth="yes"/>
      <point x="229" y="321"/>
      <point x="345" y="122"/>
      <point x="558" y="122" type="curve"/>
      <point x="771" y="120"/>
      <point x="893" y="298"/>
    </contour>
  </outline>
</glyph>
<glyph name="R" format="2">
  <advance width="1041"/>
  <unicode hex="0052"/>
  <anchor x="541" y="93" name="H"/>
  <anchor x="541" y="17" name="L"/>
  <anchor x="465" y="1185" name="U"/>
  <outline>
    <contour>
      <point x="779" y="93" type="line"/>
      <point x="429" y="575" type="line"/>
      <point x="402" y="575"/>
      <point x="382" y="572"/>
      <point x="366" y="572" type="curve" smooth="yes"/>
      <point x="351" y="572"/>
      <point x="337" y="572"/>
      <point x="320" y="575" type="curve"/>
      <point x="320" y="276" type="line" smooth="yes"/>
      <point x="320" y="210"/>
      <point x="327" y="171"/>
      <point x="342" y="156" type="curve"/>
      <point x="361" y="133"/>
      <point x="390" y="122"/>
      <point x="429" y="122" type="curve" smooth="yes"/>
      <point x="470" y="122" type="line"/>
      <point x="470" y="93" type="line"/>
      <point x="27" y="93" type="line"/>
      <point x="27" y="122" type="line"/>
      <point x="66" y="122" type="line" smooth="yes"/>
      <point x="111" y="122"/>
      <point x="142" y="136"/>
      <point x="159" y="163" type="curve" smooth="yes"/>
      <point x="169" y="179"/>
      <point x="174" y="217"/>
      <point x="174" y="276" type="curve" smooth="yes"/>
      <point x="174" y="943" type="line" smooth="yes"/>
      <point x="174" y="1006"/>
      <point x="167" y="1047"/>
      <point x="154" y="1065" type="curve"/>
      <point x="133" y="1086"/>
      <point x="105" y="1098"/>
      <point x="66" y="1098" type="curve" smooth="yes"/>
      <point x="27" y="1098" type="line"/>
      <point x="27" y="1125" type="line"/>
      <point x="402" y="1125" type="line" smooth="yes"/>
      <point x="512" y="1125"/>
      <point x="594" y="1118"/>
      <point x="647" y="1101" type="curve" smooth="yes"/>
      <point x="753" y="1066"/>
      <point x="833" y="980"/>
      <point x="833" y="862" type="curve" smooth="yes"/>
      <point x="833" y="734"/>
      <point x="752" y="634"/>
      <point x="579" y="595" type="curve"/>
      <point x="790" y="298" type="line"/>
      <point x="884" y="168"/>
      <point x="941" y="134"/>
      <point x="1055" y="122" type="curve"/>
      <point x="1055" y="93" type="line"/>
    </contour>
    <contour>
      <point x="661" y="849" type="curve" smooth="yes"/>
      <point x="661" y="978"/>
      <point x="575" y="1066"/>
      <point x="439" y="1068" type="curve"/>
      <point x="412" y="1068"/>
      <point x="372" y="1063"/>
      <point x="320" y="1055" type="curve"/>
      <point x="320" y="624" type="line"/>
      <point x="363" y="624" type="line" smooth="yes"/>
      <point x="565" y="624"/>
      <point x="661" y="719"/>
    </contour>
  </outline>
</glyph>
<glyph name="S" format="2">
  <advance width="867"/>
  <unicode hex="0053"/>
  <anchor x="441" y="93" name="H"/>
  <anchor x="441" y="17" name="L"/>
  <anchor x="441" y="1185" name="U"/>
  <outline>
    <contour>
      <point x="785" y="356" type="curve" smooth="yes"/>
      <point x="785" y="200"/>
      <point x="650" y="69"/>
      <point x="459" y="69" type="curve" smooth="yes"/>
      <point x="318" y="69"/>
      <point x="230" y="128"/>
      <point x="181" y="128" type="curve" smooth="yes"/>
      <point x="157" y="128"/>
      <point x="142" y="114"/>
      <point x="135" y="69" type="curve"/>
      <point x="107" y="69" type="line"/>
      <point x="107" y="423" type="line"/>
      <point x="135" y="423" type="line"/>
      <point x="161" y="210"/>
      <point x="295" y="129"/>
      <point x="442" y="129" type="curve" smooth="yes"/>
      <point x="568" y="129"/>
      <point x="648" y="207"/>
      <point x="648" y="298" type="curve" smooth="yes"/>
      <point x="648" y="399"/>
      <point x="581" y="442"/>
      <point x="400" y="544" type="curve" smooth="yes"/>
      <point x="153" y="683"/>
      <point x="99" y="751"/>
      <point x="99" y="878" type="curve" smooth="yes"/>
      <point x="99" y="1023"/>
      <point x="215" y="1149"/>
      <point x="400" y="1149" type="curve" smooth="yes"/>
      <point x="521" y="1149"/>
      <point x="593" y="1091"/>
      <point x="638" y="1091" type="curve" smooth="yes"/>
      <point x="661" y="1091"/>
      <point x="676" y="1106"/>
      <point x="687" y="1149" type="curve"/>
      <point x="715" y="1149" type="line"/>
      <point x="715" y="792" type="line"/>
      <point x="687" y="792" type="line"/>
      <point x="667" y="986"/>
      <point x="546" y="1089"/>
      <point x="400" y="1089" type="curve" smooth="yes"/>
      <point x="301" y="1089"/>
      <point x="219" y="1015"/>
      <point x="219" y="930" type="curve" smooth="yes"/>
      <point x="219" y="849"/>
      <point x="272" y="801"/>
      <point x="476" y="691" type="curve" smooth="yes"/>
      <point x="574" y="639"/>
      <point x="637" y="598"/>
      <point x="673" y="571" type="curve" smooth="yes"/>
      <point x="743" y="519"/>
      <point x="785" y="442"/>
    </contour>
  </outline>
</glyph>
<glyph name="T" format="2">
  <advance width="949"/>
  <unicode hex="0054"/>
  <anchor x="475" y="93" name="H"/>
  <anchor x="475" y="17" name="L"/>
  <anchor x="475" y="1185" name="U"/>
  <outline>
    <contour>
      <point x="880" y="883" type="line"/>
      <point x="872" y="958"/>
      <point x="856" y="987"/>
      <point x="833" y="1011" type="curve" smooth="yes"/>
      <point x="800" y="1045"/>
      <point x="761" y="1062"/>
      <point x="692" y="1062" type="curve" smooth="yes"/>
      <point x="546" y="1062" type="line"/>
      <point x="546" y="273" type="line" smooth="yes"/>
      <point x="546" y="209"/>
      <point x="554" y="169"/>
      <point x="567" y="153" type="curve" smooth="yes"/>
      <point x="584" y="133"/>
      <point x="614" y="122"/>
      <point x="655" y="122" type="curve" smooth="yes"/>
      <point x="692" y="122" type="line"/>
      <point x="692" y="93" type="line"/>
      <point x="253" y="93" type="line"/>
      <point x="253" y="122" type="line"/>
      <point x="291" y="122" type="line" smooth="yes"/>
      <point x="336" y="122"/>
      <point x="363" y="133"/>
      <point x="384" y="161" type="curve"/>
      <point x="393" y="177"/>
      <point x="400" y="212"/>
      <point x="400" y="273" type="curve" smooth="yes"/>
      <point x="400" y="1062" type="line"/>
      <point x="276" y="1062" type="line" smooth="yes"/>
      <point x="194" y="1062"/>
      <point x="164" y="1055"/>
      <point x="136" y="1029" type="curve"/>
      <point x="99" y="1002"/>
      <point x="78" y="953"/>
      <point x="72" y="883" type="curve"/>
      <point x="37" y="883" type="line"/>
      <point x="49" y="1125" type="line"/>
      <point x="905" y="1125" type="line"/>
      <point x="913" y="883" type="line"/>
    </contour>
  </outline>
</glyph>
<glyph name="U" format="2">
  <advance width="1126"/>
  <unicode hex="0055"/>
  <anchor x="566" y="93" name="H"/>
  <anchor x="566" y="17" name="L"/>
  <anchor x="635" y="93" name="O"/>
  <anchor x="1126" y="778" name="R"/>
  <anchor x="566" y="1185" name="U"/>
  <outline>
    <contour>
      <point x="1071" y="1098" type="line"/>
      <point x="1028" y="1098"/>
      <point x="1001" y="1081"/>
      <point x="978" y="1045" type="curve"/>
      <point x="966" y="1031"/>
      <point x="962" y="996"/>
      <point x="962" y="938" type="curve" smooth="yes"/>
      <point x="962" y="518" type="line" smooth="yes"/>
      <point x="962" y="375"/>
      <point x="944" y="260"/>
      <point x="871" y="183" type="curve" smooth="yes"/>
      <point x="797" y="104"/>
      <point x="715" y="69"/>
      <point x="562" y="69" type="curve" smooth="yes"/>
      <point x="139" y="69"/>
      <point x="158" y="375"/>
      <point x="158" y="538" type="curve" smooth="yes"/>
      <point x="158" y="943" type="line" smooth="yes"/>
      <point x="158" y="1007"/>
      <point x="150" y="1047"/>
      <point x="132" y="1068" type="curve"/>
      <point x="116" y="1089"/>
      <point x="88" y="1098"/>
      <point x="46" y="1098" type="curve" smooth="yes"/>
      <point x="23" y="1098" type="line"/>
      <point x="23" y="1125" type="line"/>
      <point x="439" y="1125" type="line"/>
      <point x="439" y="1098" type="line"/>
      <point x="400" y="1098" type="line" smooth="yes"/>
      <point x="358" y="1098"/>
      <point x="342" y="1085"/>
      <point x="323" y="1057" type="curve"/>
      <point x="312" y="1037"/>
      <point x="304" y="1001"/>
      <point x="304" y="943" type="curve" smooth="yes"/>
      <point x="304" y="493" type="line" smooth="yes"/>
      <point x="304" y="358"/>
      <point x="310" y="133"/>
      <point x="573" y="133" type="curve" smooth="yes"/>
      <point x="696" y="133"/>
      <point x="784" y="192"/>
      <point x="820" y="226" type="curve" smooth="yes"/>
      <point x="886" y="286"/>
      <point x="893" y="416"/>
      <point x="893" y="488" type="curve" smooth="yes"/>
      <point x="893" y="525" type="line"/>
      <point x="893" y="943" type="line" smooth="yes"/>
      <point x="893" y="1007"/>
      <point x="887" y="1047"/>
      <point x="871" y="1065" type="curve" smooth="yes"/>
      <point x="851" y="1087"/>
      <point x="822" y="1098"/>
      <point x="783" y="1098" type="curve" smooth="yes"/>
      <point x="744" y="1098" type="line"/>
      <point x="744" y="1125" type="line"/>
      <point x="1110" y="1125" type="line"/>
      <point x="1110" y="1098" type="line"/>
    </contour>
  </outline>
</glyph>
<glyph name="V" format="2">
  <advance width="1126"/>
  <unicode hex="0056"/>
  <anchor x="560" y="93" name="H"/>
  <anchor x="559" y="17" name="L"/>
  <anchor x="598" y="93" name="O"/>
  <anchor x="559" y="1185" name="U"/>
  <outline>
    <contour>
      <point x="1106" y="1098" type="line"/>
      <point x="1071" y="1092"/>
      <point x="1042" y="1082"/>
      <point x="1024" y="1063" type="curve"/>
      <point x="998" y="1039"/>
      <point x="974" y="1001"/>
      <point x="952" y="949" type="curve"/>
      <point x="593" y="69" type="line"/>
      <point x="564" y="69" type="line"/>
      <point x="179" y="960" type="line"/>
      <point x="142" y="1048"/>
      <point x="129" y="1053"/>
      <point x="111" y="1066" type="curve"/>
      <point x="88" y="1085"/>
      <point x="62" y="1094"/>
      <point x="13" y="1098" type="curve"/>
      <point x="13" y="1125" type="line"/>
      <point x="435" y="1125" type="line"/>
      <point x="435" y="1098" type="line"/>
      <point x="374" y="1092"/>
      <point x="343" y="1082"/>
      <point x="330" y="1060" type="curve"/>
      <point x="312" y="1034"/>
      <point x="321" y="988"/>
      <point x="355" y="909" type="curve" smooth="yes"/>
      <point x="619" y="303" type="line"/>
      <point x="863" y="903" type="line"/>
      <point x="893" y="979"/>
      <point x="907" y="1023"/>
      <point x="891" y="1050" type="curve" smooth="yes"/>
      <point x="882" y="1067"/>
      <point x="863" y="1085"/>
      <point x="789" y="1098" type="curve"/>
      <point x="789" y="1125" type="line"/>
      <point x="1106" y="1125" type="line"/>
    </contour>
  </outline>
</glyph>
<glyph name="W" format="2">
  <advance width="1473"/>
  <unicode hex="0057"/>
  <anchor x="740" y="17" name="L"/>
  <anchor x="740" y="1185" name="U"/>
  <outline>
    <contour>
      <point x="1460" y="1098" type="line"/>
      <point x="1413" y="1098"/>
      <point x="1377" y="1086"/>
      <point x="1347" y="1029" type="curve" smooth="yes"/>
      <point x="1338" y="1012"/>
      <point x="1320" y="970"/>
      <point x="1298" y="903" type="curve"/>
      <point x="1011" y="69" type="line"/>
      <point x="979" y="69" type="line"/>
      <point x="746" y="728" type="line"/>
      <point x="511" y="69" type="line"/>
      <point x="482" y="69" type="line"/>
      <point x="177" y="927" type="line" smooth="yes"/>
      <point x="137" y="1040"/>
      <point x="132" y="1053"/>
      <point x="114" y="1065" type="curve"/>
      <point x="96" y="1088"/>
      <point x="67" y="1098"/>
      <point x="21" y="1098" type="curve"/>
      <point x="21" y="1125" type="line"/>
      <point x="402" y="1125" type="line"/>
      <point x="402" y="1098" type="line"/>
      <point x="384" y="1098" type="line" smooth="yes"/>
      <point x="346" y="1098"/>
      <point x="322" y="1086"/>
      <point x="310" y="1063" type="curve"/>
      <point x="301" y="1043"/>
      <point x="298" y="1027"/>
      <point x="336" y="913" type="curve"/>
      <point x="538" y="333" type="line"/>
      <point x="710" y="826" type="line"/>
      <point x="699" y="864"/>
      <point x="686" y="900"/>
      <point x="673" y="932" type="curve" smooth="yes"/>
      <point x="651" y="989"/>
      <point x="623" y="1050"/>
      <point x="595" y="1072" type="curve"/>
      <point x="575" y="1090"/>
      <point x="555" y="1098"/>
      <point x="511" y="1098" type="curve"/>
      <point x="511" y="1125" type="line"/>
      <point x="913" y="1125" type="line"/>
      <point x="913" y="1098" type="line"/>
      <point x="887" y="1098" type="line" smooth="yes"/>
      <point x="832" y="1098"/>
      <point x="804" y="1075"/>
      <point x="804" y="1031" type="curve" smooth="yes"/>
      <point x="804" y="1003"/>
      <point x="814" y="960"/>
      <point x="837" y="896" type="curve"/>
      <point x="1036" y="333" type="line"/>
      <point x="1233" y="903" type="line"/>
      <point x="1263" y="995"/>
      <point x="1276" y="1037"/>
      <point x="1254" y="1065" type="curve"/>
      <point x="1235" y="1091"/>
      <point x="1200" y="1098"/>
      <point x="1152" y="1098" type="curve"/>
      <point x="1152" y="1125" type="line"/>
      <point x="1460" y="1125" type="line"/>
    </contour>
  </outline>
</glyph>
<glyph name="X" format="2">
  <advance width="1126"/>
  <unicode hex="0058"/>
  <anchor x="558" y="17" name="L"/>
  <anchor x="558" y="1185" name="U"/>
  <outline>
    <contour>
      <point x="664" y="93" type="line"/>
      <point x="664" y="122" type="line"/>
      <point x="716" y="122"/>
      <point x="741" y="129"/>
      <point x="756" y="150" type="curve" smooth="yes"/>
      <point x="778" y="181"/>
      <point x="773" y="195"/>
      <point x="717" y="282" type="curve" smooth="yes"/>
      <point x="543" y="548" type="line"/>
      <point x="325" y="270" type="line"/>
      <point x="285" y="218"/>
      <point x="279" y="206"/>
      <point x="279" y="181" type="curve" smooth="yes"/>
      <point x="279" y="149"/>
      <point x="298" y="124"/>
      <point x="378" y="122" type="curve"/>
      <point x="378" y="93" type="line"/>
      <point x="10" y="93" type="line"/>
      <point x="10" y="122" type="line"/>
      <point x="101" y="124"/>
      <point x="196" y="206"/>
      <point x="265" y="292" type="curve" smooth="yes"/>
      <point x="510" y="601" type="line"/>
      <point x="306" y="900" type="line" smooth="yes"/>
      <point x="200" y="1056"/>
      <point x="135" y="1091"/>
      <point x="33" y="1098" type="curve"/>
      <point x="33" y="1125" type="line"/>
      <point x="510" y="1125" type="line"/>
      <point x="510" y="1098" type="line"/>
      <point x="470" y="1096"/>
      <point x="442" y="1089"/>
      <point x="426" y="1077" type="curve" smooth="yes"/>
      <point x="395" y="1052"/>
      <point x="393" y="1028"/>
      <point x="439" y="957" type="curve"/>
      <point x="598" y="720" type="line"/>
      <point x="782" y="953" type="line" smooth="yes"/>
      <point x="825" y="1008"/>
      <point x="841" y="1041"/>
      <point x="820" y="1068" type="curve"/>
      <point x="806" y="1088"/>
      <point x="791" y="1095"/>
      <point x="717" y="1098" type="curve"/>
      <point x="717" y="1125" type="line"/>
      <point x="1084" y="1125" type="line"/>
      <point x="1084" y="1098" type="line"/>
      <point x="973" y="1091"/>
      <point x="932" y="1040"/>
      <point x="843" y="927" type="curve"/>
      <point x="635" y="666" type="line"/>
      <point x="858" y="335" type="line"/>
      <point x="983" y="151"/>
      <point x="1015" y="128"/>
      <point x="1106" y="122" type="curve"/>
      <point x="1106" y="93" type="line"/>
    </contour>
  </outline>
</glyph>
<glyph name="Y" format="2">
  <advance width="1126"/>
  <unicode hex="0059"/>
  <anchor x="558" y="17" name="L"/>
  <anchor x="558" y="1185" name="U"/>
  <outline>
    <contour>
      <point x="1084" y="1098" type="line"/>
      <point x="1060" y="1098"/>
      <point x="1000" y="1079"/>
      <point x="957" y="1031" type="curve" smooth="yes"/>
      <point x="936" y="1007"/>
      <point x="912" y="972"/>
      <point x="880" y="922" type="curve" smooth="yes"/>
      <point x="630" y="531" type="line"/>
      <point x="630" y="273" type="line" smooth="yes"/>
      <point x="630" y="209"/>
      <point x="638" y="168"/>
      <point x="652" y="153" type="curve"/>
      <point x="670" y="133"/>
      <point x="701" y="122"/>
      <point x="744" y="122" type="curve" smooth="yes"/>
      <point x="777" y="122" type="line"/>
      <point x="777" y="93" type="line"/>
      <point x="339" y="93" type="line"/>
      <point x="339" y="122" type="line"/>
      <point x="375" y="122" type="line" smooth="yes"/>
      <point x="419" y="122"/>
      <point x="447" y="133"/>
      <point x="468" y="161" type="curve"/>
      <point x="477" y="177"/>
      <point x="482" y="212"/>
      <point x="482" y="273" type="curve" smooth="yes"/>
      <point x="482" y="518" type="line"/>
      <point x="201" y="949" type="line"/>
      <point x="167" y="999"/>
      <point x="147" y="1033"/>
      <point x="119" y="1056" type="curve"/>
      <point x="92" y="1075"/>
      <point x="55" y="1098"/>
      <point x="13" y="1098" type="curve"/>
      <point x="13" y="1125" type="line"/>
      <point x="457" y="1125" type="line"/>
      <point x="457" y="1098" type="line"/>
      <point x="434" y="1098" type="line" smooth="yes"/>
      <point x="406" y="1098"/>
      <point x="338" y="1086"/>
      <point x="338" y="1031" type="curve" smooth="yes"/>
      <point x="338" y="1013"/>
      <point x="352" y="980"/>
      <point x="384" y="930" type="curve"/>
      <point x="598" y="598" type="line"/>
      <point x="803" y="916" type="line" smooth="yes"/>
      <point x="848" y="986"/>
      <point x="864" y="1025"/>
      <point x="836" y="1062" type="curve"/>
      <point x="823" y="1082"/>
      <point x="801" y="1098"/>
      <point x="744" y="1098" type="curve"/>
      <point x="744" y="1125" type="line"/>
      <point x="1103" y="1125" type="line"/>
      <point x="1103" y="1098" type="line"/>
    </contour>
  </outline>
</glyph>
<glyph name="Z" format="2">
  <advance width="952"/>
  <unicode hex="005A"/>
  <anchor x="465" y="17" name="L"/>
  <anchor x="465" y="1185" name="U"/>
  <outline>
    <contour>
      <point x="861" y="93" type="line"/>
      <point x="21" y="93" type="line"/>
      <point x="21" y="122" type="line"/>
      <point x="681" y="1065" type="line"/>
      <point x="352" y="1065" type="line" smooth="yes"/>
      <point x="273" y="1065"/>
      <point x="232" y="1054"/>
      <point x="202" y="1028" type="curve"/>
      <point x="176" y="1003"/>
      <point x="158" y="967"/>
      <point x="142" y="867" type="curve"/>
      <point x="113" y="867" type="line"/>
      <point x="133" y="1125" type="line"/>
      <point x="897" y="1125" type="line"/>
      <point x="219" y="156" type="line"/>
      <point x="642" y="156" type="line" smooth="yes"/>
      <point x="707" y="156"/>
      <point x="756" y="168"/>
      <point x="790" y="198" type="curve"/>
      <point x="826" y="226"/>
      <point x="855" y="282"/>
      <point x="885" y="371" type="curve"/>
      <point x="909" y="366" type="line"/>
    </contour>
  </outline>
</glyph>
<glyph name="bracketleft" format="2">
  <advance width="474"/>
  <unicode hex="005B"/>
  <outline>
    <contour>
      <point x="376" y="1296" type="line"/>
      <point x="376" y="1366" type="line"/>
      <point x="130" y="1366" type="line"/>
      <point x="130" y="-80" type="line"/>
      <point x="356" y="-80" type="line"/>
      <point x="356" y="-2" type="line"/>
      <point x="214" y="-2" type="line"/>
      <point x="214" y="1296" type="line"/>
    </contour>
  </outline>
</glyph>
<glyph name="backslash" format="2">
  <advance width="744"/>
  <unicode hex="005C"/>
  <outline>
    <contour>
      <point x="600" y="20" type="line"/>
      <point x="214" y="1168" type="line"/>
      <point x="144" y="1168" type="line"/>
      <point x="534" y="20" type="line"/>
    </contour>
  </outline>
</glyph>
<glyph name="bracketright" format="2">
  <advance width="602"/>
  <unicode hex="005D"/>
  <outline>
    <contour>
      <point x="472" y="-80" type="line"/>
      <point x="472" y="1354" type="line"/>
      <point x="216" y="1354" type="line"/>
      <point x="216" y="1284" type="line"/>
      <point x="382" y="1284" type="line"/>
      <point x="382" y="-2" type="line"/>
      <point x="240" y="-2" type="line"/>
      <point x="240" y="-80" type="line"/>
    </contour>
  </outline>
</glyph>
<glyph name="asciicircum" format="2">
  <advance width="489"/>
  <unicode hex="005E"/>
  <anchor x="244" y="1139" name="U"/>
  <outline>
    <contour>
      <point x="435" y="886" type="line"/>
      <point x="244" y="1049" type="line"/>
      <point x="54" y="886" type="line"/>
      <point x="0" y="886" type="line"/>
      <point x="196" y="1148" type="line"/>
      <point x="294" y="1148" type="line"/>
      <point x="489" y="886" type="line"/>
    </contour>
  </outline>
</glyph>
<glyph name="underscore" format="2">
  <advance width="902"/>
  <unicode hex="005F"/>
  <outline>
    <contour>
      <point x="902" y="-140" type="line"/>
      <point x="902" y="-84" type="line"/>
      <point x="-2" y="-84" type="line"/>
      <point x="-2" y="-140" type="line"/>
    </contour>
  </outline>
</glyph>
<glyph name="grave" format="2">
  <advance width="534"/>
  <unicode hex="0060"/>
  <anchor x="177" y="1139" name="U"/>
  <outline>
    <contour>
      <point x="355" y="886" type="line"/>
      <point x="139" y="1104" type="line" smooth="yes"/>
      <point x="111" y="1133"/>
      <point x="75" y="1155"/>
      <point x="49" y="1155" type="curve" smooth="yes"/>
      <point x="18" y="1155"/>
      <point x="0" y="1133"/>
      <point x="0" y="1096" type="curve" smooth="yes"/>
      <point x="0" y="1069"/>
      <point x="42" y="1045"/>
      <point x="68" y="1029" type="curve" smooth="yes"/>
      <point x="292" y="886" type="line"/>
    </contour>
  </outline>
</glyph>
<glyph name="a" format="2">
  <advance width="693"/>
  <unicode hex="0061"/>
  <anchor x="524" y="93" name="H"/>
  <anchor x="339" y="17" name="L"/>
  <anchor x="622" y="93" name="O"/>
  <anchor x="693" y="778" name="R"/>
  <anchor x="339" y="854" name="U"/>
  <outline>
    <contour>
      <point x="692" y="193" type="line"/>
      <point x="635" y="118"/>
      <point x="579" y="80"/>
      <point x="525" y="80" type="curve" smooth="yes"/>
      <point x="480" y="80"/>
      <point x="444" y="105"/>
      <point x="444" y="193" type="curve"/>
      <point x="321" y="98"/>
      <point x="296" y="80"/>
      <point x="222" y="80" type="curve" smooth="yes"/>
      <point x="123" y="80"/>
      <point x="56" y="150"/>
      <point x="56" y="258" type="curve" smooth="yes"/>
      <point x="56" y="361"/>
      <point x="113" y="442"/>
      <point x="444" y="555" type="curve"/>
      <point x="444" y="584" type="line" smooth="yes"/>
      <point x="444" y="717"/>
      <point x="402" y="765"/>
      <point x="314" y="765" type="curve" smooth="yes"/>
      <point x="250" y="765"/>
      <point x="212" y="728"/>
      <point x="209" y="680" type="curve"/>
      <point x="210" y="634" type="line"/>
      <point x="212" y="591"/>
      <point x="186" y="563"/>
      <point x="147" y="563" type="curve" smooth="yes"/>
      <point x="107" y="563"/>
      <point x="83" y="590"/>
      <point x="83" y="636" type="curve" smooth="yes"/>
      <point x="83" y="745"/>
      <point x="204" y="810"/>
      <point x="338" y="810" type="curve" smooth="yes"/>
      <point x="540" y="810"/>
      <point x="572" y="719"/>
      <point x="572" y="572" type="curve" smooth="yes"/>
      <point x="572" y="335" type="line" smooth="yes"/>
      <point x="572" y="270"/>
      <point x="575" y="228"/>
      <point x="575" y="213" type="curve"/>
      <point x="581" y="186"/>
      <point x="590" y="176"/>
      <point x="609" y="176" type="curve" smooth="yes"/>
      <point x="628" y="176"/>
      <point x="635" y="181"/>
      <point x="692" y="238" type="curve"/>
    </contour>
    <contour>
      <point x="444" y="510" type="line"/>
      <point x="209" y="419"/>
      <point x="185" y="361"/>
      <point x="185" y="294" type="curve" smooth="yes"/>
      <point x="185" y="222"/>
      <point x="232" y="168"/>
      <point x="291" y="166" type="curve"/>
      <point x="330" y="164"/>
      <point x="380" y="191"/>
      <point x="444" y="243" type="curve"/>
    </contour>
  </outline>
</glyph>
<glyph name="b" format="2">
  <advance width="780"/>
  <unicode hex="0062"/>
  <anchor x="411" y="93" name="H"/>
  <anchor x="411" y="17" name="L"/>
  <anchor x="780" y="778" name="R"/>
  <anchor x="411" y="1185" name="U"/>
  <outline>
    <contour>
      <point x="726" y="470" type="curve" smooth="yes"/>
      <point x="726" y="240"/>
      <point x="558" y="70"/>
      <point x="366" y="70" type="curve" smooth="yes"/>
      <point x="286" y="70"/>
      <point x="203" y="99"/>
      <point x="113" y="161" type="curve"/>
      <point x="113" y="882" type="line" smooth="yes"/>
      <point x="113" y="1039"/>
      <point x="107" y="1052"/>
      <point x="88" y="1066" type="curve"/>
      <point x="72" y="1081"/>
      <point x="53" y="1080"/>
      <point x="5" y="1065" type="curve"/>
      <point x="-6" y="1092" type="line"/>
      <point x="205" y="1176" type="line"/>
      <point x="240" y="1176" type="line"/>
      <point x="240" y="670" type="line"/>
      <point x="307" y="763"/>
      <point x="380" y="810"/>
      <point x="459" y="810" type="curve" smooth="yes"/>
      <point x="601" y="810"/>
      <point x="726" y="683"/>
    </contour>
    <contour>
      <point x="594" y="426" type="curve" smooth="yes"/>
      <point x="594" y="601"/>
      <point x="504" y="704"/>
      <point x="398" y="704" type="curve" smooth="yes"/>
      <point x="359" y="704"/>
      <point x="318" y="694"/>
      <point x="240" y="623" type="curve"/>
      <point x="240" y="204" type="line"/>
      <point x="289" y="155"/>
      <point x="346" y="127"/>
      <point x="405" y="127" type="curve" smooth="yes"/>
      <point x="496" y="127"/>
      <point x="594" y="228"/>
    </contour>
  </outline>
</glyph>
<glyph name="c" format="2">
  <advance width="693"/>
  <unicode hex="0063"/>
  <anchor x="346" y="93" name="H"/>
  <anchor x="365" y="17" name="L"/>
  <anchor x="693" y="778" name="R"/>
  <anchor x="365" y="854" name="U"/>
  <outline>
    <contour>
      <point x="640" y="358" type="line"/>
      <point x="613" y="190"/>
      <point x="486" y="70"/>
      <point x="349" y="70" type="curve" smooth="yes"/>
      <point x="185" y="70"/>
      <point x="53" y="216"/>
      <point x="53" y="441" type="curve" smooth="yes"/>
      <point x="53" y="662"/>
      <point x="205" y="810"/>
      <point x="385" y="810" type="curve" smooth="yes"/>
      <point x="454" y="810"/>
      <point x="511" y="792"/>
      <point x="555" y="756" type="curve" smooth="yes"/>
      <point x="598" y="720"/>
      <point x="622" y="683"/>
      <point x="622" y="644" type="curve" smooth="yes"/>
      <point x="622" y="608"/>
      <point x="599" y="579"/>
      <point x="551" y="579" type="curve" smooth="yes"/>
      <point x="521" y="579"/>
      <point x="473" y="585"/>
      <point x="466" y="668" type="curve"/>
      <point x="461" y="723"/>
      <point x="431" y="760"/>
      <point x="361" y="760" type="curve" smooth="yes"/>
      <point x="244" y="760"/>
      <point x="177" y="651"/>
      <point x="177" y="507" type="curve" smooth="yes"/>
      <point x="177" y="342"/>
      <point x="258" y="192"/>
      <point x="403" y="192" type="curve" smooth="yes"/>
      <point x="489" y="192"/>
      <point x="559" y="225"/>
      <point x="619" y="369" type="curve"/>
    </contour>
  </outline>
</glyph>
<glyph name="d" format="2">
  <advance width="780"/>
  <unicode hex="0064"/>
  <anchor x="419" y="93" name="H"/>
  <anchor x="419" y="17" name="L"/>
  <anchor x="739" y="778" name="R"/>
  <anchor x="416" y="1185" name="U"/>
  <outline>
    <contour>
      <point x="575" y="70" type="line"/>
      <point x="541" y="70" type="line"/>
      <point x="541" y="171" type="line"/>
      <point x="479" y="106"/>
      <point x="419" y="70"/>
      <point x="338" y="70" type="curve" smooth="yes"/>
      <point x="183" y="70"/>
      <point x="51" y="216"/>
      <point x="51" y="413" type="curve" smooth="yes"/>
      <point x="51" y="592"/>
      <point x="173" y="811"/>
      <point x="390" y="811" type="curve" smooth="yes"/>
      <point x="451" y="811"/>
      <point x="501" y="793"/>
      <point x="541" y="753" type="curve"/>
      <point x="541" y="882" type="line" smooth="yes"/>
      <point x="541" y="1037"/>
      <point x="536" y="1048"/>
      <point x="517" y="1066" type="curve" smooth="yes"/>
      <point x="500" y="1084"/>
      <point x="476" y="1079"/>
      <point x="435" y="1065" type="curve"/>
      <point x="425" y="1092" type="line"/>
      <point x="634" y="1176" type="line"/>
      <point x="669" y="1176" type="line"/>
      <point x="669" y="369" type="line" smooth="yes"/>
      <point x="669" y="220"/>
      <point x="670" y="197"/>
      <point x="693" y="181" type="curve"/>
      <point x="711" y="166"/>
      <point x="737" y="169"/>
      <point x="777" y="184" type="curve"/>
      <point x="786" y="158" type="line"/>
    </contour>
    <contour>
      <point x="541" y="585" type="line"/>
      <point x="541" y="661"/>
      <point x="481" y="763"/>
      <point x="380" y="765" type="curve"/>
      <point x="278" y="769"/>
      <point x="192" y="653"/>
      <point x="192" y="473" type="curve" smooth="yes"/>
      <point x="192" y="247"/>
      <point x="309" y="158"/>
      <point x="406" y="156" type="curve"/>
      <point x="455" y="156"/>
      <point x="498" y="179"/>
      <point x="541" y="225" type="curve"/>
    </contour>
  </outline>
</glyph>
<glyph name="e" format="2">
  <advance width="693"/>
  <unicode hex="0065"/>
  <anchor x="352" y="93" name="H"/>
  <anchor x="369" y="17" name="L"/>
  <anchor x="503" y="93" name="O"/>
  <anchor x="693" y="778" name="R"/>
  <anchor x="369" y="854" name="U"/>
  <outline>
    <contour>
      <point x="648" y="348" type="line"/>
      <point x="628" y="212"/>
      <point x="521" y="70"/>
      <point x="361" y="70" type="curve" smooth="yes"/>
      <point x="196" y="70"/>
      <point x="57" y="212"/>
      <point x="57" y="434" type="curve" smooth="yes"/>
      <point x="57" y="669"/>
      <point x="192" y="811"/>
      <point x="380" y="811" type="curve" smooth="yes"/>
      <point x="535" y="811"/>
      <point x="648" y="705"/>
      <point x="648" y="528" type="curve"/>
      <point x="165" y="528" type="line"/>
      <point x="165" y="320"/>
      <point x="283" y="199"/>
      <point x="419" y="196" type="curve"/>
      <point x="510" y="194"/>
      <point x="575" y="235"/>
      <point x="624" y="363" type="curve"/>
    </contour>
    <contour>
      <point x="489" y="571" type="line"/>
      <point x="489" y="725"/>
      <point x="388" y="757"/>
      <point x="338" y="757" type="curve" smooth="yes"/>
      <point x="256" y="757"/>
      <point x="177" y="691"/>
      <point x="165" y="571" type="curve"/>
    </contour>
  </outline>
</glyph>
<glyph name="f" format="2">
  <advance width="519"/>
  <unicode hex="0066"/>
  <anchor x="368" y="93" name="H"/>
  <anchor x="257" y="17" name="L"/>
  <anchor x="434" y="1139" name="U"/>
  <outline>
    <contour>
      <point x="678" y="1045" type="curve" smooth="yes"/>
      <point x="678" y="1018"/>
      <point x="651" y="982"/>
      <point x="616" y="982" type="curve"/>
      <point x="538" y="979"/>
      <point x="532" y="1119"/>
      <point x="426" y="1119" type="curve" smooth="yes"/>
      <point x="329" y="1119"/>
      <point x="321" y="1037"/>
      <point x="321" y="840" type="curve" smooth="yes"/>
      <point x="321" y="790" type="line"/>
      <point x="501" y="790" type="line"/>
      <point x="501" y="735" type="line"/>
      <point x="321" y="735" type="line"/>
      <point x="321" y="278" type="line" smooth="yes"/>
      <point x="321" y="213"/>
      <point x="326" y="171"/>
      <point x="343" y="155" type="curve"/>
      <point x="360" y="133"/>
      <point x="385" y="122"/>
      <point x="419" y="122" type="curve" smooth="yes"/>
      <point x="481" y="122" type="line"/>
      <point x="481" y="93" type="line"/>
      <point x="62" y="93" type="line"/>
      <point x="62" y="122" type="line"/>
      <point x="93" y="122" type="line" smooth="yes"/>
      <point x="117" y="122"/>
      <point x="139" y="125"/>
      <point x="162" y="146" type="curve" smooth="yes"/>
      <point x="186" y="168"/>
      <point x="193" y="189"/>
      <point x="193" y="278" type="curve" smooth="yes"/>
      <point x="193" y="735" type="line"/>
      <point x="57" y="735" type="line"/>
      <point x="57" y="790" type="line"/>
      <point x="193" y="790" type="line"/>
      <point x="193" y="837" type="line" smooth="yes"/>
      <point x="193" y="1153"/>
      <point x="438" y="1176"/>
      <point x="486" y="1176" type="curve" smooth="yes"/>
      <point x="575" y="1176"/>
      <point x="678" y="1115"/>
    </contour>
  </outline>
</glyph>
<glyph name="g" format="2">
  <advance width="780"/>
  <unicode hex="0067"/>
  <anchor x="396" y="-236" name="H"/>
  <anchor x="399" y="-287" name="L"/>
  <anchor x="780" y="778" name="R"/>
  <anchor x="388" y="854" name="U"/>
  <outline>
    <contour>
      <point x="751" y="728" type="curve" smooth="yes"/>
      <point x="751" y="723"/>
      <point x="750" y="706"/>
      <point x="744" y="699" type="curve"/>
      <point x="739" y="695"/>
      <point x="730" y="693"/>
      <point x="720" y="693" type="curve"/>
      <point x="715" y="692"/>
      <point x="708" y="692"/>
      <point x="702" y="693" type="curve"/>
      <point x="613" y="693" type="line"/>
      <point x="639" y="657"/>
      <point x="654" y="611"/>
      <point x="654" y="553" type="curve"/>
      <point x="656" y="426"/>
      <point x="553" y="317"/>
      <point x="380" y="317" type="curve" smooth="yes"/>
      <point x="344" y="317"/>
      <point x="309" y="322"/>
      <point x="273" y="333" type="curve"/>
      <point x="232" y="302"/>
      <point x="196" y="249"/>
      <point x="228" y="220" type="curve"/>
      <point x="246" y="202"/>
      <point x="275" y="200"/>
      <point x="499" y="193" type="curve"/>
      <point x="554" y="193"/>
      <point x="743" y="190"/>
      <point x="743" y="28" type="curve" smooth="yes"/>
      <point x="743" y="-112"/>
      <point x="575" y="-245"/>
      <point x="352" y="-245" type="curve" smooth="yes"/>
      <point x="198" y="-245"/>
      <point x="46" y="-170"/>
      <point x="46" y="-99" type="curve" smooth="yes"/>
      <point x="46" y="-58"/>
      <point x="76" y="-10"/>
      <point x="186" y="99" type="curve"/>
      <point x="139" y="129"/>
      <point x="114" y="147"/>
      <point x="114" y="183" type="curve" smooth="yes"/>
      <point x="114" y="219"/>
      <point x="130" y="258"/>
      <point x="236" y="348" type="curve"/>
      <point x="147" y="387"/>
      <point x="103" y="475"/>
      <point x="103" y="559" type="curve" smooth="yes"/>
      <point x="103" y="690"/>
      <point x="207" y="810"/>
      <point x="380" y="810" type="curve" smooth="yes"/>
      <point x="501" y="810"/>
      <point x="538" y="757"/>
      <point x="634" y="757" type="curve" smooth="yes"/>
      <point x="681" y="757"/>
      <point x="702" y="761"/>
      <point x="721" y="761" type="curve" smooth="yes"/>
      <point x="728" y="761"/>
      <point x="734" y="760"/>
      <point x="741" y="759" type="curve" smooth="yes"/>
      <point x="748" y="757"/>
      <point x="751" y="747"/>
    </contour>
    <contour>
      <point x="519" y="534" type="curve" smooth="yes"/>
      <point x="519" y="677"/>
      <point x="462" y="774"/>
      <point x="368" y="774" type="curve" smooth="yes"/>
      <point x="295" y="774"/>
      <point x="236" y="720"/>
      <point x="236" y="592" type="curve" smooth="yes"/>
      <point x="236" y="454"/>
      <point x="291" y="356"/>
      <point x="388" y="356" type="curve" smooth="yes"/>
      <point x="462" y="356"/>
      <point x="519" y="409"/>
    </contour>
    <contour>
      <point x="687" y="0" type="curve" smooth="yes"/>
      <point x="687" y="50"/>
      <point x="652" y="68"/>
      <point x="492" y="76" type="curve"/>
      <point x="377" y="82"/>
      <point x="289" y="84"/>
      <point x="228" y="93" type="curve"/>
      <point x="184" y="42"/>
      <point x="156" y="6"/>
      <point x="156" y="-40" type="curve" smooth="yes"/>
      <point x="156" y="-104"/>
      <point x="263" y="-151"/>
      <point x="419" y="-151" type="curve" smooth="yes"/>
      <point x="601" y="-151"/>
      <point x="687" y="-73"/>
    </contour>
  </outline>
</glyph>
<glyph name="h" format="2">
  <advance width="780"/>
  <unicode hex="0068"/>
  <anchor x="487" y="93" name="H"/>
  <anchor x="390" y="17" name="L"/>
  <anchor x="390" y="1185" name="U"/>
  <outline>
    <contour>
      <point x="428" y="93" type="line"/>
      <point x="428" y="122" type="line"/>
      <point x="516" y="122"/>
      <point x="540" y="142"/>
      <point x="540" y="236" type="curve" smooth="yes"/>
      <point x="540" y="496" type="line" smooth="yes"/>
      <point x="540" y="587"/>
      <point x="549" y="719"/>
      <point x="428" y="719" type="curve" smooth="yes"/>
      <point x="381" y="719"/>
      <point x="330" y="706"/>
      <point x="255" y="618" type="curve"/>
      <point x="255" y="236" type="line" smooth="yes"/>
      <point x="255" y="142"/>
      <point x="266" y="122"/>
      <point x="366" y="122" type="curve"/>
      <point x="366" y="93" type="line"/>
      <point x="21" y="93" type="line"/>
      <point x="21" y="122" type="line"/>
      <point x="113" y="122"/>
      <point x="127" y="152"/>
      <point x="127" y="236" type="curve" smooth="yes"/>
      <point x="127" y="972" type="line" smooth="yes"/>
      <point x="127" y="1045"/>
      <point x="118" y="1077"/>
      <point x="76" y="1077" type="curve" smooth="yes"/>
      <point x="63" y="1077"/>
      <point x="43" y="1074"/>
      <point x="21" y="1065" type="curve"/>
      <point x="9" y="1092" type="line"/>
      <point x="219" y="1176" type="line"/>
      <point x="255" y="1176" type="line"/>
      <point x="255" y="666" type="line"/>
      <point x="336" y="788"/>
      <point x="413" y="810"/>
      <point x="486" y="810" type="curve" smooth="yes"/>
      <point x="663" y="810"/>
      <point x="667" y="633"/>
      <point x="667" y="496" type="curve" smooth="yes"/>
      <point x="667" y="236" type="line" smooth="yes"/>
      <point x="667" y="147"/>
      <point x="680" y="122"/>
      <point x="772" y="122" type="curve"/>
      <point x="772" y="93" type="line"/>
    </contour>
  </outline>
</glyph>
<glyph name="i" format="2">
  <advance width="434"/>
  <unicode hex="0069"/>
  <anchor x="224" y="93" name="H"/>
  <anchor x="228" y="17" name="L"/>
  <anchor x="338" y="93" name="O"/>
  <anchor x="434" y="778" name="R"/>
  <anchor x="224" y="854" name="U"/>
  <outline>
    <contour>
      <point x="306" y="1028" type="curve" smooth="yes"/>
      <point x="306" y="984"/>
      <point x="274" y="949"/>
      <point x="229" y="949" type="curve" smooth="yes"/>
      <point x="184" y="949"/>
      <point x="151" y="982"/>
      <point x="151" y="1028" type="curve" smooth="yes"/>
      <point x="151" y="1072"/>
      <point x="186" y="1104"/>
      <point x="229" y="1104" type="curve" smooth="yes"/>
      <point x="272" y="1104"/>
      <point x="306" y="1069"/>
    </contour>
    <contour>
      <point x="59" y="93" type="line"/>
      <point x="59" y="122" type="line"/>
      <point x="147" y="122"/>
      <point x="165" y="142"/>
      <point x="165" y="236" type="curve" smooth="yes"/>
      <point x="165" y="609" type="line" smooth="yes"/>
      <point x="165" y="676"/>
      <point x="153" y="711"/>
      <point x="113" y="711" type="curve" smooth="yes"/>
      <point x="98" y="711"/>
      <point x="82" y="707"/>
      <point x="59" y="699" type="curve"/>
      <point x="49" y="726" type="line"/>
      <point x="260" y="810" type="line"/>
      <point x="292" y="810" type="line"/>
      <point x="292" y="236" type="line" smooth="yes"/>
      <point x="292" y="142"/>
      <point x="312" y="122"/>
      <point x="400" y="122" type="curve"/>
      <point x="400" y="93" type="line"/>
    </contour>
  </outline>
</glyph>
<glyph name="j" format="2">
  <advance width="434"/>
  <unicode hex="006A"/>
  <anchor x="92" y="-287" name="L"/>
  <anchor x="228" y="854" name="U"/>
  <outline>
    <contour>
      <point x="304" y="1028" type="curve" smooth="yes"/>
      <point x="304" y="986"/>
      <point x="272" y="949"/>
      <point x="226" y="949" type="curve" smooth="yes"/>
      <point x="181" y="949"/>
      <point x="148" y="982"/>
      <point x="148" y="1028" type="curve" smooth="yes"/>
      <point x="148" y="1070"/>
      <point x="186" y="1105"/>
      <point x="226" y="1105" type="curve" smooth="yes"/>
      <point x="265" y="1105"/>
      <point x="304" y="1070"/>
    </contour>
    <contour>
      <point x="292" y="107" type="line"/>
      <point x="292" y="-133"/>
      <point x="176" y="-245"/>
      <point x="17" y="-245" type="curve" smooth="yes"/>
      <point x="-81" y="-245"/>
      <point x="-118" y="-199"/>
      <point x="-120" y="-168" type="curve"/>
      <point x="-120" y="-131"/>
      <point x="-91" y="-102"/>
      <point x="-57" y="-102" type="curve" smooth="yes"/>
      <point x="-21" y="-102"/>
      <point x="0" y="-117"/>
      <point x="33" y="-151" type="curve"/>
      <point x="56" y="-173"/>
      <point x="77" y="-183"/>
      <point x="94" y="-183" type="curve" smooth="yes"/>
      <point x="167" y="-183"/>
      <point x="165" y="-73"/>
      <point x="165" y="21" type="curve" smooth="yes"/>
      <point x="165" y="518" type="line" smooth="yes"/>
      <point x="165" y="649"/>
      <point x="159" y="688"/>
      <point x="143" y="700" type="curve" smooth="yes"/>
      <point x="123" y="715"/>
      <point x="100" y="714"/>
      <point x="57" y="699" type="curve"/>
      <point x="49" y="726" type="line"/>
      <point x="260" y="810" type="line"/>
      <point x="292" y="810" type="line"/>
    </contour>
  </outline>
</glyph>
<glyph name="k" format="2">
  <advance width="780"/>
  <unicode hex="006B"/>
  <anchor x="597" y="93" name="H"/>
  <anchor x="400" y="17" name="L"/>
  <anchor x="780" y="778" name="R"/>
  <anchor x="400" y="1185" name="U"/>
  <outline>
    <contour>
      <point x="450" y="93" type="line"/>
      <point x="450" y="122" type="line"/>
      <point x="479" y="122"/>
      <point x="492" y="125"/>
      <point x="497" y="139" type="curve" smooth="yes"/>
      <point x="498" y="143"/>
      <point x="499" y="148"/>
      <point x="499" y="152" type="curve" smooth="yes"/>
      <point x="499" y="165"/>
      <point x="492" y="180"/>
      <point x="470" y="209" type="curve"/>
      <point x="256" y="478" type="line"/>
      <point x="256" y="251" type="line" smooth="yes"/>
      <point x="256" y="185"/>
      <point x="260" y="163"/>
      <point x="273" y="147" type="curve" smooth="yes"/>
      <point x="292" y="126"/>
      <point x="302" y="122"/>
      <point x="368" y="122" type="curve"/>
      <point x="368" y="93" type="line"/>
      <point x="10" y="93" type="line"/>
      <point x="10" y="122" type="line"/>
      <point x="59" y="122"/>
      <point x="89" y="126"/>
      <point x="107" y="144" type="curve" smooth="yes"/>
      <point x="121" y="159"/>
      <point x="126" y="190"/>
      <point x="126" y="246" type="curve" smooth="yes"/>
      <point x="126" y="881" type="line" smooth="yes"/>
      <point x="126" y="1040"/>
      <point x="123" y="1052"/>
      <point x="105" y="1066" type="curve" smooth="yes"/>
      <point x="93" y="1076"/>
      <point x="75" y="1085"/>
      <point x="26" y="1065" type="curve"/>
      <point x="10" y="1092" type="line"/>
      <point x="221" y="1176" type="line"/>
      <point x="256" y="1176" type="line"/>
      <point x="256" y="495" type="line"/>
      <point x="432" y="644" type="line" smooth="yes"/>
      <point x="498" y="700"/>
      <point x="504" y="712"/>
      <point x="504" y="727" type="curve" smooth="yes"/>
      <point x="504" y="748"/>
      <point x="489" y="763"/>
      <point x="450" y="766" type="curve"/>
      <point x="450" y="790" type="line"/>
      <point x="753" y="790" type="line"/>
      <point x="753" y="766" type="line"/>
      <point x="711" y="765"/>
      <point x="677" y="758"/>
      <point x="650" y="747" type="curve" smooth="yes"/>
      <point x="622" y="735"/>
      <point x="594" y="715"/>
      <point x="558" y="684" type="curve" smooth="yes"/>
      <point x="375" y="521" type="line"/>
      <point x="558" y="292" type="line" smooth="yes"/>
      <point x="677" y="143"/>
      <point x="673" y="157"/>
      <point x="723" y="127" type="curve"/>
      <point x="733" y="122"/>
      <point x="756" y="122"/>
      <point x="789" y="122" type="curve"/>
      <point x="789" y="93" type="line"/>
    </contour>
  </outline>
</glyph>
<glyph name="l" format="2">
  <advance width="434"/>
  <unicode hex="006C"/>
  <anchor x="223" y="93" name="H"/>
  <anchor x="222" y="17" name="L"/>
  <anchor x="358" y="778" name="R"/>
  <anchor x="222" y="1215" name="U"/>
  <outline>
    <contour>
      <point x="59" y="93" type="line"/>
      <point x="59" y="122" type="line"/>
      <point x="105" y="122"/>
      <point x="123" y="124"/>
      <point x="139" y="146" type="curve" smooth="yes"/>
      <point x="151" y="161"/>
      <point x="161" y="186"/>
      <point x="161" y="251" type="curve" smooth="yes"/>
      <point x="161" y="883" type="line" smooth="yes"/>
      <point x="161" y="1041"/>
      <point x="154" y="1053"/>
      <point x="139" y="1066" type="curve"/>
      <point x="130" y="1072"/>
      <point x="120" y="1076"/>
      <point x="108" y="1076" type="curve" smooth="yes"/>
      <point x="96" y="1076"/>
      <point x="80" y="1073"/>
      <point x="59" y="1065" type="curve"/>
      <point x="45" y="1092" type="line"/>
      <point x="255" y="1176" type="line"/>
      <point x="288" y="1176" type="line"/>
      <point x="288" y="251" type="line" smooth="yes"/>
      <point x="288" y="189"/>
      <point x="294" y="167"/>
      <point x="307" y="149" type="curve" smooth="yes"/>
      <point x="322" y="130"/>
      <point x="341" y="122"/>
      <point x="400" y="122" type="curve"/>
      <point x="400" y="93" type="line"/>
    </contour>
  </outline>
</glyph>
<glyph name="m" format="2">
  <advance width="1214"/>
  <unicode hex="006D"/>
  <anchor x="609" y="93" name="H"/>
  <anchor x="609" y="17" name="L"/>
  <anchor x="609" y="854" name="U"/>
  <outline>
    <contour>
      <point x="863" y="93" type="line"/>
      <point x="863" y="122" type="line"/>
      <point x="972" y="122"/>
      <point x="975" y="156"/>
      <point x="975" y="251" type="curve" smooth="yes"/>
      <point x="975" y="552" type="line" smooth="yes"/>
      <point x="975" y="677"/>
      <point x="938" y="720"/>
      <point x="860" y="720" type="curve" smooth="yes"/>
      <point x="814" y="720"/>
      <point x="754" y="700"/>
      <point x="680" y="626" type="curve"/>
      <point x="680" y="251" type="line" smooth="yes"/>
      <point x="680" y="151"/>
      <point x="686" y="122"/>
      <point x="791" y="122" type="curve"/>
      <point x="791" y="93" type="line"/>
      <point x="438" y="93" type="line"/>
      <point x="438" y="122" type="line"/>
      <point x="557" y="122"/>
      <point x="552" y="162"/>
      <point x="552" y="251" type="curve" smooth="yes"/>
      <point x="552" y="552" type="line" smooth="yes"/>
      <point x="552" y="676"/>
      <point x="507" y="722"/>
      <point x="434" y="722" type="curve" smooth="yes"/>
      <point x="361" y="722"/>
      <point x="298" y="671"/>
      <point x="255" y="626" type="curve"/>
      <point x="255" y="251" type="line" smooth="yes"/>
      <point x="255" y="133"/>
      <point x="278" y="122"/>
      <point x="368" y="122" type="curve"/>
      <point x="368" y="93" type="line"/>
      <point x="23" y="93" type="line"/>
      <point x="23" y="122" type="line"/>
      <point x="111" y="122"/>
      <point x="127" y="142"/>
      <point x="127" y="251" type="curve" smooth="yes"/>
      <point x="127" y="518" type="line" smooth="yes"/>
      <point x="127" y="673"/>
      <point x="136" y="739"/>
      <point x="23" y="699" type="curve"/>
      <point x="10" y="726" type="line"/>
      <point x="222" y="810" type="line"/>
      <point x="255" y="810" type="line"/>
      <point x="255" y="663" type="line"/>
      <point x="369" y="785"/>
      <point x="427" y="810"/>
      <point x="497" y="810" type="curve" smooth="yes"/>
      <point x="579" y="810"/>
      <point x="651" y="764"/>
      <point x="673" y="663" type="curve"/>
      <point x="776" y="782"/>
      <point x="840" y="810"/>
      <point x="918" y="810" type="curve" smooth="yes"/>
      <point x="1030" y="810"/>
      <point x="1102" y="741"/>
      <point x="1102" y="552" type="curve" smooth="yes"/>
      <point x="1102" y="251" type="line" smooth="yes"/>
      <point x="1102" y="144"/>
      <point x="1123" y="122"/>
      <point x="1208" y="122" type="curve"/>
      <point x="1208" y="93" type="line"/>
    </contour>
  </outline>
</glyph>
<glyph name="n" format="2">
  <advance width="780"/>
  <unicode hex="006E"/>
  <anchor x="601" y="93" name="H"/>
  <anchor x="392" y="17" name="L"/>
  <anchor x="392" y="854" name="U"/>
  <outline>
    <contour>
      <point x="428" y="93" type="line"/>
      <point x="428" y="122" type="line"/>
      <point x="531" y="122"/>
      <point x="541" y="143"/>
      <point x="541" y="251" type="curve" smooth="yes"/>
      <point x="541" y="535" type="line" smooth="yes"/>
      <point x="541" y="661"/>
      <point x="514" y="717"/>
      <point x="432" y="717" type="curve" smooth="yes"/>
      <point x="374" y="717"/>
      <point x="313" y="685"/>
      <point x="252" y="618" type="curve"/>
      <point x="252" y="251" type="line" smooth="yes"/>
      <point x="252" y="142"/>
      <point x="265" y="122"/>
      <point x="366" y="122" type="curve"/>
      <point x="366" y="93" type="line"/>
      <point x="20" y="93" type="line"/>
      <point x="20" y="122" type="line"/>
      <point x="107" y="122"/>
      <point x="125" y="144"/>
      <point x="125" y="251" type="curve" smooth="yes"/>
      <point x="125" y="510" type="line" smooth="yes"/>
      <point x="125" y="676"/>
      <point x="118" y="689"/>
      <point x="102" y="700" type="curve"/>
      <point x="85" y="715"/>
      <point x="58" y="715"/>
      <point x="20" y="699" type="curve"/>
      <point x="8" y="726" type="line"/>
      <point x="221" y="810" type="line"/>
      <point x="252" y="810" type="line"/>
      <point x="252" y="665" type="line"/>
      <point x="335" y="761"/>
      <point x="412" y="810"/>
      <point x="486" y="810" type="curve" smooth="yes"/>
      <point x="622" y="810"/>
      <point x="669" y="706"/>
      <point x="669" y="550" type="curve" smooth="yes"/>
      <point x="669" y="251" type="line" smooth="yes"/>
      <point x="669" y="147"/>
      <point x="683" y="122"/>
      <point x="777" y="122" type="curve"/>
      <point x="777" y="93" type="line"/>
    </contour>
  </outline>
</glyph>
<glyph name="o" format="2">
  <advance width="780"/>
  <unicode hex="006F"/>
  <anchor x="389" y="93" name="H"/>
  <anchor x="389" y="17" name="L"/>
  <anchor x="546" y="93" name="O"/>
  <anchor x="780" y="778" name="R"/>
  <anchor x="389" y="854" name="U"/>
  <outline>
    <contour>
      <point x="726" y="454" type="curve" smooth="yes"/>
      <point x="726" y="275"/>
      <point x="611" y="70"/>
      <point x="382" y="70" type="curve" smooth="yes"/>
      <point x="187" y="70"/>
      <point x="53" y="241"/>
      <point x="53" y="435" type="curve" smooth="yes"/>
      <point x="53" y="623"/>
      <point x="180" y="810"/>
      <point x="390" y="810" type="curve" smooth="yes"/>
      <point x="590" y="810"/>
      <point x="726" y="654"/>
    </contour>
    <contour>
      <point x="584" y="396" type="curve" smooth="yes"/>
      <point x="584" y="603"/>
      <point x="500" y="762"/>
      <point x="366" y="762" type="curve" smooth="yes"/>
      <point x="286" y="762"/>
      <point x="193" y="700"/>
      <point x="193" y="498" type="curve" smooth="yes"/>
      <point x="193" y="298"/>
      <point x="280" y="126"/>
      <point x="414" y="126" type="curve" smooth="yes"/>
      <point x="514" y="126"/>
      <point x="584" y="196"/>
    </contour>
  </outline>
</glyph>
<glyph name="p" format="2">
  <advance width="780"/>
  <unicode hex="0070"/>
  <anchor x="175" y="-238" name="H"/>
  <anchor x="359" y="-287" name="L"/>
  <anchor x="780" y="778" name="R"/>
  <anchor x="359" y="854" name="U"/>
  <outline>
    <contour>
      <point x="728" y="468" type="curve" smooth="yes"/>
      <point x="728" y="249"/>
      <point x="598" y="70"/>
      <point x="408" y="70" type="curve" smooth="yes"/>
      <point x="363" y="70"/>
      <point x="307" y="75"/>
      <point x="242" y="133" type="curve"/>
      <point x="242" y="-77" type="line" smooth="yes"/>
      <point x="242" y="-188"/>
      <point x="248" y="-209"/>
      <point x="361" y="-213" type="curve"/>
      <point x="361" y="-242" type="line"/>
      <point x="-9" y="-242" type="line"/>
      <point x="-9" y="-213" type="line"/>
      <point x="104" y="-209"/>
      <point x="113" y="-191"/>
      <point x="113" y="-74" type="curve" smooth="yes"/>
      <point x="113" y="585" type="line" smooth="yes"/>
      <point x="113" y="663"/>
      <point x="113" y="680"/>
      <point x="88" y="699" type="curve" smooth="yes"/>
      <point x="72" y="710"/>
      <point x="49" y="714"/>
      <point x="5" y="696" type="curve"/>
      <point x="-5" y="722" type="line"/>
      <point x="213" y="808" type="line"/>
      <point x="242" y="808" type="line"/>
      <point x="242" y="645" type="line"/>
      <point x="314" y="768"/>
      <point x="382" y="810"/>
      <point x="466" y="810" type="curve" smooth="yes"/>
      <point x="621" y="810"/>
      <point x="728" y="661"/>
    </contour>
    <contour>
      <point x="606" y="396" type="curve" smooth="yes"/>
      <point x="606" y="621"/>
      <point x="514" y="717"/>
      <point x="405" y="717" type="curve" smooth="yes"/>
      <point x="345" y="717"/>
      <point x="304" y="668"/>
      <point x="242" y="600" type="curve"/>
      <point x="242" y="339" type="line" smooth="yes"/>
      <point x="242" y="285"/>
      <point x="244" y="247"/>
      <point x="249" y="228" type="curve"/>
      <point x="263" y="175"/>
      <point x="315" y="117"/>
      <point x="405" y="117" type="curve" smooth="yes"/>
      <point x="524" y="117"/>
      <point x="606" y="223"/>
    </contour>
  </outline>
</glyph>
<glyph name="q" format="2">
  <advance width="780"/>
  <unicode hex="0071"/>
  <anchor x="417" y="-287" name="L"/>
  <anchor x="780" y="778" name="R"/>
  <anchor x="417" y="854" name="U"/>
  <outline>
    <contour>
      <point x="428" y="-242" type="line"/>
      <point x="428" y="-213" type="line"/>
      <point x="516" y="-213"/>
      <point x="541" y="-202"/>
      <point x="541" y="-87" type="curve" smooth="yes"/>
      <point x="541" y="215" type="line"/>
      <point x="452" y="106"/>
      <point x="389" y="70"/>
      <point x="312" y="70" type="curve" smooth="yes"/>
      <point x="185" y="70"/>
      <point x="51" y="195"/>
      <point x="51" y="411" type="curve" smooth="yes"/>
      <point x="51" y="644"/>
      <point x="207" y="810"/>
      <point x="411" y="810" type="curve" smooth="yes"/>
      <point x="469" y="810"/>
      <point x="519" y="798"/>
      <point x="555" y="762" type="curve"/>
      <point x="585" y="777"/>
      <point x="616" y="792"/>
      <point x="642" y="810" type="curve"/>
      <point x="669" y="810" type="line"/>
      <point x="669" y="-87" type="line" smooth="yes"/>
      <point x="669" y="-194"/>
      <point x="689" y="-213"/>
      <point x="783" y="-213" type="curve"/>
      <point x="783" y="-242" type="line"/>
    </contour>
    <contour>
      <point x="541" y="590" type="line"/>
      <point x="541" y="690"/>
      <point x="491" y="757"/>
      <point x="387" y="757" type="curve" smooth="yes"/>
      <point x="274" y="757"/>
      <point x="180" y="663"/>
      <point x="180" y="467" type="curve" smooth="yes"/>
      <point x="180" y="274"/>
      <point x="279" y="179"/>
      <point x="392" y="179" type="curve" smooth="yes"/>
      <point x="457" y="179"/>
      <point x="495" y="208"/>
      <point x="541" y="260" type="curve"/>
    </contour>
  </outline>
</glyph>
<glyph name="r" format="2">
  <advance width="534"/>
  <unicode hex="0072"/>
  <anchor x="195" y="93" name="H"/>
  <anchor x="269" y="17" name="L"/>
  <anchor x="269" y="854" name="U"/>
  <outline>
    <contour>
      <point x="531" y="726" type="curve" smooth="yes"/>
      <point x="531" y="690"/>
      <point x="501" y="655"/>
      <point x="462" y="655" type="curve" smooth="yes"/>
      <point x="411" y="655"/>
      <point x="387" y="709"/>
      <point x="354" y="709" type="curve" smooth="yes"/>
      <point x="329" y="709"/>
      <point x="291" y="665"/>
      <point x="252" y="591" type="curve"/>
      <point x="252" y="255" type="line" smooth="yes"/>
      <point x="252" y="167"/>
      <point x="275" y="122"/>
      <point x="375" y="122" type="curve"/>
      <point x="375" y="93" type="line"/>
      <point x="13" y="93" type="line"/>
      <point x="13" y="122" type="line"/>
      <point x="100" y="122"/>
      <point x="125" y="132"/>
      <point x="125" y="251" type="curve" smooth="yes"/>
      <point x="125" y="521" type="line" smooth="yes"/>
      <point x="125" y="668"/>
      <point x="119" y="681"/>
      <point x="102" y="700" type="curve"/>
      <point x="80" y="712"/>
      <point x="56" y="717"/>
      <point x="13" y="699" type="curve"/>
      <point x="6" y="726" type="line"/>
      <point x="222" y="810" type="line"/>
      <point x="252" y="810" type="line"/>
      <point x="252" y="654" type="line"/>
      <point x="310" y="758"/>
      <point x="370" y="810"/>
      <point x="432" y="810" type="curve" smooth="yes"/>
      <point x="488" y="810"/>
      <point x="531" y="776"/>
    </contour>
  </outline>
</glyph>
<glyph name="s" format="2">
  <advance width="607"/>
  <unicode hex="0073"/>
  <anchor x="314" y="93" name="H"/>
  <anchor x="314" y="17" name="L"/>
  <anchor x="314" y="854" name="U"/>
  <outline>
    <contour>
      <point x="552" y="269" type="curve" smooth="yes"/>
      <point x="552" y="162"/>
      <point x="444" y="70"/>
      <point x="320" y="70" type="curve" smooth="yes"/>
      <point x="245" y="70"/>
      <point x="178" y="111"/>
      <point x="132" y="117" type="curve"/>
      <point x="120" y="117"/>
      <point x="111" y="96"/>
      <point x="105" y="83" type="curve"/>
      <point x="80" y="83" type="line"/>
      <point x="80" y="332" type="line"/>
      <point x="105" y="332" type="line"/>
      <point x="131" y="190"/>
      <point x="221" y="117"/>
      <point x="320" y="117" type="curve" smooth="yes"/>
      <point x="394" y="117"/>
      <point x="439" y="165"/>
      <point x="439" y="220" type="curve"/>
      <point x="441" y="289"/>
      <point x="413" y="330"/>
      <point x="263" y="407" type="curve"/>
      <point x="115" y="483"/>
      <point x="76" y="537"/>
      <point x="76" y="624" type="curve" smooth="yes"/>
      <point x="76" y="728"/>
      <point x="157" y="810"/>
      <point x="303" y="810" type="curve" smooth="yes"/>
      <point x="365" y="810"/>
      <point x="431" y="783"/>
      <point x="455" y="783" type="curve" smooth="yes"/>
      <point x="470" y="783"/>
      <point x="477" y="786"/>
      <point x="489" y="810" type="curve"/>
      <point x="514" y="810" type="line"/>
      <point x="514" y="572" type="line"/>
      <point x="489" y="572" type="line"/>
      <point x="453" y="722"/>
      <point x="388" y="766"/>
      <point x="301" y="766" type="curve" smooth="yes"/>
      <point x="207" y="766"/>
      <point x="166" y="729"/>
      <point x="165" y="675" type="curve"/>
      <point x="163" y="619"/>
      <point x="183" y="574"/>
      <point x="279" y="530" type="curve"/>
      <point x="392" y="477" type="line"/>
      <point x="498" y="428"/>
      <point x="552" y="357"/>
    </contour>
  </outline>
</glyph>
<glyph name="t" format="2">
  <advance width="434"/>
  <unicode hex="0074"/>
  <anchor x="223" y="93" name="H"/>
  <anchor x="223" y="17" name="L"/>
  <anchor x="434" y="778" name="R"/>
  <anchor x="217" y="1081" name="U"/>
  <outline>
    <contour>
      <point x="435" y="220" type="line"/>
      <point x="403" y="117"/>
      <point x="321" y="70"/>
      <point x="261" y="70" type="curve" smooth="yes"/>
      <point x="195" y="70"/>
      <point x="123" y="99"/>
      <point x="123" y="255" type="curve" smooth="yes"/>
      <point x="123" y="738" type="line"/>
      <point x="11" y="738" type="line"/>
      <point x="11" y="762" type="line"/>
      <point x="53" y="777"/>
      <point x="102" y="819"/>
      <point x="142" y="865" type="curve"/>
      <point x="169" y="899"/>
      <point x="185" y="919"/>
      <point x="228" y="1020" type="curve"/>
      <point x="250" y="1020" type="line"/>
      <point x="250" y="790" type="line"/>
      <point x="414" y="790" type="line"/>
      <point x="414" y="738" type="line"/>
      <point x="250" y="738" type="line"/>
      <point x="250" y="273" type="line" smooth="yes"/>
      <point x="250" y="182"/>
      <point x="281" y="160"/>
      <point x="320" y="158" type="curve"/>
      <point x="357" y="155"/>
      <point x="387" y="181"/>
      <point x="405" y="220" type="curve"/>
    </contour>
  </outline>
</glyph>
<glyph name="u" format="2">
  <advance width="780"/>
  <unicode hex="0075"/>
  <anchor x="350" y="93" name="H"/>
  <anchor x="390" y="17" name="L"/>
  <anchor x="428" y="93" name="O"/>
  <anchor x="780" y="778" name="R"/>
  <anchor x="390" y="854" name="U"/>
  <outline>
    <contour>
      <point x="570" y="70" type="line"/>
      <point x="536" y="70" type="line"/>
      <point x="536" y="219" type="line"/>
      <point x="419" y="96"/>
      <point x="366" y="70"/>
      <point x="299" y="70" type="curve" smooth="yes"/>
      <point x="136" y="70"/>
      <point x="119" y="231"/>
      <point x="119" y="342" type="curve" smooth="yes"/>
      <point x="119" y="654" type="line" smooth="yes"/>
      <point x="119" y="745"/>
      <point x="88" y="762"/>
      <point x="0" y="762" type="curve"/>
      <point x="0" y="790" type="line"/>
      <point x="246" y="790" type="line"/>
      <point x="246" y="324" type="line" smooth="yes"/>
      <point x="246" y="244"/>
      <point x="261" y="165"/>
      <point x="361" y="165" type="curve" smooth="yes"/>
      <point x="402" y="165"/>
      <point x="457" y="187"/>
      <point x="536" y="263" type="curve"/>
      <point x="536" y="660" type="line" smooth="yes"/>
      <point x="536" y="744"/>
      <point x="502" y="760"/>
      <point x="423" y="762" type="curve"/>
      <point x="423" y="790" type="line"/>
      <point x="663" y="790" type="line"/>
      <point x="663" y="278" type="line" smooth="yes"/>
      <point x="663" y="195"/>
      <point x="677" y="173"/>
      <point x="710" y="173" type="curve" smooth="yes"/>
      <point x="724" y="173"/>
      <point x="749" y="176"/>
      <point x="771" y="184" type="curve"/>
      <point x="782" y="158" type="line"/>
    </contour>
  </outline>
</glyph>
<glyph name="v" format="2">
  <advance width="780"/>
  <unicode hex="0076"/>
  <anchor x="400" y="93" name="H"/>
  <anchor x="389" y="17" name="L"/>
  <anchor x="472" y="93" name="O"/>
  <anchor x="389" y="854" name="U"/>
  <outline>
    <contour>
      <point x="767" y="762" type="line"/>
      <point x="740" y="760"/>
      <point x="723" y="756"/>
      <point x="710" y="747" type="curve"/>
      <point x="693" y="729"/>
      <point x="678" y="706"/>
      <point x="663" y="670" type="curve" smooth="yes"/>
      <point x="416" y="70" type="line"/>
      <point x="384" y="70" type="line"/>
      <point x="133" y="661" type="line"/>
      <point x="113" y="712"/>
      <point x="93" y="731"/>
      <point x="65" y="750" type="curve"/>
      <point x="56" y="755"/>
      <point x="39" y="757"/>
      <point x="11" y="762" type="curve"/>
      <point x="11" y="790" type="line"/>
      <point x="342" y="790" type="line"/>
      <point x="342" y="762" type="line"/>
      <point x="320" y="762" type="line" smooth="yes"/>
      <point x="301" y="762"/>
      <point x="283" y="760"/>
      <point x="275" y="748" type="curve"/>
      <point x="254" y="727"/>
      <point x="251" y="696"/>
      <point x="275" y="645" type="curve"/>
      <point x="437" y="260" type="line"/>
      <point x="600" y="661" type="line"/>
      <point x="618" y="704"/>
      <point x="624" y="727"/>
      <point x="613" y="744" type="curve" smooth="yes"/>
      <point x="607" y="753"/>
      <point x="594" y="762"/>
      <point x="538" y="762" type="curve"/>
      <point x="538" y="790" type="line"/>
      <point x="767" y="790" type="line"/>
    </contour>
  </outline>
</glyph>
<glyph name="w" format="2">
  <advance width="1126"/>
  <unicode hex="0077"/>
  <anchor x="561" y="17" name="L"/>
  <anchor x="561" y="854" name="U"/>
  <outline>
    <contour>
      <point x="1113" y="762" type="line"/>
      <point x="1068" y="756"/>
      <point x="1035" y="726"/>
      <point x="1014" y="674" type="curve"/>
      <point x="782" y="70" type="line"/>
      <point x="750" y="70" type="line"/>
      <point x="575" y="518" type="line"/>
      <point x="374" y="70" type="line"/>
      <point x="345" y="70" type="line"/>
      <point x="120" y="657" type="line"/>
      <point x="105" y="694"/>
      <point x="91" y="719"/>
      <point x="76" y="731" type="curve"/>
      <point x="65" y="746"/>
      <point x="40" y="756"/>
      <point x="9" y="762" type="curve"/>
      <point x="9" y="790" type="line"/>
      <point x="303" y="790" type="line"/>
      <point x="303" y="762" type="line"/>
      <point x="276" y="760"/>
      <point x="258" y="756"/>
      <point x="249" y="748" type="curve"/>
      <point x="231" y="731"/>
      <point x="231" y="705"/>
      <point x="249" y="657" type="curve" smooth="yes"/>
      <point x="400" y="257" type="line"/>
      <point x="549" y="584" type="line"/>
      <point x="510" y="687" type="line"/>
      <point x="498" y="717"/>
      <point x="482" y="738"/>
      <point x="462" y="750" type="curve" smooth="yes"/>
      <point x="451" y="757"/>
      <point x="429" y="760"/>
      <point x="400" y="762" type="curve"/>
      <point x="400" y="790" type="line"/>
      <point x="731" y="790" type="line"/>
      <point x="731" y="762" type="line"/>
      <point x="694" y="760"/>
      <point x="669" y="756"/>
      <point x="654" y="744" type="curve"/>
      <point x="642" y="732"/>
      <point x="631" y="699"/>
      <point x="645" y="674" type="curve"/>
      <point x="804" y="273" type="line"/>
      <point x="949" y="657" type="line"/>
      <point x="960" y="685"/>
      <point x="966" y="707"/>
      <point x="966" y="723" type="curve" smooth="yes"/>
      <point x="966" y="735"/>
      <point x="957" y="762"/>
      <point x="893" y="762" type="curve"/>
      <point x="893" y="790" type="line"/>
      <point x="1113" y="790" type="line"/>
    </contour>
  </outline>
</glyph>
<glyph name="x" format="2">
  <advance width="780"/>
  <unicode hex="0078"/>
  <anchor x="586" y="93" name="H"/>
  <anchor x="391" y="17" name="L"/>
  <anchor x="391" y="854" name="U"/>
  <outline>
    <contour>
      <point x="432" y="93" type="line"/>
      <point x="432" y="122" type="line"/>
      <point x="509" y="122"/>
      <point x="506" y="168"/>
      <point x="494" y="189" type="curve"/>
      <point x="349" y="402" type="line"/>
      <point x="198" y="200" type="line" smooth="yes"/>
      <point x="177" y="173"/>
      <point x="177" y="124"/>
      <point x="255" y="122" type="curve"/>
      <point x="255" y="93" type="line"/>
      <point x="27" y="93" type="line"/>
      <point x="27" y="122" type="line"/>
      <point x="67" y="124"/>
      <point x="94" y="149"/>
      <point x="170" y="252" type="curve"/>
      <point x="318" y="447" type="line"/>
      <point x="186" y="639" type="line"/>
      <point x="111" y="750"/>
      <point x="87" y="760"/>
      <point x="21" y="762" type="curve"/>
      <point x="21" y="790" type="line"/>
      <point x="349" y="790" type="line"/>
      <point x="349" y="762" type="line"/>
      <point x="288" y="766"/>
      <point x="285" y="724"/>
      <point x="295" y="706" type="curve"/>
      <point x="395" y="550" type="line"/>
      <point x="498" y="700" type="line"/>
      <point x="514" y="722"/>
      <point x="512" y="762"/>
      <point x="451" y="762" type="curve"/>
      <point x="451" y="790" type="line"/>
      <point x="687" y="790" type="line"/>
      <point x="687" y="762" type="line"/>
      <point x="624" y="760"/>
      <point x="591" y="728"/>
      <point x="519" y="630" type="curve" smooth="yes"/>
      <point x="425" y="501" type="line"/>
      <point x="598" y="252" type="line" smooth="yes"/>
      <point x="640" y="192"/>
      <point x="648" y="182"/>
      <point x="690" y="142" type="curve"/>
      <point x="699" y="132"/>
      <point x="731" y="123"/>
      <point x="762" y="122" type="curve"/>
      <point x="762" y="93" type="line"/>
    </contour>
  </outline>
</glyph>
<glyph name="y" format="2">
  <advance width="780"/>
  <unicode hex="0079"/>
  <anchor x="390" y="-287" name="L"/>
  <anchor x="780" y="778" name="R"/>
  <anchor x="419" y="854" name="U"/>
  <outline>
    <contour>
      <point x="771" y="762" type="line"/>
      <point x="726" y="760"/>
      <point x="705" y="747"/>
      <point x="667" y="657" type="curve"/>
      <point x="384" y="-39" type="line"/>
      <point x="331" y="-170"/>
      <point x="236" y="-245"/>
      <point x="148" y="-245" type="curve" smooth="yes"/>
      <point x="88" y="-245"/>
      <point x="45" y="-206"/>
      <point x="45" y="-157" type="curve" smooth="yes"/>
      <point x="45" y="-117"/>
      <point x="72" y="-89"/>
      <point x="123" y="-89" type="curve" smooth="yes"/>
      <point x="155" y="-89"/>
      <point x="218" y="-116"/>
      <point x="229" y="-116" type="curve" smooth="yes"/>
      <point x="261" y="-116"/>
      <point x="298" y="-88"/>
      <point x="335" y="0" type="curve"/>
      <point x="384" y="122" type="line"/>
      <point x="133" y="647" type="line"/>
      <point x="115" y="683"/>
      <point x="84" y="756"/>
      <point x="9" y="762" type="curve"/>
      <point x="9" y="790" type="line"/>
      <point x="335" y="790" type="line"/>
      <point x="335" y="762" type="line"/>
      <point x="318" y="762" type="line" smooth="yes"/>
      <point x="281" y="762"/>
      <point x="249" y="744"/>
      <point x="249" y="711" type="curve" smooth="yes"/>
      <point x="249" y="690"/>
      <point x="257" y="665"/>
      <point x="275" y="629" type="curve" smooth="yes"/>
      <point x="444" y="278" type="line"/>
      <point x="600" y="663" type="line"/>
      <point x="615" y="691"/>
      <point x="621" y="728"/>
      <point x="609" y="745" type="curve" smooth="yes"/>
      <point x="603" y="754"/>
      <point x="596" y="762"/>
      <point x="544" y="762" type="curve"/>
      <point x="544" y="790" type="line"/>
      <point x="771" y="790" type="line"/>
    </contour>
  </outline>
</glyph>
<glyph name="z" format="2">
  <advance width="693"/>
  <unicode hex="007A"/>
  <anchor x="349" y="93" name="H"/>
  <anchor x="349" y="17" name="L"/>
  <anchor x="349" y="854" name="U"/>
  <outline>
    <contour>
      <point x="199" y="144" type="line"/>
      <point x="455" y="144" type="line" smooth="yes"/>
      <point x="508" y="144"/>
      <point x="543" y="149"/>
      <point x="561" y="158" type="curve" smooth="yes"/>
      <point x="594" y="174"/>
      <point x="614" y="178"/>
      <point x="629" y="306" type="curve"/>
      <point x="655" y="306" type="line"/>
      <point x="647" y="93" type="line"/>
      <point x="31" y="93" type="line"/>
      <point x="31" y="122" type="line"/>
      <point x="495" y="738" type="line"/>
      <point x="265" y="738" type="line" smooth="yes"/>
      <point x="217" y="738"/>
      <point x="186" y="733"/>
      <point x="167" y="727" type="curve"/>
      <point x="138" y="714"/>
      <point x="116" y="680"/>
      <point x="107" y="597" type="curve"/>
      <point x="78" y="597" type="line"/>
      <point x="83" y="790" type="line"/>
      <point x="667" y="790" type="line"/>
      <point x="667" y="762" type="line"/>
    </contour>
  </outline>
</glyph>
<glyph name="braceleft" format="2">
  <advance width="1018"/>
  <unicode hex="007B"/>
  <outline>
    <contour>
      <point x="804" y="-368" type="curve"/>
      <point x="804" y="-332" type="line"/>
      <point x="660" y="-294"/>
      <point x="572" y="-214"/>
      <point x="572" y="-58" type="curve" smooth="yes"/>
      <point x="572" y="38"/>
      <point x="618" y="130"/>
      <point x="618" y="226" type="curve" smooth="yes"/>
      <point x="618" y="416"/>
      <point x="506" y="536"/>
      <point x="334" y="600" type="curve"/>
      <point x="508" y="664"/>
      <point x="618" y="774"/>
      <point x="618" y="968" type="curve" smooth="yes"/>
      <point x="618" y="1066"/>
      <point x="572" y="1158"/>
      <point x="572" y="1256" type="curve" smooth="yes"/>
      <point x="572" y="1410"/>
      <point x="660" y="1498"/>
      <point x="804" y="1532" type="curve"/>
      <point x="804" y="1568" type="line"/>
      <point x="610" y="1542"/>
      <point x="418" y="1394"/>
      <point x="418" y="1184" type="curve" smooth="yes"/>
      <point x="418" y="1070"/>
      <point x="464" y="962"/>
      <point x="464" y="850" type="curve" smooth="yes"/>
      <point x="464" y="730"/>
      <point x="336" y="638"/>
      <point x="226" y="626" type="curve"/>
      <point x="226" y="572" type="line"/>
      <point x="342" y="556"/>
      <point x="464" y="474"/>
      <point x="464" y="346" type="curve" smooth="yes"/>
      <point x="464" y="240"/>
      <point x="418" y="138"/>
      <point x="418" y="30" type="curve" smooth="yes"/>
      <point x="418" y="-178"/>
      <point x="604" y="-348"/>
    </contour>
  </outline>
</glyph>
<glyph name="bar" format="2">
  <advance width="502"/>
  <unicode hex="007C"/>
  <outline>
    <contour>
      <point x="289" y="-294" type="line"/>
      <point x="289" y="1287" type="line"/>
      <point x="213" y="1287" type="line"/>
      <point x="213" y="-294" type="line"/>
    </contour>
  </outline>
</glyph>
<glyph name="braceright" format="2">
  <advance width="1018"/>
  <unicode hex="007D"/>
  <outline>
    <contour>
      <point x="790" y="572" type="curve"/>
      <point x="790" y="626" type="line"/>
      <point x="678" y="640"/>
      <point x="552" y="726"/>
      <point x="552" y="850" type="curve" smooth="yes"/>
      <point x="552" y="962"/>
      <point x="600" y="1072"/>
      <point x="600" y="1184" type="curve" smooth="yes"/>
      <point x="600" y="1390"/>
      <point x="404" y="1546"/>
      <point x="212" y="1568" type="curve"/>
      <point x="212" y="1532" type="line"/>
      <point x="358" y="1494"/>
      <point x="444" y="1412"/>
      <point x="444" y="1256" type="curve" smooth="yes"/>
      <point x="444" y="1158"/>
      <point x="398" y="1066"/>
      <point x="398" y="968" type="curve" smooth="yes"/>
      <point x="398" y="778"/>
      <point x="514" y="664"/>
      <point x="684" y="600" type="curve"/>
      <point x="510" y="534"/>
      <point x="398" y="420"/>
      <point x="398" y="226" type="curve" smooth="yes"/>
      <point x="398" y="130"/>
      <point x="444" y="38"/>
      <point x="444" y="-58" type="curve" smooth="yes"/>
      <point x="444" y="-212"/>
      <point x="356" y="-298"/>
      <point x="212" y="-332" type="curve"/>
      <point x="212" y="-368" type="line"/>
      <point x="410" y="-342"/>
      <point x="600" y="-180"/>
      <point x="600" y="30" type="curve" smooth="yes"/>
      <point x="600" y="136"/>
      <point x="552" y="238"/>
      <point x="552" y="346" type="curve" smooth="yes"/>
      <point x="552" y="470"/>
      <point x="674" y="560"/>
    </contour>
  </outline>
</glyph>
<glyph name="asciitilde" format="2">
  <advance width="849"/>
  <unicode hex="007E"/>
  <outline>
    <contour>
      <point x="819" y="572" type="curve"/>
      <point x="775" y="630" type="line"/>
      <point x="746" y="570"/>
      <point x="684" y="495"/>
      <point x="613" y="495" type="curve" smooth="yes"/>
      <point x="528" y="495"/>
      <point x="354" y="610"/>
      <point x="246" y="610" type="curve" smooth="yes"/>
      <point x="135" y="610"/>
      <point x="78" y="518"/>
      <point x="30" y="431" type="curve"/>
      <point x="72" y="375" type="line"/>
      <point x="110" y="438"/>
      <point x="154" y="519"/>
      <point x="239" y="519" type="curve" smooth="yes"/>
      <point x="348" y="519"/>
      <point x="485" y="407"/>
      <point x="604" y="407" type="curve" smooth="yes"/>
      <point x="705" y="407"/>
      <point x="775" y="491"/>
    </contour>
  </outline>
</glyph>
<glyph name="exclamdown" format="2">
  <advance width="519"/>
  <unicode hex="00A1"/>
  <outline>
    <contour>
      <point x="345" y="655" type="curve" smooth="yes"/>
      <point x="345" y="717"/>
      <point x="294" y="743"/>
      <point x="260" y="743" type="curve" smooth="yes"/>
      <point x="215" y="743"/>
      <point x="176" y="704"/>
      <point x="176" y="655" type="curve" smooth="yes"/>
      <point x="176" y="604"/>
      <point x="221" y="573"/>
      <point x="260" y="573" type="curve" smooth="yes"/>
      <point x="299" y="573"/>
      <point x="345" y="601"/>
    </contour>
    <contour>
      <point x="346" y="-229" type="curve" smooth="yes"/>
      <point x="346" y="-218"/>
      <point x="345" y="-207"/>
      <point x="341" y="-170" type="curve" smooth="yes"/>
      <point x="275" y="447" type="line"/>
      <point x="244" y="447" type="line"/>
      <point x="176" y="-170" type="line" smooth="yes"/>
      <point x="173" y="-192"/>
      <point x="173" y="-210"/>
      <point x="173" y="-222" type="curve" smooth="yes"/>
      <point x="173" y="-306"/>
      <point x="221" y="-336"/>
      <point x="258" y="-336" type="curve" smooth="yes"/>
      <point x="307" y="-336"/>
      <point x="346" y="-298"/>
    </contour>
  </outline>
</glyph>
<glyph name="cent" format="2">
  <advance width="780"/>
  <unicode hex="00A2"/>
  <outline>
    <contour>
      <point x="684" y="265" type="line"/>
      <point x="658" y="97"/>
      <point x="529" y="-23"/>
      <point x="393" y="-23" type="curve" smooth="yes"/>
      <point x="355" y="-23"/>
      <point x="320" y="-14"/>
      <point x="286" y="0" type="curve"/>
      <point x="270" y="-47"/>
      <point x="256" y="-88"/>
      <point x="235" y="-145" type="curve" smooth="yes"/>
      <point x="183" y="-288" type="line"/>
      <point x="129" y="-288" type="line"/>
      <point x="244" y="24" type="line"/>
      <point x="156" y="85"/>
      <point x="96" y="197"/>
      <point x="96" y="348" type="curve" smooth="yes"/>
      <point x="96" y="569"/>
      <point x="247" y="717"/>
      <point x="429" y="717" type="curve" smooth="yes"/>
      <point x="451" y="717"/>
      <point x="472" y="716"/>
      <point x="492" y="711" type="curve"/>
      <point x="600" y="1009" type="line"/>
      <point x="654" y="1009" type="line"/>
      <point x="541" y="697" type="line"/>
      <point x="562" y="689"/>
      <point x="581" y="677"/>
      <point x="598" y="663" type="curve"/>
      <point x="643" y="628"/>
      <point x="666" y="591"/>
      <point x="666" y="551" type="curve" smooth="yes"/>
      <point x="666" y="515"/>
      <point x="643" y="486"/>
      <point x="594" y="486" type="curve" smooth="yes"/>
      <point x="564" y="486"/>
      <point x="516" y="492"/>
      <point x="510" y="575" type="curve"/>
      <point x="510" y="585"/>
      <point x="508" y="593"/>
      <point x="505" y="600" type="curve"/>
      <point x="336" y="133" type="line"/>
      <point x="368" y="113"/>
      <point x="404" y="99"/>
      <point x="447" y="99" type="curve" smooth="yes"/>
      <point x="532" y="99"/>
      <point x="602" y="132"/>
      <point x="663" y="276" type="curve"/>
    </contour>
    <contour>
      <point x="221" y="414" type="curve" smooth="yes"/>
      <point x="221" y="320"/>
      <point x="246" y="231"/>
      <point x="295" y="173" type="curve"/>
      <point x="296" y="173"/>
      <point x="322" y="240"/>
      <point x="352" y="324" type="curve"/>
      <point x="416" y="499" type="line" smooth="yes"/>
      <point x="437" y="557"/>
      <point x="451" y="597"/>
      <point x="470" y="651" type="curve"/>
      <point x="452" y="661"/>
      <point x="433" y="667"/>
      <point x="403" y="667" type="curve" smooth="yes"/>
      <point x="288" y="667"/>
      <point x="221" y="558"/>
    </contour>
  </outline>
</glyph>
<glyph name="sterling" format="2">
  <advance width="902"/>
  <unicode hex="00A3"/>
  <outline>
    <contour>
      <point x="868" y="324" type="curve"/>
      <point x="840" y="330" type="line"/>
      <point x="816" y="250"/>
      <point x="764" y="208"/>
      <point x="680" y="208" type="curve" smooth="yes"/>
      <point x="602" y="208"/>
      <point x="506" y="246"/>
      <point x="432" y="270" type="curve"/>
      <point x="468" y="376"/>
      <point x="480" y="460"/>
      <point x="478" y="572" type="curve"/>
      <point x="478" y="594" type="line"/>
      <point x="674" y="594" type="line"/>
      <point x="674" y="666" type="line"/>
      <point x="478" y="666" type="line"/>
      <point x="472" y="740"/>
      <point x="462" y="814"/>
      <point x="462" y="890" type="curve" smooth="yes"/>
      <point x="462" y="984"/>
      <point x="480" y="1104"/>
      <point x="600" y="1104" type="curve" smooth="yes"/>
      <point x="750" y="1104"/>
      <point x="644" y="928"/>
      <point x="750" y="928" type="curve" smooth="yes"/>
      <point x="784" y="928"/>
      <point x="810" y="958"/>
      <point x="810" y="990" type="curve" smooth="yes"/>
      <point x="810" y="1092"/>
      <point x="708" y="1146"/>
      <point x="618" y="1146" type="curve" smooth="yes"/>
      <point x="440" y="1146"/>
      <point x="336" y="982"/>
      <point x="336" y="818" type="curve" smooth="yes"/>
      <point x="336" y="768"/>
      <point x="342" y="716"/>
      <point x="346" y="666" type="curve"/>
      <point x="200" y="666" type="line"/>
      <point x="200" y="594" type="line"/>
      <point x="346" y="594" type="line"/>
      <point x="354" y="506"/>
      <point x="362" y="418"/>
      <point x="362" y="330" type="curve" smooth="yes"/>
      <point x="362" y="314"/>
      <point x="362" y="300"/>
      <point x="360" y="286" type="curve"/>
      <point x="340" y="290"/>
      <point x="316" y="292"/>
      <point x="296" y="292" type="curve" smooth="yes"/>
      <point x="228" y="292"/>
      <point x="170" y="244"/>
      <point x="170" y="174" type="curve" smooth="yes"/>
      <point x="170" y="122"/>
      <point x="204" y="74"/>
      <point x="260" y="74" type="curve" smooth="yes"/>
      <point x="326" y="74"/>
      <point x="376" y="142"/>
      <point x="402" y="196" type="curve"/>
      <point x="474" y="142"/>
      <point x="554" y="74"/>
      <point x="648" y="74" type="curve" smooth="yes"/>
      <point x="782" y="74"/>
      <point x="852" y="208"/>
    </contour>
    <contour>
      <point x="352" y="224" type="curve"/>
      <point x="342" y="182"/>
      <point x="316" y="120"/>
      <point x="264" y="120" type="curve" smooth="yes"/>
      <point x="234" y="120"/>
      <point x="214" y="150"/>
      <point x="214" y="178" type="curve" smooth="yes"/>
      <point x="214" y="218"/>
      <point x="246" y="246"/>
      <point x="286" y="246" type="curve" smooth="yes"/>
      <point x="308" y="246"/>
      <point x="332" y="236"/>
    </contour>
  </outline>
</glyph>
<glyph name="currency" format="2">
  <advance width="1102"/>
  <unicode hex="00A4"/>
  <outline>
    <contour>
      <point x="842" y="606" type="line"/>
      <point x="680" y="766" type="line"/>
      <point x="728" y="824"/>
      <point x="750" y="894"/>
      <point x="750" y="968" type="curve" smooth="yes"/>
      <point x="750" y="1042"/>
      <point x="726" y="1116"/>
      <point x="680" y="1174" type="curve"/>
      <point x="842" y="1336" type="line"/>
      <point x="786" y="1392" type="line"/>
      <point x="620" y="1226" type="line"/>
      <point x="564" y="1272"/>
      <point x="498" y="1296"/>
      <point x="424" y="1296" type="curve" smooth="yes"/>
      <point x="350" y="1296"/>
      <point x="278" y="1274"/>
      <point x="220" y="1228" type="curve"/>
      <point x="56" y="1392" type="line"/>
      <point x="0" y="1336" type="line"/>
      <point x="164" y="1172" type="line"/>
      <point x="112" y="1114"/>
      <point x="92" y="1044"/>
      <point x="92" y="966" type="curve" smooth="yes"/>
      <point x="92" y="894"/>
      <point x="116" y="822"/>
      <point x="162" y="766" type="curve"/>
      <point x="0" y="606" type="line"/>
      <point x="56" y="550" type="line"/>
      <point x="218" y="712" type="line"/>
      <point x="278" y="660"/>
      <point x="346" y="638"/>
      <point x="424" y="638" type="curve" smooth="yes"/>
      <point x="498" y="638"/>
      <point x="568" y="664"/>
      <point x="624" y="712" type="curve"/>
      <point x="786" y="550" type="line"/>
    </contour>
    <contour>
      <point x="660" y="968" type="curve" smooth="yes"/>
      <point x="660" y="838"/>
      <point x="556" y="726"/>
      <point x="424" y="726" type="curve" smooth="yes"/>
      <point x="290" y="726"/>
      <point x="180" y="832"/>
      <point x="180" y="966" type="curve" smooth="yes"/>
      <point x="180" y="1102"/>
      <point x="288" y="1208"/>
      <point x="424" y="1208" type="curve" smooth="yes"/>
      <point x="554" y="1208"/>
      <point x="660" y="1096"/>
    </contour>
  </outline>
</glyph>
<glyph name="yen" format="2">
  <advance width="780"/>
  <unicode hex="00A5"/>
  <outline>
    <contour>
      <point x="765" y="269" type="line"/>
      <point x="765" y="323" type="line"/>
      <point x="455" y="323" type="line"/>
      <point x="455" y="447" type="line"/>
      <point x="460" y="460" type="line"/>
      <point x="765" y="460" type="line"/>
      <point x="765" y="516" type="line"/>
      <point x="482" y="516" type="line"/>
      <point x="648" y="887" type="line" smooth="yes"/>
      <point x="670" y="936"/>
      <point x="693" y="969"/>
      <point x="712" y="985" type="curve" smooth="yes"/>
      <point x="728" y="999"/>
      <point x="749" y="1005"/>
      <point x="780" y="1005" type="curve"/>
      <point x="780" y="1032" type="line"/>
      <point x="516" y="1032" type="line"/>
      <point x="516" y="1005" type="line"/>
      <point x="546" y="1003"/>
      <point x="567" y="1001"/>
      <point x="585" y="989" type="curve" smooth="yes"/>
      <point x="613" y="969"/>
      <point x="595" y="925"/>
      <point x="585" y="900" type="curve" smooth="yes"/>
      <point x="423" y="516" type="line"/>
      <point x="261" y="912" type="line"/>
      <point x="252" y="936"/>
      <point x="229" y="963"/>
      <point x="263" y="985" type="curve" smooth="yes"/>
      <point x="285" y="999"/>
      <point x="303" y="1002"/>
      <point x="339" y="1005" type="curve"/>
      <point x="339" y="1032" type="line"/>
      <point x="2" y="1032" type="line"/>
      <point x="2" y="1005" type="line"/>
      <point x="30" y="1002"/>
      <point x="53" y="996"/>
      <point x="70" y="981" type="curve"/>
      <point x="90" y="967"/>
      <point x="107" y="938"/>
      <point x="126" y="894" type="curve" smooth="yes"/>
      <point x="288" y="516" type="line"/>
      <point x="14" y="516" type="line"/>
      <point x="14" y="460" type="line"/>
      <point x="314" y="460" type="line"/>
      <point x="323" y="434" type="line"/>
      <point x="323" y="323" type="line"/>
      <point x="14" y="323" type="line"/>
      <point x="14" y="269" type="line"/>
      <point x="323" y="269" type="line"/>
      <point x="323" y="186" type="line" smooth="yes"/>
      <point x="323" y="133"/>
      <point x="325" y="81"/>
      <point x="309" y="63" type="curve" smooth="yes"/>
      <point x="286" y="37"/>
      <point x="252" y="31"/>
      <point x="218" y="31" type="curve" smooth="yes"/>
      <point x="192" y="31" type="line"/>
      <point x="192" y="0" type="line"/>
      <point x="585" y="0" type="line"/>
      <point x="585" y="31" type="line"/>
      <point x="554" y="31" type="line" smooth="yes"/>
      <point x="530" y="31"/>
      <point x="492" y="40"/>
      <point x="474" y="62" type="curve" smooth="yes"/>
      <point x="455" y="84"/>
      <point x="455" y="129"/>
      <point x="455" y="186" type="curve" smooth="yes"/>
      <point x="455" y="269" type="line"/>
    </contour>
  </outline>
</glyph>
<glyph name="brokenbar" format="2">
  <advance width="622"/>
  <unicode hex="00A6"/>
  <outline>
    <contour>
      <point x="80" y="744" type="line"/>
      <point x="80" y="1368" type="line"/>
      <point x="0" y="1368" type="line"/>
      <point x="0" y="744" type="line"/>
    </contour>
    <contour>
      <point x="80" y="-86" type="line"/>
      <point x="80" y="536" type="line"/>
      <point x="0" y="536" type="line"/>
      <point x="0" y="-86" type="line"/>
    </contour>
  </outline>
</glyph>
<glyph name="section" format="2">
  <advance width="990"/>
  <unicode hex="00A7"/>
  <outline>
    <contour>
      <point x="846" y="592" type="curve" smooth="yes"/>
      <point x="846" y="856"/>
      <point x="446" y="930"/>
      <point x="446" y="1136" type="curve" smooth="yes"/>
      <point x="446" y="1214"/>
      <point x="502" y="1274"/>
      <point x="582" y="1274" type="curve" smooth="yes"/>
      <point x="634" y="1274"/>
      <point x="668" y="1254"/>
      <point x="668" y="1198" type="curve" smooth="yes"/>
      <point x="668" y="1174"/>
      <point x="658" y="1148"/>
      <point x="658" y="1122" type="curve" smooth="yes"/>
      <point x="658" y="1088"/>
      <point x="688" y="1062"/>
      <point x="720" y="1062" type="curve" smooth="yes"/>
      <point x="764" y="1062"/>
      <point x="782" y="1090"/>
      <point x="782" y="1132" type="curve" smooth="yes"/>
      <point x="782" y="1240"/>
      <point x="682" y="1308"/>
      <point x="582" y="1308" type="curve" smooth="yes"/>
      <point x="458" y="1308"/>
      <point x="358" y="1206"/>
      <point x="358" y="1084" type="curve" smooth="yes"/>
      <point x="358" y="1008"/>
      <point x="410" y="936"/>
      <point x="456" y="880" type="curve"/>
      <point x="356" y="818"/>
      <point x="282" y="734"/>
      <point x="282" y="612" type="curve" smooth="yes"/>
      <point x="282" y="348"/>
      <point x="686" y="260"/>
      <point x="686" y="58" type="curve" smooth="yes"/>
      <point x="686" y="-8"/>
      <point x="612" y="-72"/>
      <point x="548" y="-72" type="curve" smooth="yes"/>
      <point x="514" y="-72"/>
      <point x="452" y="-52"/>
      <point x="452" y="-12" type="curve" smooth="yes"/>
      <point x="452" y="16"/>
      <point x="466" y="46"/>
      <point x="466" y="76" type="curve" smooth="yes"/>
      <point x="466" y="112"/>
      <point x="444" y="144"/>
      <point x="406" y="144" type="curve" smooth="yes"/>
      <point x="366" y="144"/>
      <point x="346" y="110"/>
      <point x="346" y="74" type="curve" smooth="yes"/>
      <point x="346" y="-34"/>
      <point x="440" y="-104"/>
      <point x="542" y="-104" type="curve" smooth="yes"/>
      <point x="670" y="-104"/>
      <point x="766" y="-4"/>
      <point x="766" y="122" type="curve" smooth="yes"/>
      <point x="766" y="198"/>
      <point x="722" y="270"/>
      <point x="672" y="324" type="curve"/>
      <point x="772" y="386"/>
      <point x="846" y="468"/>
    </contour>
    <contour>
      <point x="764" y="522" type="curve" smooth="yes"/>
      <point x="764" y="444"/>
      <point x="706" y="386"/>
      <point x="644" y="346" type="curve"/>
      <point x="558" y="452"/>
      <point x="360" y="512"/>
      <point x="360" y="678" type="curve" smooth="yes"/>
      <point x="360" y="760"/>
      <point x="414" y="816"/>
      <point x="482" y="854" type="curve"/>
      <point x="574" y="776"/>
      <point x="764" y="656"/>
    </contour>
  </outline>
</glyph>
<glyph name="dieresis" format="2">
  <advance width="466"/>
  <unicode hex="00A8"/>
  <anchor x="233" y="1046" name="U"/>
  <outline>
    <contour>
      <point x="466" y="935" type="curve" smooth="yes"/>
      <point x="466" y="976"/>
      <point x="431" y="1012"/>
      <point x="388" y="1012" type="curve" smooth="yes"/>
      <point x="349" y="1012"/>
      <point x="310" y="973"/>
      <point x="310" y="935" type="curve" smooth="yes"/>
      <point x="310" y="894"/>
      <point x="346" y="856"/>
      <point x="388" y="856" type="curve" smooth="yes"/>
      <point x="431" y="856"/>
      <point x="466" y="893"/>
    </contour>
    <contour>
      <point x="154" y="935" type="curve" smooth="yes"/>
      <point x="154" y="976"/>
      <point x="119" y="1012"/>
      <point x="76" y="1012" type="curve" smooth="yes"/>
      <point x="37" y="1012"/>
      <point x="0" y="973"/>
      <point x="0" y="935" type="curve" smooth="yes"/>
      <point x="0" y="894"/>
      <point x="36" y="856"/>
      <point x="76" y="856" type="curve" smooth="yes"/>
      <point x="119" y="856"/>
      <point x="154" y="893"/>
    </contour>
  </outline>
</glyph>
<glyph name="copyright" format="2">
  <advance width="1185"/>
  <unicode hex="00A9"/>
  <outline>
    <contour>
      <point x="1134" y="516" type="curve" smooth="yes"/>
      <point x="1134" y="819"/>
      <point x="897" y="1056"/>
      <point x="593" y="1056" type="curve" smooth="yes"/>
      <point x="325" y="1056"/>
      <point x="53" y="853"/>
      <point x="53" y="516" type="curve" smooth="yes"/>
      <point x="53" y="207"/>
      <point x="295" y="-24"/>
      <point x="593" y="-24" type="curve" smooth="yes"/>
      <point x="891" y="-24"/>
      <point x="1134" y="212"/>
    </contour>
    <contour>
      <point x="1086" y="516" type="curve" smooth="yes"/>
      <point x="1086" y="229"/>
      <point x="855" y="24"/>
      <point x="593" y="24" type="curve" smooth="yes"/>
      <point x="326" y="24"/>
      <point x="100" y="232"/>
      <point x="100" y="516" type="curve" smooth="yes"/>
      <point x="100" y="820"/>
      <point x="351" y="1009"/>
      <point x="593" y="1009" type="curve" smooth="yes"/>
      <point x="864" y="1009"/>
      <point x="1086" y="793"/>
    </contour>
    <contour>
      <point x="887" y="326" type="curve"/>
      <point x="860" y="343" type="line"/>
      <point x="801" y="261"/>
      <point x="723" y="221"/>
      <point x="622" y="221" type="curve" smooth="yes"/>
      <point x="471" y="221"/>
      <point x="369" y="322"/>
      <point x="369" y="534" type="curve" smooth="yes"/>
      <point x="369" y="712"/>
      <point x="460" y="829"/>
      <point x="615" y="829" type="curve" smooth="yes"/>
      <point x="775" y="829"/>
      <point x="826" y="710"/>
      <point x="846" y="651" type="curve"/>
      <point x="874" y="651" type="line"/>
      <point x="860" y="864" type="line"/>
      <point x="829" y="864" type="line"/>
      <point x="823" y="850"/>
      <point x="820" y="829"/>
      <point x="791" y="829" type="curve" smooth="yes"/>
      <point x="762" y="829"/>
      <point x="720" y="864"/>
      <point x="622" y="864" type="curve" smooth="yes"/>
      <point x="426" y="864"/>
      <point x="244" y="737"/>
      <point x="244" y="511" type="curve" smooth="yes"/>
      <point x="244" y="310"/>
      <point x="405" y="173"/>
      <point x="595" y="173" type="curve" smooth="yes"/>
      <point x="723" y="173"/>
      <point x="817" y="226"/>
    </contour>
  </outline>
</glyph>
<glyph name="ordfeminine" format="2">
  <advance width="497"/>
  <unicode hex="00AA"/>
  <outline>
    <contour>
      <point x="495" y="673" type="curve"/>
      <point x="495" y="700" type="line"/>
      <point x="457" y="666"/>
      <point x="448" y="663"/>
      <point x="437" y="663" type="curve" smooth="yes"/>
      <point x="421" y="663"/>
      <point x="414" y="669"/>
      <point x="412" y="686" type="curve"/>
      <point x="409" y="694"/>
      <point x="409" y="720"/>
      <point x="409" y="759" type="curve" smooth="yes"/>
      <point x="409" y="902" type="line" smooth="yes"/>
      <point x="409" y="989"/>
      <point x="387" y="1043"/>
      <point x="242" y="1043" type="curve" smooth="yes"/>
      <point x="146" y="1043"/>
      <point x="59" y="1005"/>
      <point x="59" y="939" type="curve" smooth="yes"/>
      <point x="59" y="912"/>
      <point x="75" y="896"/>
      <point x="105" y="896" type="curve" smooth="yes"/>
      <point x="132" y="896"/>
      <point x="151" y="912"/>
      <point x="150" y="939" type="curve" smooth="yes"/>
      <point x="148" y="966" type="line"/>
      <point x="151" y="995"/>
      <point x="179" y="1017"/>
      <point x="224" y="1017" type="curve" smooth="yes"/>
      <point x="288" y="1017"/>
      <point x="318" y="989"/>
      <point x="318" y="907" type="curve" smooth="yes"/>
      <point x="318" y="891" type="line"/>
      <point x="80" y="822"/>
      <point x="39" y="774"/>
      <point x="39" y="712" type="curve" smooth="yes"/>
      <point x="39" y="648"/>
      <point x="88" y="606"/>
      <point x="159" y="606" type="curve" smooth="yes"/>
      <point x="212" y="606"/>
      <point x="229" y="616"/>
      <point x="318" y="673" type="curve"/>
      <point x="318" y="621"/>
      <point x="345" y="606"/>
      <point x="377" y="606" type="curve" smooth="yes"/>
      <point x="416" y="606"/>
      <point x="455" y="629"/>
    </contour>
    <contour>
      <point x="486" y="498" type="line"/>
      <point x="486" y="531" type="line"/>
      <point x="45" y="531" type="line"/>
      <point x="45" y="498" type="line"/>
    </contour>
    <contour>
      <point x="318" y="704" type="line"/>
      <point x="273" y="673"/>
      <point x="236" y="655"/>
      <point x="209" y="657" type="curve"/>
      <point x="166" y="658"/>
      <point x="132" y="692"/>
      <point x="132" y="733" type="curve" smooth="yes"/>
      <point x="132" y="774"/>
      <point x="148" y="808"/>
      <point x="318" y="864" type="curve"/>
    </contour>
  </outline>
</glyph>
<glyph name="guillemotleft" format="2">
  <advance width="780"/>
  <unicode hex="00AB"/>
  <outline>
    <contour>
      <point x="731" y="-6" type="line"/>
      <point x="544" y="354" type="line"/>
      <point x="731" y="711" type="line"/>
      <point x="687" y="711" type="line"/>
      <point x="387" y="354" type="line"/>
      <point x="687" y="-6" type="line"/>
    </contour>
    <contour>
      <point x="385" y="-6" type="line"/>
      <point x="199" y="354" type="line"/>
      <point x="385" y="711" type="line"/>
      <point x="343" y="711" type="line"/>
      <point x="49" y="354" type="line"/>
      <point x="343" y="-6" type="line"/>
    </contour>
  </outline>
</glyph>
<glyph name="logicalnot" format="2">
  <advance width="930"/>
  <unicode hex="00AC"/>
  <outline>
    <contour>
      <point x="870" y="283" type="line"/>
      <point x="870" y="630" type="line"/>
      <point x="60" y="630" type="line"/>
      <point x="60" y="540" type="line"/>
      <point x="780" y="540" type="line"/>
      <point x="780" y="283" type="line"/>
    </contour>
  </outline>
</glyph>
<glyph name="uni00AD" format="2">
  <advance width="519"/>
  <unicode hex="00AD"/>
  <anchor x="260" y="761" name="U"/>
  <outline>
    <contour>
      <point x="457" y="291" type="line"/>
      <point x="457" y="406" type="line"/>
      <point x="63" y="406" type="line"/>
      <point x="63" y="291" type="line"/>
    </contour>
  </outline>
</glyph>
<glyph name="registered" format="2">
  <advance width="1185"/>
  <unicode hex="00AE"/>
  <outline>
    <contour>
      <point x="1134" y="516" type="curve" smooth="yes"/>
      <point x="1134" y="819"/>
      <point x="897" y="1056"/>
      <point x="593" y="1056" type="curve" smooth="yes"/>
      <point x="325" y="1056"/>
      <point x="53" y="853"/>
      <point x="53" y="516" type="curve" smooth="yes"/>
      <point x="53" y="207"/>
      <point x="295" y="-24"/>
      <point x="593" y="-24" type="curve" smooth="yes"/>
      <point x="891" y="-24"/>
      <point x="1134" y="212"/>
    </contour>
    <contour>
      <point x="1086" y="516" type="curve" smooth="yes"/>
      <point x="1086" y="229"/>
      <point x="855" y="24"/>
      <point x="593" y="24" type="curve" smooth="yes"/>
      <point x="326" y="24"/>
      <point x="100" y="232"/>
      <point x="100" y="516" type="curve" smooth="yes"/>
      <point x="100" y="820"/>
      <point x="351" y="1009"/>
      <point x="593" y="1009" type="curve" smooth="yes"/>
      <point x="864" y="1009"/>
      <point x="1086" y="793"/>
    </contour>
    <contour>
      <point x="897" y="190" type="line"/>
      <point x="897" y="216" type="line"/>
      <point x="879" y="218"/>
      <point x="866" y="221"/>
      <point x="856" y="226" type="curve"/>
      <point x="840" y="237"/>
      <point x="825" y="252"/>
      <point x="804" y="282" type="curve" smooth="yes"/>
      <point x="647" y="508" type="line"/>
      <point x="707" y="524"/>
      <point x="814" y="564"/>
      <point x="814" y="678" type="curve" smooth="yes"/>
      <point x="814" y="771"/>
      <point x="733" y="849"/>
      <point x="588" y="849" type="curve" smooth="yes"/>
      <point x="294" y="849" type="line"/>
      <point x="294" y="820" type="line"/>
      <point x="317" y="820"/>
      <point x="333" y="817"/>
      <point x="342" y="811" type="curve" smooth="yes"/>
      <point x="352" y="804"/>
      <point x="358" y="794"/>
      <point x="361" y="785" type="curve" smooth="yes"/>
      <point x="363" y="779"/>
      <point x="363" y="756"/>
      <point x="363" y="717" type="curve" smooth="yes"/>
      <point x="363" y="320" type="line" smooth="yes"/>
      <point x="363" y="281"/>
      <point x="363" y="250"/>
      <point x="351" y="236" type="curve" smooth="yes"/>
      <point x="336" y="216"/>
      <point x="309" y="216"/>
      <point x="285" y="216" type="curve"/>
      <point x="285" y="190" type="line"/>
      <point x="564" y="190" type="line"/>
      <point x="564" y="216" type="line"/>
      <point x="531" y="216"/>
      <point x="507" y="219"/>
      <point x="497" y="226" type="curve" smooth="yes"/>
      <point x="486" y="234"/>
      <point x="474" y="246"/>
      <point x="474" y="263" type="curve" smooth="yes"/>
      <point x="474" y="498" type="line"/>
      <point x="533" y="498" type="line"/>
      <point x="756" y="190" type="line"/>
    </contour>
    <contour>
      <point x="693" y="669" type="curve" smooth="yes"/>
      <point x="693" y="534"/>
      <point x="540" y="531"/>
      <point x="474" y="531" type="curve"/>
      <point x="474" y="804" type="line"/>
      <point x="498" y="811"/>
      <point x="519" y="814"/>
      <point x="538" y="814" type="curve" smooth="yes"/>
      <point x="634" y="814"/>
      <point x="693" y="746"/>
    </contour>
  </outline>
</glyph>
<glyph name="macron" format="2">
  <advance width="489"/>
  <unicode hex="00AF"/>
  <outline>
    <contour>
      <point x="489" y="856" type="line"/>
      <point x="489" y="941" type="line"/>
      <point x="0" y="941" type="line"/>
      <point x="0" y="856" type="line"/>
    </contour>
  </outline>
</glyph>
<glyph name="degree" format="2">
  <advance width="479"/>
  <unicode hex="00B0"/>
  <outline>
    <contour>
      <point x="405" y="915" type="curve" smooth="yes"/>
      <point x="405" y="1006"/>
      <point x="332" y="1081"/>
      <point x="240" y="1081" type="curve" smooth="yes"/>
      <point x="148" y="1081"/>
      <point x="75" y="1006"/>
      <point x="75" y="915" type="curve" smooth="yes"/>
      <point x="75" y="823"/>
      <point x="148" y="750"/>
      <point x="240" y="750" type="curve" smooth="yes"/>
      <point x="332" y="750"/>
      <point x="405" y="823"/>
    </contour>
    <contour>
      <point x="345" y="915" type="curve" smooth="yes"/>
      <point x="345" y="856"/>
      <point x="299" y="810"/>
      <point x="240" y="810" type="curve" smooth="yes"/>
      <point x="182" y="810"/>
      <point x="135" y="856"/>
      <point x="135" y="915" type="curve" smooth="yes"/>
      <point x="135" y="973"/>
      <point x="182" y="1021"/>
      <point x="240" y="1021" type="curve" smooth="yes"/>
      <point x="299" y="1021"/>
      <point x="345" y="973"/>
    </contour>
  </outline>
</glyph>
<glyph name="plusminus" format="2">
  <advance width="1500"/>
  <unicode hex="00B1"/>
  <outline>
    <contour>
      <point x="1199" y="537" type="line"/>
      <point x="1199" y="630" type="line"/>
      <point x="796" y="630" type="line"/>
      <point x="796" y="900" type="line"/>
      <point x="704" y="900" type="line"/>
      <point x="704" y="630" type="line"/>
      <point x="301" y="630" type="line"/>
      <point x="301" y="537" type="line"/>
      <point x="704" y="537" type="line"/>
      <point x="704" y="267" type="line"/>
      <point x="796" y="267" type="line"/>
      <point x="796" y="537" type="line"/>
    </contour>
    <contour>
      <point x="1199" y="0" type="line"/>
      <point x="1199" y="93" type="line"/>
      <point x="301" y="93" type="line"/>
      <point x="301" y="0" type="line"/>
    </contour>
  </outline>
</glyph>
<glyph name="twosuperior" format="2">
  <advance width="561"/>
  <unicode hex="00B2"/>
  <anchor x="269" y="571" name="L"/>
  <anchor x="269" y="1237" name="U"/>
  <outline>
    <contour>
      <point x="514" y="731" type="line"/>
      <point x="495" y="731" type="line"/>
      <point x="460" y="692"/>
      <point x="448" y="683"/>
      <point x="336" y="683" type="curve" smooth="yes"/>
      <point x="142" y="683" type="line"/>
      <point x="164" y="700"/>
      <point x="221" y="750"/>
      <point x="310" y="833" type="curve"/>
      <point x="372" y="887"/>
      <point x="470" y="985"/>
      <point x="470" y="1083" type="curve" smooth="yes"/>
      <point x="470" y="1185"/>
      <point x="363" y="1247"/>
      <point x="256" y="1247" type="curve" smooth="yes"/>
      <point x="93" y="1247"/>
      <point x="56" y="1128"/>
      <point x="46" y="1071" type="curve"/>
      <point x="66" y="1071" type="line"/>
      <point x="80" y="1105"/>
      <point x="125" y="1177"/>
      <point x="228" y="1177" type="curve" smooth="yes"/>
      <point x="275" y="1177"/>
      <point x="375" y="1148"/>
      <point x="375" y="1041" type="curve" smooth="yes"/>
      <point x="375" y="990"/>
      <point x="348" y="933"/>
      <point x="298" y="871" type="curve"/>
      <point x="244" y="808"/>
      <point x="151" y="729"/>
      <point x="24" y="630" type="curve"/>
      <point x="24" y="613" type="line"/>
      <point x="462" y="613" type="line"/>
    </contour>
  </outline>
</glyph>
<glyph name="threesuperior" format="2">
  <advance width="561"/>
  <unicode hex="00B3"/>
  <anchor x="257" y="571" name="L"/>
  <anchor x="257" y="1237" name="U"/>
  <outline>
    <contour>
      <point x="468" y="819" type="curve" smooth="yes"/>
      <point x="468" y="923"/>
      <point x="378" y="966"/>
      <point x="330" y="981" type="curve"/>
      <point x="398" y="1029"/>
      <point x="431" y="1075"/>
      <point x="431" y="1120" type="curve" smooth="yes"/>
      <point x="431" y="1152"/>
      <point x="402" y="1247"/>
      <point x="258" y="1247" type="curve" smooth="yes"/>
      <point x="123" y="1247"/>
      <point x="78" y="1154"/>
      <point x="57" y="1115" type="curve"/>
      <point x="75" y="1106" type="line"/>
      <point x="113" y="1158"/>
      <point x="161" y="1183"/>
      <point x="218" y="1183" type="curve" smooth="yes"/>
      <point x="267" y="1183"/>
      <point x="341" y="1159"/>
      <point x="341" y="1079" type="curve" smooth="yes"/>
      <point x="341" y="964"/>
      <point x="198" y="938"/>
      <point x="170" y="935" type="curve"/>
      <point x="170" y="921" type="line"/>
      <point x="170" y="921"/>
      <point x="387" y="927"/>
      <point x="387" y="763" type="curve" smooth="yes"/>
      <point x="387" y="690"/>
      <point x="314" y="642"/>
      <point x="247" y="642" type="curve" smooth="yes"/>
      <point x="173" y="642"/>
      <point x="145" y="684"/>
      <point x="90" y="684" type="curve" smooth="yes"/>
      <point x="66" y="684"/>
      <point x="46" y="670"/>
      <point x="46" y="652" type="curve" smooth="yes"/>
      <point x="46" y="638"/>
      <point x="51" y="603"/>
      <point x="174" y="603" type="curve" smooth="yes"/>
      <point x="355" y="603"/>
      <point x="468" y="692"/>
    </contour>
  </outline>
</glyph>
<glyph name="acute" format="2">
  <advance width="534"/>
  <unicode hex="00B4"/>
  <anchor x="358" y="1046" name="U"/>
  <outline>
    <contour>
      <point x="534" y="1012" type="curve" smooth="yes"/>
      <point x="534" y="1033"/>
      <point x="510" y="1062"/>
      <point x="494" y="1062" type="curve" smooth="yes"/>
      <point x="460" y="1062"/>
      <point x="426" y="1038"/>
      <point x="400" y="1011" type="curve" smooth="yes"/>
      <point x="183" y="793" type="line"/>
      <point x="246" y="793" type="line"/>
      <point x="471" y="936" type="line" smooth="yes"/>
      <point x="504" y="957"/>
      <point x="534" y="982"/>
    </contour>
  </outline>
</glyph>
<glyph name="mu" format="2">
  <advance width="884"/>
  <unicode hex="00B5"/>
  <outline>
    <contour>
      <point x="825" y="158" type="curve"/>
      <point x="794" y="158" type="line"/>
      <point x="780" y="84"/>
      <point x="763" y="63"/>
      <point x="731" y="63" type="curve" smooth="yes"/>
      <point x="704" y="63"/>
      <point x="681" y="66"/>
      <point x="681" y="201" type="curve" smooth="yes"/>
      <point x="681" y="696" type="line"/>
      <point x="554" y="696" type="line"/>
      <point x="554" y="174" type="line"/>
      <point x="494" y="107"/>
      <point x="434" y="72"/>
      <point x="375" y="72" type="curve" smooth="yes"/>
      <point x="326" y="72"/>
      <point x="292" y="103"/>
      <point x="281" y="142" type="curve"/>
      <point x="272" y="167"/>
      <point x="267" y="216"/>
      <point x="267" y="291" type="curve" smooth="yes"/>
      <point x="267" y="696" type="line"/>
      <point x="143" y="696" type="line"/>
      <point x="143" y="146" type="line" smooth="yes"/>
      <point x="143" y="-143"/>
      <point x="94" y="-161"/>
      <point x="94" y="-255" type="curve" smooth="yes"/>
      <point x="94" y="-303"/>
      <point x="126" y="-338"/>
      <point x="161" y="-338" type="curve" smooth="yes"/>
      <point x="198" y="-338"/>
      <point x="232" y="-302"/>
      <point x="232" y="-252" type="curve" smooth="yes"/>
      <point x="232" y="-190"/>
      <point x="196" y="-88"/>
      <point x="196" y="8" type="curve" smooth="yes"/>
      <point x="196" y="43" type="line"/>
      <point x="234" y="-20"/>
      <point x="292" y="-23"/>
      <point x="315" y="-23" type="curve" smooth="yes"/>
      <point x="395" y="-23"/>
      <point x="468" y="24"/>
      <point x="554" y="123" type="curve"/>
      <point x="568" y="10"/>
      <point x="613" y="-23"/>
      <point x="673" y="-23" type="curve" smooth="yes"/>
      <point x="751" y="-23"/>
      <point x="816" y="29"/>
    </contour>
  </outline>
</glyph>
<glyph name="paragraph" format="2">
  <advance width="1018"/>
  <unicode hex="00B6"/>
  <outline>
    <contour>
      <point x="748" y="1272" type="line"/>
      <point x="748" y="1314" type="line"/>
      <point x="356" y="1314" type="line" smooth="yes"/>
      <point x="164" y="1314"/>
      <point x="0" y="1230"/>
      <point x="0" y="1018" type="curve" smooth="yes"/>
      <point x="0" y="790"/>
      <point x="182" y="724"/>
      <point x="380" y="720" type="curve"/>
      <point x="380" y="-106" type="line"/>
      <point x="438" y="-106" type="line"/>
      <point x="438" y="1272" type="line"/>
      <point x="584" y="1272" type="line"/>
      <point x="584" y="-106" type="line"/>
      <point x="642" y="-106" type="line"/>
      <point x="642" y="1272" type="line"/>
    </contour>
  </outline>
</glyph>
<glyph name="cedilla" format="2">
  <advance width="326"/>
  <unicode hex="00B8"/>
  <anchor x="163" y="-381" name="L"/>
  <outline>
    <contour>
      <point x="326" y="-205" type="curve" smooth="yes"/>
      <point x="326" y="-130"/>
      <point x="263" y="-97"/>
      <point x="196" y="-97" type="curve" smooth="yes"/>
      <point x="180" y="-97"/>
      <point x="165" y="-99"/>
      <point x="151" y="-102" type="curve"/>
      <point x="199" y="19" type="line"/>
      <point x="144" y="19" type="line"/>
      <point x="70" y="-154" type="line"/>
      <point x="83" y="-164" type="line"/>
      <point x="103" y="-158"/>
      <point x="129" y="-154"/>
      <point x="153" y="-156" type="curve" smooth="yes"/>
      <point x="187" y="-159"/>
      <point x="210" y="-180"/>
      <point x="210" y="-216" type="curve" smooth="yes"/>
      <point x="210" y="-260"/>
      <point x="177" y="-282"/>
      <point x="119" y="-282" type="curve" smooth="yes"/>
      <point x="93" y="-282"/>
      <point x="49" y="-273"/>
      <point x="23" y="-263" type="curve"/>
      <point x="0" y="-312" type="line"/>
      <point x="39" y="-325"/>
      <point x="84" y="-336"/>
      <point x="126" y="-336" type="curve" smooth="yes"/>
      <point x="224" y="-336"/>
      <point x="326" y="-288"/>
    </contour>
  </outline>
</glyph>
<glyph name="onesuperior" format="2">
  <advance width="561"/>
  <unicode hex="00B9"/>
  <anchor x="279" y="571" name="L"/>
  <anchor x="279" y="1237" name="U"/>
  <outline>
    <contour>
      <point x="425" y="613" type="line"/>
      <point x="425" y="630" type="line"/>
      <point x="332" y="630"/>
      <point x="332" y="644"/>
      <point x="332" y="723" type="curve" smooth="yes"/>
      <point x="332" y="1247" type="line"/>
      <point x="312" y="1247" type="line"/>
      <point x="132" y="1173" type="line"/>
      <point x="139" y="1158" type="line"/>
      <point x="249" y="1199"/>
      <point x="240" y="1138"/>
      <point x="240" y="1058" type="curve" smooth="yes"/>
      <point x="240" y="723" type="line" smooth="yes"/>
      <point x="240" y="645"/>
      <point x="237" y="630"/>
      <point x="145" y="630" type="curve"/>
      <point x="145" y="613" type="line"/>
    </contour>
  </outline>
</glyph>
<glyph name="ordmasculine" format="2">
  <advance width="572"/>
  <unicode hex="00BA"/>
  <outline>
    <contour>
      <point x="528" y="831" type="curve" smooth="yes"/>
      <point x="528" y="949"/>
      <point x="431" y="1043"/>
      <point x="286" y="1043" type="curve" smooth="yes"/>
      <point x="135" y="1043"/>
      <point x="43" y="931"/>
      <point x="43" y="819" type="curve" smooth="yes"/>
      <point x="43" y="702"/>
      <point x="142" y="600"/>
      <point x="282" y="600" type="curve" smooth="yes"/>
      <point x="445" y="600"/>
      <point x="528" y="723"/>
    </contour>
    <contour>
      <point x="521" y="498" type="line"/>
      <point x="521" y="531" type="line"/>
      <point x="53" y="531" type="line"/>
      <point x="53" y="498" type="line"/>
    </contour>
    <contour>
      <point x="426" y="794" type="curve" smooth="yes"/>
      <point x="426" y="675"/>
      <point x="377" y="633"/>
      <point x="304" y="633" type="curve" smooth="yes"/>
      <point x="209" y="633"/>
      <point x="146" y="737"/>
      <point x="146" y="856" type="curve" smooth="yes"/>
      <point x="146" y="978"/>
      <point x="213" y="1015"/>
      <point x="270" y="1015" type="curve" smooth="yes"/>
      <point x="366" y="1015"/>
      <point x="426" y="919"/>
    </contour>
  </outline>
</glyph>
<glyph name="guillemotright" format="2">
  <advance width="780"/>
  <unicode hex="00BB"/>
  <outline>
    <contour>
      <point x="731" y="352" type="line"/>
      <point x="437" y="711" type="line"/>
      <point x="395" y="711" type="line"/>
      <point x="581" y="352" type="line"/>
      <point x="395" y="-6" type="line"/>
      <point x="437" y="-6" type="line"/>
    </contour>
    <contour>
      <point x="393" y="352" type="line"/>
      <point x="93" y="711" type="line"/>
      <point x="49" y="711" type="line"/>
      <point x="236" y="352" type="line"/>
      <point x="49" y="-6" type="line"/>
      <point x="93" y="-6" type="line"/>
    </contour>
  </outline>
</glyph>
<glyph name="onequarter" format="2">
  <advance width="1155"/>
  <unicode hex="00BC"/>
  <outline>
    <contour>
      <point x="1029" y="161" type="line"/>
      <point x="1029" y="224" type="line"/>
      <point x="946" y="224" type="line"/>
      <point x="946" y="633" type="line"/>
      <point x="896" y="633" type="line"/>
      <point x="604" y="218" type="line"/>
      <point x="604" y="161" type="line"/>
      <point x="870" y="161" type="line"/>
      <point x="870" y="-6" type="line"/>
      <point x="946" y="-6" type="line"/>
      <point x="946" y="161" type="line"/>
    </contour>
    <contour>
      <point x="972" y="1052" type="line"/>
      <point x="902" y="1052" type="line"/>
      <point x="192" y="-11" type="line"/>
      <point x="267" y="-11" type="line"/>
    </contour>
    <contour>
      <point x="374" y="400" type="line"/>
      <point x="374" y="417" type="line"/>
      <point x="294" y="417"/>
      <point x="294" y="429"/>
      <point x="294" y="510" type="curve" smooth="yes"/>
      <point x="294" y="1038" type="line"/>
      <point x="278" y="1038" type="line"/>
      <point x="126" y="964" type="line"/>
      <point x="132" y="947" type="line"/>
      <point x="226" y="992"/>
      <point x="218" y="930"/>
      <point x="218" y="846" type="curve" smooth="yes"/>
      <point x="218" y="510" type="line" smooth="yes"/>
      <point x="218" y="429"/>
      <point x="215" y="417"/>
      <point x="136" y="417" type="curve"/>
      <point x="136" y="400" type="line"/>
    </contour>
    <contour>
      <point x="870" y="224" type="line"/>
      <point x="650" y="224" type="line"/>
      <point x="870" y="536" type="line"/>
    </contour>
  </outline>
</glyph>
